{"glyphs":{"0":{"ha":632,"x_min":92,"x_max":539,"o":"m 317 935 q 483 819 428 935 q 539 458 539 704 q 483 101 539 215 q 317 -14 428 -14 q 148 102 204 -14 q 92 461 92 218 q 148 819 92 704 q 317 935 204 935 m 317 906 q 172 799 221 906 q 124 461 124 692 q 172 122 124 229 q 317 15 219 15 q 460 122 413 15 q 508 458 508 228 q 460 799 508 692 q 317 906 413 906 z "},"1":{"ha":451,"x_min":53,"x_max":294,"o":"m 294 918 l 294 0 l 264 0 l 264 881 l 69 729 l 53 753 l 269 918 l 294 918 z "},"2":{"ha":517,"x_min":32,"x_max":449,"o":"m 239 935 q 379 873 328 935 q 431 713 431 811 q 399 538 431 621 q 299 349 368 456 q 74 31 229 243 l 449 31 l 443 0 l 38 0 l 38 29 q 268 353 196 243 q 370 544 340 464 q 400 713 400 624 q 357 853 400 801 q 239 906 314 906 q 137 878 181 906 q 54 794 93 850 l 32 810 q 126 904 76 874 q 239 935 175 935 z "},"3":{"ha":543,"x_min":32,"x_max":463,"o":"m 247 935 q 390 873 338 935 q 442 710 442 811 q 396 558 442 613 q 275 490 350 504 q 411 425 360 483 q 463 256 463 367 q 402 60 463 133 q 243 -14 342 -14 q 125 14 174 -14 q 32 101 76 42 l 53 117 q 139 38 96 61 q 242 14 182 14 q 381 79 329 14 q 432 254 432 144 q 377 420 432 365 q 228 475 322 475 l 183 475 l 186 503 l 226 503 q 317 525 274 503 q 386 594 360 547 q 413 710 413 642 q 368 854 413 801 q 247 907 324 907 q 156 886 197 907 q 72 818 114 865 l 53 833 q 143 910 96 886 q 247 935 190 935 z "},"4":{"ha":575,"x_min":57,"x_max":531,"o":"m 531 288 l 531 260 l 425 260 l 425 0 l 396 0 l 396 260 l 57 260 l 57 285 l 292 935 l 318 925 l 89 288 l 396 288 l 400 581 l 425 581 l 425 288 l 531 288 z "},"5":{"ha":542,"x_min":49,"x_max":475,"o":"m 446 890 l 128 890 l 128 522 q 268 576 189 576 q 420 503 365 576 q 475 297 475 429 q 415 71 475 156 q 250 -14 354 -14 q 49 90 128 -14 l 71 108 q 150 38 107 61 q 251 15 193 15 q 393 91 342 15 q 444 297 444 167 q 397 484 444 421 q 265 547 349 547 q 192 534 225 547 q 122 492 158 521 l 99 492 l 99 918 l 451 918 l 446 890 z "},"6":{"ha":596,"x_min":92,"x_max":524,"o":"m 329 593 q 470 522 417 593 q 524 308 524 450 q 469 68 524 150 q 319 -14 414 -14 q 146 97 200 -14 q 92 400 92 208 q 160 795 92 656 q 351 935 229 935 q 419 922 389 935 q 479 883 450 908 l 461 861 q 350 906 413 906 q 185 780 244 906 q 122 435 125 654 q 329 593 206 593 m 319 15 q 449 91 404 15 q 493 307 493 167 q 449 500 493 436 q 329 564 404 564 q 122 388 206 564 q 319 15 126 15 z "},"7":{"ha":494,"x_min":43,"x_max":446,"o":"m 446 918 l 446 893 l 135 -8 l 106 3 l 414 890 l 43 890 l 43 918 l 446 918 z "},"8":{"ha":607,"x_min":74,"x_max":533,"o":"m 356 479 q 493 378 453 432 q 533 232 533 325 q 471 51 533 115 q 303 -14 408 -14 q 135 51 196 -14 q 74 233 74 117 q 253 504 74 422 q 140 590 174 543 q 107 713 107 636 q 164 876 107 818 q 304 935 221 935 q 445 878 389 935 q 501 711 501 822 q 467 582 501 635 q 356 479 433 529 m 138 713 q 167 599 138 642 q 283 515 197 557 l 332 490 q 438 587 406 536 q 471 711 471 638 q 425 858 471 810 q 304 907 379 907 q 184 858 231 907 q 138 713 138 808 m 303 15 q 449 69 394 15 q 503 232 503 124 q 485 335 503 294 q 428 406 467 376 q 322 468 390 435 l 276 489 q 145 386 186 447 q 104 233 104 325 q 158 70 104 125 q 303 15 211 15 z "},"9":{"ha":583,"x_min":68,"x_max":500,"o":"m 285 935 q 448 840 396 935 q 500 551 500 744 q 459 272 500 383 q 341 93 418 161 q 143 -21 264 25 l 133 4 q 313 108 242 47 q 425 265 385 168 q 469 503 465 361 q 274 354 393 354 q 125 429 182 354 q 68 638 68 504 q 127 858 68 781 q 285 935 186 935 m 274 383 q 382 424 335 383 q 469 546 429 465 q 426 818 469 731 q 286 906 383 906 q 151 838 200 906 q 101 636 101 771 q 148 449 101 514 q 274 383 194 383 z "},"\r":{"ha":335,"x_min":0,"x_max":0,"o":""}," ":{"ha":335,"x_min":0,"x_max":0,"o":""},"A":{"ha":653,"x_min":39,"x_max":615,"o":"m 583 0 l 504 282 l 147 282 l 68 0 l 39 0 l 307 946 l 346 946 l 615 0 l 583 0 m 156 311 l 496 311 l 326 921 l 156 311 z "},"Á":{"ha":653,"x_min":39,"x_max":615,"o":"m 583 0 l 504 282 l 147 282 l 68 0 l 39 0 l 307 946 l 346 946 l 615 0 l 583 0 m 156 311 l 496 311 l 326 921 l 156 311 m 418 1192 l 433 1161 l 228 1061 l 218 1081 l 418 1192 z "},"Ă":{"ha":653,"x_min":39,"x_max":615,"o":"m 583 0 l 504 282 l 147 282 l 68 0 l 39 0 l 307 946 l 346 946 l 615 0 l 583 0 m 156 311 l 496 311 l 326 921 l 156 311 m 326 1071 q 242 1101 276 1071 q 200 1176 208 1131 l 222 1182 q 260 1122 233 1144 q 326 1100 288 1100 q 392 1122 365 1100 q 432 1182 419 1144 l 453 1176 q 411 1101 446 1131 q 326 1071 376 1071 z "},"Ắ":{"ha":653,"x_min":39,"x_max":615,"o":"m 583 0 l 504 282 l 147 282 l 68 0 l 39 0 l 307 946 l 346 946 l 615 0 l 583 0 m 156 311 l 496 311 l 326 921 l 156 311 m 326 1024 q 242 1053 276 1024 q 200 1129 208 1083 l 222 1135 q 260 1075 233 1097 q 326 1053 288 1053 q 392 1075 365 1053 q 432 1135 419 1097 l 453 1129 q 411 1053 446 1083 q 326 1024 376 1024 m 429 1350 l 456 1331 l 333 1171 l 315 1183 l 429 1350 z "},"Ặ":{"ha":653,"x_min":39,"x_max":615,"o":"m 583 0 l 504 282 l 147 282 l 68 0 l 39 0 l 307 946 l 346 946 l 615 0 l 583 0 m 156 311 l 496 311 l 326 921 l 156 311 m 326 1071 q 242 1101 276 1071 q 200 1176 208 1131 l 222 1182 q 260 1122 233 1144 q 326 1100 288 1100 q 392 1122 365 1100 q 432 1182 419 1144 l 453 1176 q 411 1101 446 1131 q 326 1071 376 1071 m 325 -192 q 306 -183 314 -192 q 299 -164 299 -175 q 306 -145 299 -153 q 325 -137 314 -137 q 345 -145 338 -137 q 353 -164 353 -153 q 345 -183 353 -175 q 325 -192 338 -192 z "},"Ằ":{"ha":653,"x_min":39,"x_max":615,"o":"m 583 0 l 504 282 l 147 282 l 68 0 l 39 0 l 307 946 l 346 946 l 615 0 l 583 0 m 156 311 l 496 311 l 326 921 l 156 311 m 322 1024 q 238 1053 272 1024 q 196 1129 204 1083 l 218 1135 q 256 1075 229 1097 q 322 1053 283 1053 q 388 1075 361 1053 q 428 1135 415 1097 l 449 1129 q 407 1053 442 1083 q 322 1024 372 1024 m 233 1350 l 347 1183 l 329 1171 l 207 1331 l 233 1350 z "},"Ẳ":{"ha":653,"x_min":39,"x_max":615,"o":"m 583 0 l 504 282 l 147 282 l 68 0 l 39 0 l 307 946 l 346 946 l 615 0 l 583 0 m 156 311 l 496 311 l 326 921 l 156 311 m 328 1024 q 244 1053 278 1024 q 201 1129 210 1083 l 224 1135 q 262 1075 235 1097 q 328 1053 289 1053 q 394 1075 367 1053 q 433 1135 421 1097 l 454 1129 q 413 1053 447 1083 q 328 1024 378 1024 m 306 1214 q 382 1286 382 1217 q 366 1333 382 1317 q 322 1350 350 1350 q 260 1331 290 1350 l 247 1353 q 326 1378 283 1378 q 389 1353 365 1378 q 413 1286 413 1328 q 333 1194 413 1204 l 333 1135 l 306 1135 l 306 1214 z "},"Ẵ":{"ha":653,"x_min":39,"x_max":615,"o":"m 583 0 l 504 282 l 147 282 l 68 0 l 39 0 l 307 946 l 346 946 l 615 0 l 583 0 m 156 311 l 496 311 l 326 921 l 156 311 m 329 1024 q 245 1053 279 1024 q 203 1129 211 1083 l 225 1135 q 263 1075 236 1097 q 329 1053 290 1053 q 395 1075 368 1053 q 435 1135 422 1097 l 456 1129 q 414 1053 449 1083 q 329 1024 379 1024 m 394 1215 q 358 1224 375 1215 q 319 1249 340 1232 q 303 1260 315 1251 q 280 1272 290 1268 q 261 1276 269 1276 q 227 1265 242 1276 q 194 1228 213 1254 l 175 1239 q 216 1287 196 1271 q 261 1303 236 1303 q 292 1296 278 1303 q 329 1272 306 1289 q 365 1249 350 1257 q 394 1242 379 1242 q 429 1255 414 1242 q 463 1299 444 1268 l 482 1289 q 442 1233 463 1250 q 394 1215 421 1215 z "},"Ǎ":{"ha":653,"x_min":39,"x_max":615,"o":"m 583 0 l 504 282 l 147 282 l 68 0 l 39 0 l 307 946 l 346 946 l 615 0 l 583 0 m 156 311 l 496 311 l 326 921 l 156 311 m 458 1199 l 471 1183 l 333 1056 l 317 1056 l 179 1183 l 193 1199 l 325 1088 l 458 1199 z "},"Â":{"ha":653,"x_min":39,"x_max":615,"o":"m 583 0 l 504 282 l 147 282 l 68 0 l 39 0 l 307 946 l 346 946 l 615 0 l 583 0 m 156 311 l 496 311 l 326 921 l 156 311 m 194 1065 l 179 1081 l 317 1207 l 333 1207 l 472 1081 l 456 1065 l 325 1175 l 194 1065 z "},"Ấ":{"ha":653,"x_min":39,"x_max":615,"o":"m 583 0 l 504 282 l 147 282 l 68 0 l 39 0 l 307 946 l 346 946 l 615 0 l 583 0 m 156 311 l 496 311 l 326 921 l 156 311 m 200 1025 l 185 1040 l 322 1167 l 339 1167 l 478 1040 l 461 1025 l 331 1135 l 200 1025 m 539 1324 l 565 1304 l 443 1144 l 425 1157 l 539 1324 z "},"Ậ":{"ha":653,"x_min":39,"x_max":615,"o":"m 583 0 l 504 282 l 147 282 l 68 0 l 39 0 l 307 946 l 346 946 l 615 0 l 583 0 m 156 311 l 496 311 l 326 921 l 156 311 m 194 1065 l 179 1081 l 317 1207 l 333 1207 l 472 1081 l 456 1065 l 325 1175 l 194 1065 m 325 -192 q 306 -183 314 -192 q 299 -164 299 -175 q 306 -145 299 -153 q 325 -137 314 -137 q 345 -145 338 -137 q 353 -164 353 -153 q 345 -183 353 -175 q 325 -192 338 -192 z "},"Ầ":{"ha":653,"x_min":39,"x_max":615,"o":"m 583 0 l 504 282 l 147 282 l 68 0 l 39 0 l 307 946 l 346 946 l 615 0 l 583 0 m 156 311 l 496 311 l 326 921 l 156 311 m 194 1025 l 179 1040 l 317 1167 l 333 1167 l 472 1040 l 456 1025 l 325 1135 l 194 1025 m 121 1324 l 235 1157 l 217 1144 l 94 1304 l 121 1324 z "},"Ẩ":{"ha":653,"x_min":39,"x_max":615,"o":"m 583 0 l 504 282 l 147 282 l 68 0 l 39 0 l 307 946 l 346 946 l 615 0 l 583 0 m 156 311 l 496 311 l 326 921 l 156 311 m 194 1025 l 179 1040 l 317 1167 l 333 1167 l 472 1040 l 456 1025 l 325 1135 l 194 1025 m 433 1196 q 510 1268 510 1199 q 494 1315 510 1299 q 450 1332 478 1332 q 388 1313 418 1332 l 375 1335 q 454 1360 411 1360 q 517 1335 493 1360 q 540 1268 540 1310 q 461 1176 540 1186 l 461 1117 l 433 1117 l 433 1196 z "},"Ẫ":{"ha":653,"x_min":39,"x_max":615,"o":"m 583 0 l 504 282 l 147 282 l 68 0 l 39 0 l 307 946 l 346 946 l 615 0 l 583 0 m 156 311 l 496 311 l 326 921 l 156 311 m 193 1025 l 178 1040 l 315 1167 l 332 1167 l 471 1040 l 454 1025 l 324 1135 l 193 1025 m 390 1231 q 353 1239 371 1231 q 315 1264 336 1247 q 299 1275 311 1267 q 276 1288 286 1283 q 257 1292 265 1292 q 223 1281 238 1292 q 190 1243 208 1269 l 171 1254 q 212 1302 192 1286 q 257 1318 232 1318 q 288 1311 274 1318 q 325 1288 301 1304 q 360 1265 346 1272 q 390 1257 375 1257 q 425 1270 410 1257 q 458 1314 440 1283 l 478 1304 q 438 1248 458 1265 q 390 1231 417 1231 z "},"Ȁ":{"ha":653,"x_min":39,"x_max":615,"o":"m 583 0 l 504 282 l 147 282 l 68 0 l 39 0 l 307 946 l 346 946 l 615 0 l 583 0 m 156 311 l 496 311 l 326 921 l 156 311 m 192 1274 l 274 1090 l 253 1081 l 163 1260 l 192 1274 m 319 1272 l 394 1096 l 374 1086 l 290 1258 l 319 1272 z "},"Ä":{"ha":653,"x_min":39,"x_max":615,"o":"m 583 0 l 504 282 l 147 282 l 68 0 l 39 0 l 307 946 l 346 946 l 615 0 l 583 0 m 156 311 l 496 311 l 326 921 l 156 311 m 238 1164 q 257 1156 250 1164 q 264 1136 264 1149 q 257 1117 264 1125 q 238 1110 250 1110 q 219 1117 226 1110 q 211 1136 211 1125 q 219 1156 211 1147 q 238 1164 226 1164 m 431 1164 q 449 1156 442 1164 q 457 1136 457 1147 q 449 1117 457 1125 q 431 1110 442 1110 q 410 1117 418 1110 q 403 1136 403 1125 q 410 1156 403 1147 q 431 1164 418 1164 z "},"Ǟ":{"ha":653,"x_min":39,"x_max":615,"o":"m 583 0 l 504 282 l 147 282 l 68 0 l 39 0 l 307 946 l 346 946 l 615 0 l 583 0 m 156 311 l 496 311 l 326 921 l 156 311 m 229 1085 q 249 1077 242 1085 q 256 1057 256 1069 q 249 1038 256 1046 q 229 1031 242 1031 q 210 1038 218 1031 q 203 1057 203 1046 q 210 1076 203 1068 q 229 1085 218 1085 m 422 1085 q 441 1076 433 1085 q 449 1057 449 1068 q 441 1038 449 1046 q 422 1031 433 1031 q 402 1038 410 1031 q 394 1057 394 1046 q 402 1076 394 1068 q 422 1085 410 1085 m 447 1181 l 206 1181 l 206 1208 l 447 1208 l 447 1181 z "},"Ȧ":{"ha":653,"x_min":39,"x_max":615,"o":"m 583 0 l 504 282 l 147 282 l 68 0 l 39 0 l 307 946 l 346 946 l 615 0 l 583 0 m 156 311 l 496 311 l 326 921 l 156 311 m 328 1181 q 347 1172 339 1181 q 354 1153 354 1164 q 347 1134 354 1142 q 328 1126 339 1126 q 308 1134 315 1126 q 300 1153 300 1142 q 308 1172 300 1164 q 328 1181 315 1181 z "},"Ạ":{"ha":653,"x_min":39,"x_max":615,"o":"m 583 0 l 504 282 l 147 282 l 68 0 l 39 0 l 307 946 l 346 946 l 615 0 l 583 0 m 156 311 l 496 311 l 326 921 l 156 311 m 325 -192 q 306 -183 314 -192 q 299 -164 299 -175 q 306 -145 299 -153 q 325 -137 314 -137 q 345 -145 338 -137 q 353 -164 353 -153 q 345 -183 353 -175 q 325 -192 338 -192 z "},"Ǡ":{"ha":653,"x_min":39,"x_max":615,"o":"m 583 0 l 504 282 l 147 282 l 68 0 l 39 0 l 307 946 l 346 946 l 615 0 l 583 0 m 156 311 l 496 311 l 326 921 l 156 311 m 326 1092 q 345 1083 338 1092 q 353 1064 353 1075 q 345 1045 353 1053 q 326 1038 338 1038 q 306 1045 314 1038 q 299 1064 299 1053 q 306 1083 299 1075 q 326 1092 314 1092 m 447 1179 l 206 1179 l 206 1207 l 447 1207 l 447 1179 z "},"À":{"ha":653,"x_min":39,"x_max":615,"o":"m 583 0 l 504 282 l 147 282 l 68 0 l 39 0 l 307 946 l 346 946 l 615 0 l 583 0 m 156 311 l 496 311 l 326 921 l 156 311 m 236 1190 l 435 1079 l 424 1060 l 219 1161 l 236 1190 z "},"Ả":{"ha":653,"x_min":39,"x_max":615,"o":"m 583 0 l 504 282 l 147 282 l 68 0 l 39 0 l 307 946 l 346 946 l 615 0 l 583 0 m 156 311 l 496 311 l 326 921 l 156 311 m 313 1165 q 389 1238 389 1168 q 373 1285 389 1268 q 329 1301 357 1301 q 267 1282 297 1301 l 254 1304 q 333 1329 290 1329 q 396 1304 372 1329 q 419 1238 419 1279 q 340 1146 419 1156 l 340 1086 l 313 1086 l 313 1165 z "},"Ȃ":{"ha":653,"x_min":39,"x_max":615,"o":"m 583 0 l 504 282 l 147 282 l 68 0 l 39 0 l 307 946 l 346 946 l 615 0 l 583 0 m 156 311 l 496 311 l 326 921 l 156 311 m 326 1232 q 412 1200 378 1232 q 453 1113 446 1168 l 431 1107 q 326 1203 411 1203 q 222 1107 244 1203 l 200 1113 q 242 1200 208 1168 q 326 1232 275 1232 z "},"Ɑ":{"ha":757,"x_min":88,"x_max":671,"o":"m 614 117 q 626 57 614 78 q 671 19 639 36 l 661 -7 q 602 38 619 11 q 582 108 585 65 q 379 -14 504 -14 q 167 103 247 -14 q 88 457 88 221 q 168 833 88 707 q 382 960 249 960 q 583 854 508 960 l 586 946 l 614 946 l 614 117 m 379 17 q 582 154 507 17 l 582 813 q 497 900 547 869 q 382 931 446 931 q 192 813 264 931 q 119 457 119 696 q 190 126 119 235 q 379 17 261 17 z "},"Ā":{"ha":653,"x_min":39,"x_max":615,"o":"m 583 0 l 504 282 l 147 282 l 68 0 l 39 0 l 307 946 l 346 946 l 615 0 l 583 0 m 156 311 l 496 311 l 326 921 l 156 311 m 447 1126 l 206 1126 l 206 1154 l 447 1154 l 447 1126 z "},"Ą":{"ha":653,"x_min":39,"x_max":615,"o":"m 472 -171 q 492 -231 472 -210 q 550 -251 511 -251 q 614 -242 581 -251 l 611 -272 q 549 -282 578 -282 q 468 -251 496 -282 q 440 -171 440 -221 q 476 -72 440 -114 q 582 7 513 -31 l 504 282 l 147 282 l 68 0 l 39 0 l 307 946 l 346 946 l 615 0 q 508 -74 544 -36 q 472 -171 472 -112 m 156 311 l 496 311 l 326 921 l 156 311 z "},"Å":{"ha":653,"x_min":39,"x_max":615,"o":"m 583 0 l 504 282 l 147 282 l 68 0 l 39 0 l 307 946 l 346 946 l 615 0 l 583 0 m 156 311 l 496 311 l 326 921 l 156 311 m 326 1288 q 394 1259 369 1288 q 419 1179 419 1231 q 394 1098 419 1126 q 326 1069 369 1069 q 258 1098 283 1069 q 233 1178 233 1126 q 258 1259 233 1231 q 326 1288 283 1288 m 326 1264 q 261 1178 261 1264 q 326 1093 261 1093 q 392 1179 392 1093 q 326 1264 392 1264 z "},"Ǻ":{"ha":653,"x_min":39,"x_max":615,"o":"m 583 0 l 504 282 l 147 282 l 68 0 l 39 0 l 307 946 l 346 946 l 615 0 l 583 0 m 156 311 l 496 311 l 326 921 l 156 311 m 332 1232 q 400 1203 375 1232 q 425 1124 425 1175 q 400 1042 425 1071 q 332 1014 375 1014 q 264 1042 289 1014 q 239 1122 239 1071 q 264 1203 239 1175 q 332 1232 289 1232 m 332 1208 q 267 1122 267 1208 q 332 1038 267 1038 q 397 1124 397 1038 q 332 1208 397 1208 m 424 1390 l 439 1360 l 233 1260 l 224 1279 l 424 1390 z "},"Ⱥ":{"ha":653,"x_min":39,"x_max":615,"o":"m 583 0 l 504 282 l 308 282 l 228 -92 l 204 -87 l 283 282 l 147 282 l 68 0 l 39 0 l 307 946 l 346 946 l 392 785 l 443 1024 l 467 1018 l 406 735 l 615 0 l 583 0 m 156 311 l 290 311 l 379 729 l 326 921 l 156 311 m 314 311 l 496 311 l 394 679 l 314 311 z "},"Ã":{"ha":653,"x_min":39,"x_max":615,"o":"m 583 0 l 504 282 l 147 282 l 68 0 l 39 0 l 307 946 l 346 946 l 615 0 l 583 0 m 156 311 l 496 311 l 326 921 l 156 311 m 392 1117 q 355 1125 372 1117 q 317 1150 338 1133 q 300 1161 313 1153 q 277 1174 288 1169 q 258 1178 267 1178 q 224 1167 239 1178 q 192 1129 210 1156 l 172 1140 q 213 1188 193 1172 q 258 1204 233 1204 q 289 1197 275 1204 q 326 1174 303 1190 q 362 1151 347 1158 q 392 1143 376 1143 q 426 1156 411 1143 q 460 1200 442 1169 l 479 1190 q 439 1134 460 1151 q 392 1117 418 1117 z "},"Æ":{"ha":865,"x_min":13,"x_max":815,"o":"m 553 29 l 815 29 l 815 0 l 528 0 l 469 272 l 129 272 l 44 0 l 13 0 l 314 946 l 756 946 l 751 917 l 364 917 l 450 514 l 746 514 l 746 485 l 456 485 l 553 29 m 139 303 l 464 303 l 332 921 l 139 303 z "},"Ǽ":{"ha":865,"x_min":13,"x_max":815,"o":"m 553 29 l 815 29 l 815 0 l 528 0 l 469 272 l 129 272 l 44 0 l 13 0 l 314 946 l 756 946 l 751 917 l 364 917 l 450 514 l 746 514 l 746 485 l 456 485 l 553 29 m 139 303 l 464 303 l 332 921 l 139 303 m 603 1192 l 618 1161 l 413 1061 l 403 1081 l 603 1192 z "},"Ǣ":{"ha":865,"x_min":13,"x_max":815,"o":"m 553 29 l 815 29 l 815 0 l 528 0 l 469 272 l 129 272 l 44 0 l 13 0 l 314 946 l 756 946 l 751 917 l 364 917 l 450 514 l 746 514 l 746 485 l 456 485 l 553 29 m 139 303 l 464 303 l 332 921 l 139 303 m 632 1126 l 390 1126 l 390 1154 l 632 1154 l 632 1126 z "},"B":{"ha":669,"x_min":139,"x_max":601,"o":"m 390 501 q 544 433 488 493 q 601 256 601 372 q 529 65 601 129 q 326 0 457 0 l 139 0 l 139 946 l 288 946 q 492 885 421 946 q 563 713 563 825 q 518 571 563 625 q 390 501 474 517 m 169 917 l 169 514 l 331 514 q 477 569 425 514 q 529 711 529 624 q 469 864 529 811 q 293 917 410 917 l 169 917 m 328 29 q 506 85 443 29 q 569 256 569 140 q 509 428 569 369 q 336 486 449 486 l 169 486 l 169 29 l 328 29 z "},"Ḃ":{"ha":669,"x_min":139,"x_max":601,"o":"m 390 501 q 544 433 488 493 q 601 256 601 372 q 529 65 601 129 q 326 0 457 0 l 139 0 l 139 946 l 288 946 q 492 885 421 946 q 563 713 563 825 q 518 571 563 625 q 390 501 474 517 m 169 917 l 169 514 l 331 514 q 477 569 425 514 q 529 711 529 624 q 469 864 529 811 q 293 917 410 917 l 169 917 m 328 29 q 506 85 443 29 q 569 256 569 140 q 509 428 569 369 q 336 486 449 486 l 169 486 l 169 29 l 328 29 m 331 1181 q 349 1172 342 1181 q 357 1153 357 1164 q 349 1134 357 1142 q 331 1126 342 1126 q 310 1134 318 1126 q 303 1153 303 1142 q 310 1172 303 1164 q 331 1181 318 1181 z "},"Ḅ":{"ha":669,"x_min":139,"x_max":601,"o":"m 390 501 q 544 433 488 493 q 601 256 601 372 q 529 65 601 129 q 326 0 457 0 l 139 0 l 139 946 l 288 946 q 492 885 421 946 q 563 713 563 825 q 518 571 563 625 q 390 501 474 517 m 169 917 l 169 514 l 331 514 q 477 569 425 514 q 529 711 529 624 q 469 864 529 811 q 293 917 410 917 l 169 917 m 328 29 q 506 85 443 29 q 569 256 569 140 q 509 428 569 369 q 336 486 449 486 l 169 486 l 169 29 l 328 29 m 353 -192 q 334 -183 342 -192 q 326 -164 326 -175 q 334 -145 326 -153 q 353 -137 342 -137 q 373 -145 365 -137 q 381 -164 381 -153 q 373 -183 381 -175 q 353 -192 365 -192 z "},"Ꞵ":{"ha":669,"x_min":139,"x_max":601,"o":"m 390 501 q 544 435 488 493 q 601 265 601 376 q 533 68 601 136 q 347 0 464 0 q 169 40 251 0 l 169 -267 l 139 -267 l 139 946 l 288 946 q 492 885 421 946 q 563 713 563 825 q 518 571 563 625 q 390 501 474 517 m 347 29 q 510 88 450 29 q 569 265 569 147 q 509 430 569 374 q 336 486 449 486 l 267 486 l 271 514 l 331 514 q 477 569 425 514 q 529 711 529 624 q 469 864 529 811 q 293 917 410 917 l 169 917 l 169 69 q 347 29 251 29 z "},"Ɓ":{"ha":721,"x_min":25,"x_max":653,"o":"m 442 501 q 596 433 539 493 q 653 256 653 372 q 581 65 653 129 q 378 0 508 0 l 190 0 l 190 918 l 158 918 q 81 890 106 918 q 56 813 56 863 q 64 756 56 781 q 88 704 72 731 l 64 692 q 35 748 44 721 q 25 813 25 775 q 60 910 25 875 q 161 946 94 946 l 339 946 q 543 885 472 946 q 614 713 614 825 q 569 571 614 625 q 442 501 525 517 m 221 917 l 221 514 l 382 514 q 528 569 476 514 q 581 711 581 624 q 521 864 581 811 q 344 917 461 917 l 221 917 m 379 29 q 558 85 494 29 q 621 256 621 140 q 560 428 621 369 q 388 486 500 486 l 221 486 l 221 29 l 379 29 z "},"Ƀ":{"ha":667,"x_min":29,"x_max":597,"o":"m 386 501 q 540 433 483 493 q 597 256 597 372 q 525 65 597 129 q 322 0 453 0 l 135 0 l 135 254 l 29 254 l 29 283 l 135 283 l 135 946 l 283 946 q 488 885 417 946 q 558 713 558 825 q 514 571 558 625 q 386 501 469 517 m 165 917 l 165 514 l 326 514 q 473 569 421 514 q 525 711 525 624 q 465 864 525 811 q 289 917 406 917 l 165 917 m 324 29 q 502 85 439 29 q 565 256 565 140 q 505 428 565 369 q 332 486 444 486 l 165 486 l 165 283 l 382 283 l 382 254 l 165 254 l 165 29 l 324 29 z "},"Ƃ":{"ha":646,"x_min":139,"x_max":575,"o":"m 301 563 q 505 494 435 563 q 575 293 575 426 q 503 73 575 146 q 303 0 432 0 l 139 0 l 139 946 l 503 946 l 497 917 l 169 917 l 169 563 l 301 563 m 310 29 q 482 94 422 29 q 542 293 542 160 q 304 533 542 533 l 169 533 l 169 29 l 310 29 z "},"C":{"ha":615,"x_min":88,"x_max":586,"o":"m 392 960 q 494 940 451 960 q 578 879 538 919 l 560 858 q 483 913 519 896 q 394 931 446 931 q 195 819 271 931 q 119 472 119 707 q 194 131 119 246 q 390 17 268 17 q 488 37 449 17 q 567 94 526 57 l 586 74 q 390 -14 504 -14 q 233 40 301 -14 q 126 203 164 94 q 88 472 88 313 q 127 747 88 638 q 235 908 167 856 q 392 960 303 960 z "},"Ć":{"ha":615,"x_min":88,"x_max":586,"o":"m 392 960 q 494 940 451 960 q 578 879 538 919 l 560 858 q 483 913 519 896 q 394 931 446 931 q 195 819 271 931 q 119 472 119 707 q 194 131 119 246 q 390 17 268 17 q 488 37 449 17 q 567 94 526 57 l 586 74 q 390 -14 504 -14 q 233 40 301 -14 q 126 203 164 94 q 88 472 88 313 q 127 747 88 638 q 235 908 167 856 q 392 960 303 960 m 482 1192 l 497 1161 l 292 1061 l 282 1081 l 482 1192 z "},"Č":{"ha":615,"x_min":88,"x_max":586,"o":"m 392 960 q 494 940 451 960 q 578 879 538 919 l 560 858 q 483 913 519 896 q 394 931 446 931 q 195 819 271 931 q 119 472 119 707 q 194 131 119 246 q 390 17 268 17 q 488 37 449 17 q 567 94 526 57 l 586 74 q 390 -14 504 -14 q 233 40 301 -14 q 126 203 164 94 q 88 472 88 313 q 127 747 88 638 q 235 908 167 856 q 392 960 303 960 m 522 1199 l 535 1183 l 397 1056 l 381 1056 l 243 1183 l 257 1199 l 389 1088 l 522 1199 z "},"Ç":{"ha":615,"x_min":88,"x_max":586,"o":"m 586 74 q 394 -14 506 -12 l 392 -103 q 496 -196 496 -114 q 467 -269 496 -243 q 397 -294 439 -294 q 318 -269 353 -294 l 332 -247 q 397 -268 361 -268 q 447 -250 428 -268 q 467 -196 467 -232 q 442 -143 467 -160 q 364 -125 418 -126 l 369 -12 q 165 119 242 -4 q 88 472 88 243 q 127 747 88 638 q 235 908 167 856 q 392 960 303 960 q 494 940 451 960 q 578 879 538 919 l 560 858 q 483 913 519 896 q 394 931 446 931 q 195 819 271 931 q 119 472 119 707 q 194 131 119 246 q 390 17 268 17 q 488 37 449 17 q 567 94 526 57 l 586 74 z "},"Ĉ":{"ha":615,"x_min":88,"x_max":586,"o":"m 392 960 q 494 940 451 960 q 578 879 538 919 l 560 858 q 483 913 519 896 q 394 931 446 931 q 195 819 271 931 q 119 472 119 707 q 194 131 119 246 q 390 17 268 17 q 488 37 449 17 q 567 94 526 57 l 586 74 q 390 -14 504 -14 q 233 40 301 -14 q 126 203 164 94 q 88 472 88 313 q 127 747 88 638 q 235 908 167 856 q 392 960 303 960 m 258 1065 l 243 1081 l 381 1207 l 397 1207 l 536 1081 l 519 1065 l 389 1175 l 258 1065 z "},"Ċ":{"ha":615,"x_min":88,"x_max":586,"o":"m 392 960 q 494 940 451 960 q 578 879 538 919 l 560 858 q 483 913 519 896 q 394 931 446 931 q 195 819 271 931 q 119 472 119 707 q 194 131 119 246 q 390 17 268 17 q 488 37 449 17 q 567 94 526 57 l 586 74 q 390 -14 504 -14 q 233 40 301 -14 q 126 203 164 94 q 88 472 88 313 q 127 747 88 638 q 235 908 167 856 q 392 960 303 960 m 392 1181 q 410 1172 403 1181 q 418 1153 418 1164 q 410 1134 418 1142 q 392 1126 403 1126 q 372 1134 379 1126 q 364 1153 364 1142 q 372 1172 364 1164 q 392 1181 379 1181 z "},"Ꭓ":{"ha":547,"x_min":17,"x_max":531,"o":"m 290 447 l 531 -137 l 494 -137 l 271 428 l 51 -137 l 17 -137 l 251 446 l 44 946 l 81 946 l 272 465 l 461 946 l 496 946 l 290 447 z "},"Ƈ":{"ha":615,"x_min":88,"x_max":765,"o":"m 663 1131 q 765 1089 718 1131 l 749 1068 q 708 1094 728 1085 q 663 1103 689 1103 q 601 1076 624 1103 q 578 989 578 1049 l 578 879 l 557 861 q 482 914 518 897 q 394 931 446 931 q 195 819 271 931 q 119 472 119 707 q 194 131 119 246 q 390 17 268 17 q 488 37 449 17 q 567 94 526 57 l 586 74 q 390 -14 504 -14 q 233 40 301 -14 q 126 203 164 94 q 88 472 88 313 q 127 747 88 638 q 235 908 167 856 q 392 960 303 960 q 478 945 442 960 q 547 903 515 931 l 547 990 q 578 1094 547 1058 q 663 1131 610 1131 z "},"Ȼ":{"ha":615,"x_min":88,"x_max":586,"o":"m 586 74 q 390 -14 504 -14 q 276 13 328 -14 l 254 -92 l 231 -87 l 254 25 q 131 188 175 75 q 88 472 88 300 q 127 747 88 638 q 235 908 167 856 q 392 960 303 960 q 454 953 422 960 l 469 1024 l 493 1018 l 478 946 q 578 879 529 928 l 560 858 q 471 918 511 903 l 283 43 q 390 17 331 17 q 488 37 449 17 q 567 94 526 57 l 586 74 m 119 472 q 157 210 119 314 q 261 57 194 106 l 449 925 q 394 931 426 931 q 195 819 271 931 q 119 472 119 707 z "},"D":{"ha":708,"x_min":139,"x_max":621,"o":"m 279 946 q 526 846 431 946 q 621 483 621 746 q 524 108 621 215 q 285 0 426 0 l 139 0 l 139 946 l 279 946 m 169 917 l 169 29 l 286 29 q 502 130 417 29 q 588 483 588 231 q 501 826 588 736 q 279 917 415 917 l 169 917 z "},"Ǳ":{"ha":1254,"x_min":139,"x_max":1197,"o":"m 279 946 q 526 846 431 946 q 621 483 621 746 q 524 108 621 215 q 285 0 426 0 l 139 0 l 139 946 l 279 946 m 169 917 l 169 29 l 286 29 q 502 130 417 29 q 588 483 588 231 q 501 826 588 736 q 279 917 415 917 l 169 917 m 1197 946 l 1197 919 l 753 31 l 1185 31 l 1181 0 l 719 0 l 719 29 l 1165 917 l 763 917 l 763 946 l 1197 946 z "},"Ǆ":{"ha":1254,"x_min":139,"x_max":1197,"o":"m 279 946 q 526 846 431 946 q 621 483 621 746 q 524 108 621 215 q 285 0 426 0 l 139 0 l 139 946 l 279 946 m 169 917 l 169 29 l 286 29 q 502 130 417 29 q 588 483 588 231 q 501 826 588 736 q 279 917 415 917 l 169 917 m 1197 946 l 1197 919 l 753 31 l 1185 31 l 1181 0 l 719 0 l 719 29 l 1165 917 l 763 917 l 763 946 l 1197 946 m 1097 1199 l 1110 1183 l 972 1056 l 956 1056 l 818 1183 l 832 1199 l 964 1088 l 1097 1199 z "},"Ɖ":{"ha":707,"x_min":29,"x_max":619,"o":"m 278 946 q 524 846 429 946 q 619 483 619 746 q 522 108 619 215 q 283 0 425 0 l 138 0 l 138 474 l 29 474 l 29 504 l 138 504 l 138 946 l 278 946 m 285 29 q 501 130 415 29 q 586 483 586 231 q 500 826 586 736 q 278 917 414 917 l 168 917 l 168 504 l 383 504 l 383 474 l 168 474 l 168 29 l 285 29 z "},"Ð":{"ha":707,"x_min":29,"x_max":619,"o":"m 278 946 q 524 846 429 946 q 619 483 619 746 q 522 108 619 215 q 283 0 425 0 l 138 0 l 138 474 l 29 474 l 29 504 l 138 504 l 138 946 l 278 946 m 285 29 q 501 130 415 29 q 586 483 586 231 q 500 826 586 736 q 278 917 414 917 l 168 917 l 168 504 l 383 504 l 383 474 l 168 474 l 168 29 l 285 29 z "},"Ď":{"ha":708,"x_min":139,"x_max":621,"o":"m 279 946 q 526 846 431 946 q 621 483 621 746 q 524 108 621 215 q 285 0 426 0 l 139 0 l 139 946 l 279 946 m 169 917 l 169 29 l 286 29 q 502 130 417 29 q 588 483 588 231 q 501 826 588 736 q 279 917 415 917 l 169 917 m 468 1199 l 481 1183 l 343 1056 l 326 1056 l 189 1183 l 203 1199 l 335 1088 l 468 1199 z "},"Ḓ":{"ha":708,"x_min":139,"x_max":621,"o":"m 279 946 q 526 846 431 946 q 621 483 621 746 q 524 108 621 215 q 285 0 426 0 l 139 0 l 139 946 l 279 946 m 169 917 l 169 29 l 286 29 q 502 130 417 29 q 588 483 588 231 q 501 826 588 736 q 279 917 415 917 l 169 917 m 214 -253 l 199 -239 l 336 -104 l 354 -104 l 490 -239 l 475 -253 l 344 -136 l 214 -253 z "},"Đ":{"ha":707,"x_min":29,"x_max":619,"o":"m 278 946 q 524 846 429 946 q 619 483 619 746 q 522 108 619 215 q 283 0 425 0 l 138 0 l 138 474 l 29 474 l 29 504 l 138 504 l 138 946 l 278 946 m 285 29 q 501 130 415 29 q 586 483 586 231 q 500 826 586 736 q 278 917 414 917 l 168 917 l 168 504 l 383 504 l 383 474 l 168 474 l 168 29 l 285 29 z "},"Ḋ":{"ha":708,"x_min":139,"x_max":621,"o":"m 279 946 q 526 846 431 946 q 621 483 621 746 q 524 108 621 215 q 285 0 426 0 l 139 0 l 139 946 l 279 946 m 169 917 l 169 29 l 286 29 q 502 130 417 29 q 588 483 588 231 q 501 826 588 736 q 279 917 415 917 l 169 917 m 338 1181 q 356 1172 349 1181 q 364 1153 364 1164 q 356 1134 364 1142 q 338 1126 349 1126 q 317 1134 325 1126 q 310 1153 310 1142 q 317 1172 310 1164 q 338 1181 325 1181 z "},"Ḍ":{"ha":708,"x_min":139,"x_max":621,"o":"m 279 946 q 526 846 431 946 q 621 483 621 746 q 524 108 621 215 q 285 0 426 0 l 139 0 l 139 946 l 279 946 m 169 917 l 169 29 l 286 29 q 502 130 417 29 q 588 483 588 231 q 501 826 588 736 q 279 917 415 917 l 169 917 m 343 -192 q 324 -183 332 -192 q 317 -164 317 -175 q 324 -145 317 -153 q 343 -137 332 -137 q 363 -145 356 -137 q 371 -164 371 -153 q 363 -183 371 -175 q 343 -192 356 -192 z "},"Ɗ":{"ha":760,"x_min":25,"x_max":672,"o":"m 331 946 q 577 846 482 946 q 672 483 672 746 q 575 108 672 215 q 336 0 478 0 l 190 0 l 190 918 l 158 918 q 81 890 106 918 q 56 813 56 863 q 64 756 56 781 q 88 704 72 731 l 64 692 q 35 748 44 721 q 25 813 25 775 q 60 910 25 875 q 161 946 94 946 l 331 946 m 338 29 q 553 130 468 29 q 639 483 639 231 q 553 826 639 736 q 331 917 467 917 l 221 917 l 221 29 l 338 29 z "},"Ḏ":{"ha":708,"x_min":139,"x_max":621,"o":"m 279 946 q 526 846 431 946 q 621 483 621 746 q 524 108 621 215 q 285 0 426 0 l 139 0 l 139 946 l 279 946 m 169 917 l 169 29 l 286 29 q 502 130 417 29 q 588 483 588 231 q 501 826 588 736 q 279 917 415 917 l 169 917 m 467 -193 l 225 -193 l 225 -165 l 467 -165 l 467 -193 z "},"Ƌ":{"ha":646,"x_min":69,"x_max":507,"o":"m 507 0 l 346 0 q 142 69 214 0 q 69 278 69 138 q 144 490 69 417 q 363 563 218 563 l 475 563 l 475 917 l 144 917 l 144 946 l 507 946 l 507 0 m 475 29 l 475 533 l 361 533 q 103 278 103 533 q 164 90 103 150 q 347 29 225 29 l 475 29 z "},"ǲ":{"ha":1164,"x_min":139,"x_max":1122,"o":"m 279 946 q 526 846 431 946 q 621 483 621 746 q 524 108 621 215 q 285 0 426 0 l 139 0 l 139 946 l 279 946 m 169 917 l 169 29 l 286 29 q 502 130 417 29 q 588 483 588 231 q 501 826 588 736 q 279 917 415 917 l 169 917 m 1122 721 l 1122 696 l 764 29 l 1115 29 l 1113 0 l 729 0 l 729 25 l 1089 693 l 760 693 l 760 721 l 1122 721 z "},"ǅ":{"ha":1164,"x_min":139,"x_max":1122,"o":"m 279 946 q 526 846 431 946 q 621 483 621 746 q 524 108 621 215 q 285 0 426 0 l 139 0 l 139 946 l 279 946 m 169 917 l 169 29 l 286 29 q 502 130 417 29 q 588 483 588 231 q 501 826 588 736 q 279 917 415 917 l 169 917 m 1122 721 l 1122 696 l 764 29 l 1115 29 l 1113 0 l 729 0 l 729 25 l 1089 693 l 760 693 l 760 721 l 1122 721 m 1069 1039 l 1085 1025 l 947 890 l 931 890 l 793 1025 l 808 1039 l 939 922 l 1069 1039 z "},"E":{"ha":565,"x_min":139,"x_max":515,"o":"m 507 946 l 503 917 l 169 917 l 169 514 l 458 514 l 458 485 l 169 485 l 169 29 l 515 29 l 515 0 l 139 0 l 139 946 l 507 946 z "},"É":{"ha":565,"x_min":139,"x_max":515,"o":"m 507 946 l 503 917 l 169 917 l 169 514 l 458 514 l 458 485 l 169 485 l 169 29 l 515 29 l 515 0 l 139 0 l 139 946 l 507 946 m 419 1192 l 435 1161 l 229 1061 l 219 1081 l 419 1192 z "},"Ĕ":{"ha":565,"x_min":139,"x_max":515,"o":"m 507 946 l 503 917 l 169 917 l 169 514 l 458 514 l 458 485 l 169 485 l 169 29 l 515 29 l 515 0 l 139 0 l 139 946 l 507 946 m 328 1071 q 244 1101 278 1071 q 201 1176 210 1131 l 224 1182 q 262 1122 235 1144 q 328 1100 289 1100 q 394 1122 367 1100 q 433 1182 421 1144 l 454 1176 q 413 1101 447 1131 q 328 1071 378 1071 z "},"Ě":{"ha":565,"x_min":139,"x_max":515,"o":"m 507 946 l 503 917 l 169 917 l 169 514 l 458 514 l 458 485 l 169 485 l 169 29 l 515 29 l 515 0 l 139 0 l 139 946 l 507 946 m 460 1199 l 472 1183 l 335 1056 l 318 1056 l 181 1183 l 194 1199 l 326 1088 l 460 1199 z "},"Ȩ":{"ha":565,"x_min":139,"x_max":515,"o":"m 329 0 l 326 -103 q 431 -196 431 -114 q 402 -269 431 -243 q 332 -294 374 -294 q 253 -269 288 -294 l 267 -247 q 332 -268 296 -268 q 382 -250 363 -268 q 401 -196 401 -232 q 377 -143 401 -160 q 299 -125 353 -126 l 304 0 l 139 0 l 139 946 l 507 946 l 503 917 l 169 917 l 169 514 l 458 514 l 458 485 l 169 485 l 169 29 l 515 29 l 515 0 l 329 0 z "},"Ê":{"ha":565,"x_min":139,"x_max":515,"o":"m 507 946 l 503 917 l 169 917 l 169 514 l 458 514 l 458 485 l 169 485 l 169 29 l 515 29 l 515 0 l 139 0 l 139 946 l 507 946 m 196 1065 l 181 1081 l 318 1207 l 335 1207 l 474 1081 l 457 1065 l 326 1175 l 196 1065 z "},"Ế":{"ha":565,"x_min":139,"x_max":567,"o":"m 507 946 l 503 917 l 169 917 l 169 514 l 458 514 l 458 485 l 169 485 l 169 29 l 515 29 l 515 0 l 139 0 l 139 946 l 507 946 m 201 1025 l 186 1040 l 324 1167 l 340 1167 l 479 1040 l 463 1025 l 332 1135 l 201 1025 m 540 1324 l 567 1304 l 444 1144 l 426 1157 l 540 1324 z "},"Ệ":{"ha":565,"x_min":139,"x_max":515,"o":"m 507 946 l 503 917 l 169 917 l 169 514 l 458 514 l 458 485 l 169 485 l 169 29 l 515 29 l 515 0 l 139 0 l 139 946 l 507 946 m 196 1065 l 181 1081 l 318 1207 l 335 1207 l 474 1081 l 457 1065 l 326 1175 l 196 1065 m 322 -192 q 303 -183 311 -192 q 296 -164 296 -175 q 303 -145 296 -153 q 322 -137 311 -137 q 342 -145 335 -137 q 350 -164 350 -153 q 342 -183 350 -175 q 322 -192 335 -192 z "},"Ề":{"ha":565,"x_min":96,"x_max":515,"o":"m 507 946 l 503 917 l 169 917 l 169 514 l 458 514 l 458 485 l 169 485 l 169 29 l 515 29 l 515 0 l 139 0 l 139 946 l 507 946 m 196 1025 l 181 1040 l 318 1167 l 335 1167 l 474 1040 l 457 1025 l 326 1135 l 196 1025 m 122 1324 l 236 1157 l 218 1144 l 96 1304 l 122 1324 z "},"Ể":{"ha":565,"x_min":139,"x_max":542,"o":"m 507 946 l 503 917 l 169 917 l 169 514 l 458 514 l 458 485 l 169 485 l 169 29 l 515 29 l 515 0 l 139 0 l 139 946 l 507 946 m 196 1025 l 181 1040 l 318 1167 l 335 1167 l 474 1040 l 457 1025 l 326 1135 l 196 1025 m 435 1196 q 511 1268 511 1199 q 495 1315 511 1299 q 451 1332 479 1332 q 389 1313 419 1332 l 376 1335 q 456 1360 413 1360 q 518 1335 494 1360 q 542 1268 542 1310 q 463 1176 542 1186 l 463 1117 l 435 1117 l 435 1196 z "},"Ễ":{"ha":565,"x_min":139,"x_max":515,"o":"m 507 946 l 503 917 l 169 917 l 169 514 l 458 514 l 458 485 l 169 485 l 169 29 l 515 29 l 515 0 l 139 0 l 139 946 l 507 946 m 194 1025 l 179 1040 l 317 1167 l 333 1167 l 472 1040 l 456 1025 l 325 1135 l 194 1025 m 392 1231 q 355 1239 372 1231 q 317 1264 338 1247 q 300 1275 313 1267 q 277 1288 288 1283 q 258 1292 267 1292 q 224 1281 239 1292 q 192 1243 210 1269 l 172 1254 q 213 1302 193 1286 q 258 1318 233 1318 q 289 1311 275 1318 q 326 1288 303 1304 q 362 1265 347 1272 q 392 1257 376 1257 q 426 1270 411 1257 q 460 1314 442 1283 l 479 1304 q 439 1248 460 1265 q 392 1231 418 1231 z "},"Ȅ":{"ha":565,"x_min":139,"x_max":515,"o":"m 507 946 l 503 917 l 169 917 l 169 514 l 458 514 l 458 485 l 169 485 l 169 29 l 515 29 l 515 0 l 139 0 l 139 946 l 507 946 m 193 1274 l 275 1090 l 254 1081 l 164 1260 l 193 1274 m 321 1272 l 396 1096 l 375 1086 l 292 1258 l 321 1272 z "},"Ë":{"ha":565,"x_min":139,"x_max":515,"o":"m 507 946 l 503 917 l 169 917 l 169 514 l 458 514 l 458 485 l 169 485 l 169 29 l 515 29 l 515 0 l 139 0 l 139 946 l 507 946 m 239 1164 q 258 1156 251 1164 q 265 1136 265 1149 q 258 1117 265 1125 q 239 1110 251 1110 q 220 1117 228 1110 q 213 1136 213 1125 q 220 1156 213 1147 q 239 1164 228 1164 m 432 1164 q 451 1156 443 1164 q 458 1136 458 1147 q 451 1117 458 1125 q 432 1110 443 1110 q 412 1117 419 1110 q 404 1136 404 1125 q 412 1156 404 1147 q 432 1164 419 1164 z "},"Ė":{"ha":565,"x_min":139,"x_max":515,"o":"m 507 946 l 503 917 l 169 917 l 169 514 l 458 514 l 458 485 l 169 485 l 169 29 l 515 29 l 515 0 l 139 0 l 139 946 l 507 946 m 329 1181 q 348 1172 340 1181 q 356 1153 356 1164 q 348 1134 356 1142 q 329 1126 340 1126 q 309 1134 317 1126 q 301 1153 301 1142 q 309 1172 301 1164 q 329 1181 317 1181 z "},"Ẹ":{"ha":565,"x_min":139,"x_max":515,"o":"m 507 946 l 503 917 l 169 917 l 169 514 l 458 514 l 458 485 l 169 485 l 169 29 l 515 29 l 515 0 l 139 0 l 139 946 l 507 946 m 322 -192 q 303 -183 311 -192 q 296 -164 296 -175 q 303 -145 296 -153 q 322 -137 311 -137 q 342 -145 335 -137 q 350 -164 350 -153 q 342 -183 350 -175 q 322 -192 335 -192 z "},"È":{"ha":565,"x_min":139,"x_max":515,"o":"m 507 946 l 503 917 l 169 917 l 169 514 l 458 514 l 458 485 l 169 485 l 169 29 l 515 29 l 515 0 l 139 0 l 139 946 l 507 946 m 238 1190 l 436 1079 l 425 1060 l 221 1161 l 238 1190 z "},"Ẻ":{"ha":565,"x_min":139,"x_max":515,"o":"m 507 946 l 503 917 l 169 917 l 169 514 l 458 514 l 458 485 l 169 485 l 169 29 l 515 29 l 515 0 l 139 0 l 139 946 l 507 946 m 314 1165 q 390 1238 390 1168 q 374 1285 390 1268 q 331 1301 358 1301 q 268 1282 299 1301 l 256 1304 q 335 1329 292 1329 q 397 1304 374 1329 q 421 1238 421 1279 q 342 1146 421 1156 l 342 1086 l 314 1086 l 314 1165 z "},"Ȇ":{"ha":565,"x_min":139,"x_max":515,"o":"m 507 946 l 503 917 l 169 917 l 169 514 l 458 514 l 458 485 l 169 485 l 169 29 l 515 29 l 515 0 l 139 0 l 139 946 l 507 946 m 328 1232 q 413 1200 379 1232 q 454 1113 447 1168 l 432 1107 q 328 1203 413 1203 q 224 1107 246 1203 l 201 1113 q 243 1200 210 1168 q 328 1232 276 1232 z "},"Ē":{"ha":565,"x_min":139,"x_max":515,"o":"m 507 946 l 503 917 l 169 917 l 169 514 l 458 514 l 458 485 l 169 485 l 169 29 l 515 29 l 515 0 l 139 0 l 139 946 l 507 946 m 449 1126 l 207 1126 l 207 1154 l 449 1154 l 449 1126 z "},"Ę":{"ha":565,"x_min":139,"x_max":515,"o":"m 515 29 l 515 0 l 485 0 q 378 -74 414 -36 q 342 -171 342 -112 q 361 -231 342 -210 q 419 -251 381 -251 q 483 -242 450 -251 l 481 -272 q 418 -282 447 -282 q 338 -251 365 -282 q 310 -171 310 -221 q 342 -76 310 -117 q 439 0 375 -36 l 139 0 l 139 946 l 507 946 l 503 917 l 169 917 l 169 514 l 458 514 l 458 485 l 169 485 l 169 29 l 515 29 z "},"Ɛ":{"ha":588,"x_min":68,"x_max":551,"o":"m 306 960 q 425 931 372 960 q 526 844 478 903 l 507 825 q 415 904 463 878 q 307 931 367 931 q 174 876 224 931 q 125 733 125 822 q 178 581 125 635 q 317 528 231 528 l 381 528 l 376 499 l 313 500 q 157 440 213 501 q 101 269 101 379 q 160 82 101 147 q 317 17 219 17 q 432 45 382 17 q 528 132 482 74 l 551 115 q 442 18 500 50 q 317 -14 385 -14 q 137 61 206 -14 q 68 271 68 136 q 120 444 68 381 q 250 515 172 507 q 136 583 179 529 q 93 732 93 638 q 151 897 93 835 q 306 960 208 960 z "},"Ǝ":{"ha":565,"x_min":50,"x_max":428,"o":"m 58 946 l 428 946 l 428 0 l 50 0 l 50 29 l 396 29 l 396 485 l 108 485 l 108 514 l 396 514 l 396 917 l 58 917 l 58 946 z "},"Ʃ":{"ha":554,"x_min":60,"x_max":494,"o":"m 494 946 l 494 917 l 101 917 l 363 478 l 363 464 l 101 29 l 494 29 l 494 0 l 60 0 l 60 17 l 331 471 l 60 929 l 60 946 l 494 946 z "},"Ɇ":{"ha":565,"x_min":139,"x_max":515,"o":"m 515 29 l 515 0 l 239 0 l 219 -92 l 197 -87 l 217 0 l 139 0 l 139 946 l 419 946 l 436 1024 l 457 1019 l 442 946 l 507 946 l 503 917 l 435 917 l 349 514 l 458 514 l 458 485 l 343 485 l 246 29 l 515 29 m 169 917 l 169 514 l 326 514 l 413 917 l 169 917 m 169 29 l 222 29 l 321 485 l 169 485 l 169 29 z "},"Ẽ":{"ha":565,"x_min":139,"x_max":515,"o":"m 507 946 l 503 917 l 169 917 l 169 514 l 458 514 l 458 485 l 169 485 l 169 29 l 515 29 l 515 0 l 139 0 l 139 946 l 507 946 m 393 1117 q 356 1125 374 1117 q 318 1150 339 1133 q 301 1161 314 1153 q 278 1174 289 1169 q 260 1178 268 1178 q 226 1167 240 1178 q 193 1129 211 1156 l 174 1140 q 215 1188 194 1172 q 260 1204 235 1204 q 290 1197 276 1204 q 328 1174 304 1190 q 363 1151 349 1158 q 393 1143 378 1143 q 428 1156 413 1143 q 461 1200 443 1169 l 481 1190 q 440 1134 461 1151 q 393 1117 419 1117 z "},"Ʒ":{"ha":542,"x_min":25,"x_max":485,"o":"m 229 517 q 485 253 485 517 q 422 60 485 133 q 250 -14 360 -14 q 122 15 176 -14 q 25 100 68 43 l 46 117 q 137 40 90 63 q 249 17 183 17 q 399 81 347 17 q 451 251 451 144 q 396 433 451 376 q 229 489 340 489 l 146 489 l 146 517 l 418 918 l 42 918 l 42 946 l 456 946 l 456 919 l 181 517 l 229 517 z "},"Ǯ":{"ha":542,"x_min":25,"x_max":485,"o":"m 229 517 q 485 253 485 517 q 422 60 485 133 q 250 -14 360 -14 q 122 15 176 -14 q 25 100 68 43 l 46 117 q 137 40 90 63 q 249 17 183 17 q 399 81 347 17 q 451 251 451 144 q 396 433 451 376 q 229 489 340 489 l 146 489 l 146 517 l 418 918 l 42 918 l 42 946 l 456 946 l 456 919 l 181 517 l 229 517 m 381 1199 l 393 1183 l 256 1056 l 239 1056 l 101 1183 l 115 1199 l 247 1088 l 381 1199 z "},"Ƹ":{"ha":542,"x_min":57,"x_max":517,"o":"m 517 100 q 417 15 471 43 q 289 -14 363 -14 q 119 57 182 -14 q 57 246 57 128 q 311 517 57 517 l 361 517 l 86 919 l 86 946 l 499 946 l 499 918 l 122 918 l 394 517 l 394 489 l 313 489 q 146 430 203 489 q 89 246 89 371 q 141 78 89 139 q 290 17 193 17 q 401 40 356 17 q 493 117 447 63 l 517 100 z "},"F":{"ha":539,"x_min":139,"x_max":501,"o":"m 139 0 l 139 946 l 501 946 l 497 917 l 169 917 l 169 494 l 453 494 l 453 465 l 169 465 l 169 0 l 139 0 z "},"Ḟ":{"ha":539,"x_min":139,"x_max":501,"o":"m 139 0 l 139 946 l 501 946 l 497 917 l 169 917 l 169 494 l 453 494 l 453 465 l 169 465 l 169 0 l 139 0 m 332 1181 q 351 1172 343 1181 q 358 1153 358 1164 q 351 1134 358 1142 q 332 1126 343 1126 q 312 1134 319 1126 q 304 1153 304 1142 q 312 1172 304 1164 q 332 1181 319 1181 z "},"Ƒ":{"ha":539,"x_min":-49,"x_max":501,"o":"m 169 917 l 169 494 l 453 494 l 453 465 l 169 465 l 169 -142 q 138 -240 169 -207 q 57 -274 107 -274 q -49 -232 -1 -274 l -32 -210 q 56 -244 6 -244 q 138 -142 138 -244 l 138 1 l 139 1 l 139 946 l 501 946 l 497 917 l 169 917 z "},"G":{"ha":692,"x_min":88,"x_max":610,"o":"m 397 960 q 501 940 456 960 q 592 878 546 921 l 572 857 q 490 913 531 896 q 397 931 449 931 q 261 887 324 931 q 159 742 199 843 q 119 479 119 640 q 194 128 119 240 q 400 17 268 17 q 497 31 454 17 q 579 74 540 46 l 579 463 l 415 463 l 411 492 l 610 492 l 610 57 q 403 -14 511 -14 q 171 107 254 -14 q 88 479 88 228 q 131 753 88 646 q 245 910 175 861 q 397 960 315 960 z "},"Ǵ":{"ha":692,"x_min":88,"x_max":610,"o":"m 397 960 q 501 940 456 960 q 592 878 546 921 l 572 857 q 490 913 531 896 q 397 931 449 931 q 261 887 324 931 q 159 742 199 843 q 119 479 119 640 q 194 128 119 240 q 400 17 268 17 q 497 31 454 17 q 579 74 540 46 l 579 463 l 415 463 l 411 492 l 610 492 l 610 57 q 403 -14 511 -14 q 171 107 254 -14 q 88 479 88 228 q 131 753 88 646 q 245 910 175 861 q 397 960 315 960 m 486 1192 l 501 1161 l 296 1061 l 286 1081 l 486 1192 z "},"Ɣ":{"ha":626,"x_min":39,"x_max":588,"o":"m 333 75 q 385 -78 371 -31 q 399 -174 399 -126 q 377 -247 399 -219 q 315 -274 356 -274 q 252 -247 275 -274 q 229 -174 229 -221 q 241 -90 229 -133 q 282 33 253 -46 q 296 75 290 61 l 39 946 l 71 946 l 315 99 l 557 946 l 588 946 l 333 75 m 368 -172 q 357 -87 368 -131 q 315 51 346 -44 l 307 25 q 270 -91 281 -50 q 260 -172 260 -132 q 315 -246 260 -246 q 368 -172 368 -246 z "},"Ğ":{"ha":692,"x_min":88,"x_max":610,"o":"m 397 960 q 501 940 456 960 q 592 878 546 921 l 572 857 q 490 913 531 896 q 397 931 449 931 q 261 887 324 931 q 159 742 199 843 q 119 479 119 640 q 194 128 119 240 q 400 17 268 17 q 497 31 454 17 q 579 74 540 46 l 579 463 l 415 463 l 411 492 l 610 492 l 610 57 q 403 -14 511 -14 q 171 107 254 -14 q 88 479 88 228 q 131 753 88 646 q 245 910 175 861 q 397 960 315 960 m 394 1071 q 310 1101 344 1071 q 268 1176 276 1131 l 290 1182 q 328 1122 301 1144 q 394 1100 356 1100 q 460 1122 433 1100 q 500 1182 488 1144 l 521 1176 q 479 1101 514 1131 q 394 1071 444 1071 z "},"Ǧ":{"ha":692,"x_min":88,"x_max":610,"o":"m 397 960 q 501 940 456 960 q 592 878 546 921 l 572 857 q 490 913 531 896 q 397 931 449 931 q 261 887 324 931 q 159 742 199 843 q 119 479 119 640 q 194 128 119 240 q 400 17 268 17 q 497 31 454 17 q 579 74 540 46 l 579 463 l 415 463 l 411 492 l 610 492 l 610 57 q 403 -14 511 -14 q 171 107 254 -14 q 88 479 88 228 q 131 753 88 646 q 245 910 175 861 q 397 960 315 960 m 526 1199 l 539 1183 l 401 1056 l 385 1056 l 247 1183 l 261 1199 l 393 1088 l 526 1199 z "},"Ĝ":{"ha":692,"x_min":88,"x_max":610,"o":"m 397 960 q 501 940 456 960 q 592 878 546 921 l 572 857 q 490 913 531 896 q 397 931 449 931 q 261 887 324 931 q 159 742 199 843 q 119 479 119 640 q 194 128 119 240 q 400 17 268 17 q 497 31 454 17 q 579 74 540 46 l 579 463 l 415 463 l 411 492 l 610 492 l 610 57 q 403 -14 511 -14 q 171 107 254 -14 q 88 479 88 228 q 131 753 88 646 q 245 910 175 861 q 397 960 315 960 m 263 1065 l 247 1081 l 385 1207 l 401 1207 l 540 1081 l 524 1065 l 393 1175 l 263 1065 z "},"Ģ":{"ha":692,"x_min":88,"x_max":610,"o":"m 397 960 q 501 940 456 960 q 592 878 546 921 l 572 857 q 490 913 531 896 q 397 931 449 931 q 261 887 324 931 q 159 742 199 843 q 119 479 119 640 q 194 128 119 240 q 400 17 268 17 q 497 31 454 17 q 579 74 540 46 l 579 463 l 415 463 l 411 492 l 610 492 l 610 57 q 403 -14 511 -14 q 171 107 254 -14 q 88 479 88 228 q 131 753 88 646 q 245 910 175 861 q 397 960 315 960 m 382 -133 q 406 -142 397 -133 q 414 -165 414 -150 q 407 -199 414 -179 q 397 -228 400 -219 l 357 -358 l 336 -358 l 372 -197 q 350 -165 350 -187 q 358 -142 350 -151 q 382 -133 367 -133 z "},"Ġ":{"ha":692,"x_min":88,"x_max":610,"o":"m 397 960 q 501 940 456 960 q 592 878 546 921 l 572 857 q 490 913 531 896 q 397 931 449 931 q 261 887 324 931 q 159 742 199 843 q 119 479 119 640 q 194 128 119 240 q 400 17 268 17 q 497 31 454 17 q 579 74 540 46 l 579 463 l 415 463 l 411 492 l 610 492 l 610 57 q 403 -14 511 -14 q 171 107 254 -14 q 88 479 88 228 q 131 753 88 646 q 245 910 175 861 q 397 960 315 960 m 396 1181 q 415 1172 407 1181 q 422 1153 422 1164 q 415 1134 422 1142 q 396 1126 407 1126 q 376 1134 383 1126 q 368 1153 368 1142 q 376 1172 368 1164 q 396 1181 383 1181 z "},"Ɠ":{"ha":629,"x_min":88,"x_max":779,"o":"m 676 1131 q 779 1089 732 1131 l 763 1068 q 722 1094 742 1085 q 676 1103 703 1103 q 615 1076 638 1103 q 592 989 592 1049 l 592 878 l 574 858 q 489 913 529 896 q 399 931 449 931 q 262 885 325 931 q 159 739 199 840 q 119 479 119 638 q 194 131 119 244 q 401 17 269 17 q 498 31 456 17 q 579 74 540 46 l 579 463 l 415 463 l 411 492 l 610 492 l 610 57 q 404 -14 511 -14 q 172 109 256 -14 q 88 479 88 232 q 131 751 88 643 q 246 909 175 858 q 399 960 317 960 q 486 945 447 960 q 561 901 525 931 l 561 990 q 592 1094 561 1058 q 676 1131 624 1131 z "},"Ɂ":{"ha":508,"x_min":18,"x_max":467,"o":"m 181 401 l 261 426 q 389 510 344 453 q 433 685 433 568 q 383 863 433 794 q 240 931 332 931 q 133 903 181 931 q 39 825 86 876 l 18 844 q 121 931 68 903 q 242 960 174 960 q 406 883 346 960 q 467 685 467 806 q 415 491 467 553 q 268 400 363 429 l 213 382 l 213 0 l 181 0 l 181 401 z "},"Ǥ":{"ha":708,"x_min":88,"x_max":696,"o":"m 696 294 l 610 294 l 610 57 q 403 -14 511 -14 q 171 107 254 -14 q 88 479 88 228 q 131 753 88 646 q 245 910 175 861 q 397 960 315 960 q 501 940 456 960 q 592 878 546 921 l 572 857 q 490 913 531 896 q 397 931 449 931 q 261 887 324 931 q 159 742 199 843 q 119 479 119 640 q 194 128 119 240 q 400 17 268 17 q 497 31 454 17 q 579 74 540 46 l 579 294 l 415 294 l 415 324 l 579 324 l 579 463 l 415 463 l 411 492 l 610 492 l 610 324 l 696 324 l 696 294 z "},"Ȝ":{"ha":563,"x_min":36,"x_max":494,"o":"m 260 960 q 414 894 357 960 q 471 722 471 829 q 426 572 471 626 q 307 501 382 517 q 443 438 392 493 q 494 283 494 383 q 455 116 494 188 q 324 -12 415 44 q 76 -111 232 -68 l 74 -81 q 303 11 218 -40 q 424 128 388 63 q 461 283 461 194 q 406 434 461 381 q 246 486 350 488 l 182 485 l 188 514 l 243 514 q 385 568 332 514 q 438 724 438 622 q 390 874 438 818 q 258 931 343 931 q 151 904 199 931 q 56 825 104 878 l 36 844 q 140 931 88 903 q 260 960 193 960 z "},"H":{"ha":753,"x_min":139,"x_max":615,"o":"m 583 0 l 583 485 l 169 485 l 169 0 l 139 0 l 139 946 l 169 946 l 169 514 l 583 514 l 583 946 l 615 946 l 615 0 l 583 0 z "},"Ħ":{"ha":758,"x_min":72,"x_max":686,"o":"m 686 747 l 686 722 l 618 722 l 618 0 l 586 0 l 586 485 l 172 485 l 172 0 l 142 0 l 142 722 l 72 722 l 72 747 l 142 747 l 142 946 l 172 946 l 172 747 l 586 747 l 586 946 l 618 946 l 618 747 l 686 747 m 586 514 l 586 722 l 172 722 l 172 514 l 586 514 z "},"Ȟ":{"ha":753,"x_min":139,"x_max":615,"o":"m 583 0 l 583 485 l 169 485 l 169 0 l 139 0 l 139 946 l 169 946 l 169 514 l 583 514 l 583 946 l 615 946 l 615 0 l 583 0 m 507 1199 l 519 1183 l 382 1056 l 365 1056 l 228 1183 l 242 1199 l 374 1088 l 507 1199 z "},"Ĥ":{"ha":753,"x_min":139,"x_max":615,"o":"m 583 0 l 583 485 l 169 485 l 169 0 l 139 0 l 139 946 l 169 946 l 169 514 l 583 514 l 583 946 l 615 946 l 615 0 l 583 0 m 243 1065 l 228 1081 l 365 1207 l 382 1207 l 521 1081 l 504 1065 l 374 1175 l 243 1065 z "},"Ḥ":{"ha":753,"x_min":139,"x_max":615,"o":"m 583 0 l 583 485 l 169 485 l 169 0 l 139 0 l 139 946 l 169 946 l 169 514 l 583 514 l 583 946 l 615 946 l 615 0 l 583 0 m 376 -192 q 358 -183 365 -192 q 350 -164 350 -175 q 358 -145 350 -153 q 376 -137 365 -137 q 397 -145 389 -137 q 404 -164 404 -153 q 397 -183 404 -175 q 376 -192 389 -192 z "},"Ɦ":{"ha":804,"x_min":25,"x_max":667,"o":"m 667 946 l 667 0 l 635 0 l 635 485 l 221 485 l 221 0 l 190 0 l 190 918 l 158 918 q 81 890 106 918 q 56 813 56 863 q 64 756 56 781 q 88 704 72 731 l 64 692 q 35 748 44 721 q 25 813 25 775 q 60 910 25 875 q 161 946 94 946 l 221 946 l 221 514 l 635 514 l 635 946 l 667 946 z "},"Ɥ":{"ha":658,"x_min":60,"x_max":521,"o":"m 521 946 l 521 0 l 489 0 l 489 439 q 394 352 449 383 q 272 321 339 321 q 118 381 176 321 q 60 547 60 440 l 60 946 l 92 946 l 92 550 q 140 401 92 453 q 274 350 188 350 q 397 385 340 350 q 489 479 453 419 l 489 946 l 521 946 z "},"Ƕ":{"ha":1096,"x_min":139,"x_max":988,"o":"m 957 721 q 988 356 988 532 q 925 78 988 169 q 760 -14 863 -14 q 633 39 682 -14 q 583 188 583 92 l 583 485 l 169 485 l 169 0 l 139 0 l 139 946 l 169 946 l 169 515 l 583 515 l 583 946 l 615 946 l 615 189 q 655 60 615 104 q 760 15 694 15 q 902 96 847 15 q 957 356 957 176 q 926 721 957 515 l 957 721 z "},"I":{"ha":308,"x_min":139,"x_max":169,"o":"m 169 946 l 169 0 l 139 0 l 139 946 l 169 946 z "},"Ĳ":{"ha":626,"x_min":139,"x_max":494,"o":"m 169 946 l 169 0 l 139 0 l 139 946 l 169 946 m 494 121 q 482 4 494 49 q 437 -73 469 -40 q 342 -139 404 -106 l 333 -117 q 415 -55 388 -85 q 453 15 442 -25 q 464 124 464 56 l 464 946 l 494 946 l 494 121 z "},"Í":{"ha":308,"x_min":46,"x_max":261,"o":"m 169 946 l 169 0 l 139 0 l 139 946 l 169 946 m 246 1192 l 261 1161 l 56 1061 l 46 1081 l 246 1192 z "},"Ĭ":{"ha":308,"x_min":28,"x_max":281,"o":"m 169 946 l 169 0 l 139 0 l 139 946 l 169 946 m 154 1071 q 70 1101 104 1071 q 28 1176 36 1131 l 50 1182 q 88 1122 61 1144 q 154 1100 115 1100 q 220 1122 193 1100 q 260 1182 247 1144 l 281 1176 q 239 1101 274 1131 q 154 1071 204 1071 z "},"Ǐ":{"ha":308,"x_min":7,"x_max":299,"o":"m 169 946 l 169 0 l 139 0 l 139 946 l 169 946 m 286 1199 l 299 1183 l 161 1056 l 144 1056 l 7 1183 l 21 1199 l 153 1088 l 286 1199 z "},"Î":{"ha":308,"x_min":7,"x_max":300,"o":"m 169 946 l 169 0 l 139 0 l 139 946 l 169 946 m 22 1065 l 7 1081 l 144 1207 l 161 1207 l 300 1081 l 283 1065 l 153 1175 l 22 1065 z "},"Ȉ":{"ha":308,"x_min":-10,"x_max":222,"o":"m 169 946 l 169 0 l 139 0 l 139 946 l 169 946 m 19 1274 l 101 1090 l 81 1081 l -10 1260 l 19 1274 m 147 1272 l 222 1096 l 201 1086 l 118 1258 l 147 1272 z "},"Ï":{"ha":308,"x_min":39,"x_max":285,"o":"m 169 946 l 169 0 l 139 0 l 139 946 l 169 946 m 65 1164 q 85 1156 78 1164 q 92 1136 92 1149 q 85 1117 92 1125 q 65 1110 78 1110 q 47 1117 54 1110 q 39 1136 39 1125 q 47 1156 39 1147 q 65 1164 54 1164 m 258 1164 q 277 1156 269 1164 q 285 1136 285 1147 q 277 1117 285 1125 q 258 1110 269 1110 q 238 1117 246 1110 q 231 1136 231 1125 q 238 1156 231 1147 q 258 1164 246 1164 z "},"Ḯ":{"ha":308,"x_min":32,"x_max":278,"o":"m 169 946 l 169 0 l 139 0 l 139 946 l 169 946 m 247 1279 l 274 1260 l 151 1100 l 133 1113 l 247 1279 m 58 1085 q 78 1077 71 1085 q 85 1058 85 1069 q 78 1038 85 1046 q 58 1031 71 1031 q 40 1039 47 1031 q 32 1058 32 1047 q 40 1077 32 1069 q 58 1085 47 1085 m 251 1085 q 270 1077 263 1085 q 278 1058 278 1069 q 270 1039 278 1047 q 251 1031 263 1031 q 231 1039 239 1031 q 224 1058 224 1047 q 231 1077 224 1069 q 251 1085 239 1085 z "},"İ":{"ha":308,"x_min":128,"x_max":182,"o":"m 169 946 l 169 0 l 139 0 l 139 946 l 169 946 m 156 1181 q 174 1172 167 1181 q 182 1153 182 1164 q 174 1134 182 1142 q 156 1126 167 1126 q 135 1134 143 1126 q 128 1153 128 1142 q 135 1172 128 1164 q 156 1181 143 1181 z "},"Ị":{"ha":308,"x_min":126,"x_max":181,"o":"m 169 946 l 169 0 l 139 0 l 139 946 l 169 946 m 153 -192 q 134 -183 142 -192 q 126 -164 126 -175 q 134 -145 126 -153 q 153 -137 142 -137 q 173 -145 165 -137 q 181 -164 181 -153 q 173 -183 181 -175 q 153 -192 165 -192 z "},"Ì":{"ha":308,"x_min":47,"x_max":263,"o":"m 169 946 l 169 0 l 139 0 l 139 946 l 169 946 m 64 1190 l 263 1079 l 251 1060 l 47 1161 l 64 1190 z "},"Ỉ":{"ha":308,"x_min":82,"x_max":247,"o":"m 169 946 l 169 0 l 139 0 l 139 946 l 169 946 m 140 1165 q 217 1238 217 1168 q 201 1285 217 1268 q 157 1301 185 1301 q 94 1282 125 1301 l 82 1304 q 161 1329 118 1329 q 224 1304 200 1329 q 247 1238 247 1279 q 168 1146 247 1156 l 168 1086 l 140 1086 l 140 1165 z "},"Ȋ":{"ha":308,"x_min":28,"x_max":281,"o":"m 169 946 l 169 0 l 139 0 l 139 946 l 169 946 m 154 1232 q 240 1200 206 1232 q 281 1113 274 1168 l 258 1107 q 154 1203 239 1203 q 50 1107 72 1203 l 28 1113 q 69 1200 36 1168 q 154 1232 103 1232 z "},"Ī":{"ha":308,"x_min":33,"x_max":275,"o":"m 169 946 l 169 0 l 139 0 l 139 946 l 169 946 m 275 1126 l 33 1126 l 33 1154 l 275 1154 l 275 1126 z "},"Į":{"ha":308,"x_min":-6,"x_max":169,"o":"m 169 0 q 63 -74 99 -36 q 26 -171 26 -112 q 46 -231 26 -210 q 104 -251 65 -251 q 168 -242 135 -251 l 165 -272 q 103 -282 132 -282 q 22 -251 50 -282 q -6 -171 -6 -221 q 31 -71 -6 -112 q 139 8 68 -29 l 139 946 l 169 946 l 169 0 z "},"Ɩ":{"ha":371,"x_min":125,"x_max":343,"o":"m 343 28 q 238 -14 296 -14 q 156 19 188 -14 q 125 118 125 53 l 125 946 l 156 946 l 156 261 l 157 261 l 157 118 q 239 15 157 15 q 326 50 289 15 l 343 28 z "},"Ɨ":{"ha":354,"x_min":38,"x_max":318,"o":"m 318 515 l 318 486 l 193 486 l 193 0 l 163 0 l 163 486 l 38 486 l 38 515 l 163 515 l 163 946 l 193 946 l 193 515 l 318 515 z "},"Ĩ":{"ha":308,"x_min":0,"x_max":307,"o":"m 169 946 l 169 0 l 139 0 l 139 946 l 169 946 m 219 1117 q 183 1125 200 1117 q 144 1150 165 1133 q 128 1161 140 1153 q 105 1174 115 1169 q 86 1178 94 1178 q 52 1167 67 1178 q 19 1129 38 1156 l 0 1140 q 41 1188 21 1172 q 86 1204 61 1204 q 117 1197 103 1204 q 154 1174 131 1190 q 190 1151 175 1158 q 219 1143 204 1143 q 254 1156 239 1143 q 288 1200 269 1169 l 307 1190 q 267 1134 288 1151 q 219 1117 246 1117 z "},"J":{"ha":318,"x_min":25,"x_max":186,"o":"m 186 121 q 174 4 186 49 q 128 -73 161 -40 q 33 -139 96 -106 l 25 -117 q 106 -55 79 -85 q 144 15 133 -25 q 156 124 156 56 l 156 946 l 186 946 l 186 121 z "},"Ĵ":{"ha":318,"x_min":22,"x_max":315,"o":"m 186 121 q 174 4 186 49 q 128 -73 161 -40 q 33 -139 96 -106 l 25 -117 q 106 -55 79 -85 q 144 15 133 -25 q 156 124 156 56 l 156 946 l 186 946 l 186 121 m 38 1065 l 22 1081 l 160 1207 l 176 1207 l 315 1081 l 299 1065 l 168 1175 l 38 1065 z "},"Ʝ":{"ha":336,"x_min":-82,"x_max":304,"o":"m 293 -108 q 197 -65 249 -81 l 197 -79 q 158 -222 197 -171 q 42 -274 119 -274 q -50 -242 -18 -274 q -82 -151 -82 -210 q -42 -55 -82 -90 q 67 -19 -3 -19 q 165 -31 124 -19 l 165 946 l 197 946 l 197 -37 q 304 -85 258 -57 l 293 -108 m 42 -246 q 136 -205 107 -246 q 165 -76 165 -164 l 165 -57 q 67 -46 117 -46 q -22 -73 8 -46 q -51 -151 -51 -100 q -28 -222 -51 -197 q 42 -246 -4 -246 z "},"Ɉ":{"ha":346,"x_min":25,"x_max":311,"o":"m 311 461 l 186 461 l 186 121 q 174 4 186 49 q 128 -73 161 -40 q 33 -139 96 -106 l 25 -117 q 106 -55 79 -85 q 144 15 133 -25 q 156 124 156 56 l 156 461 l 31 461 l 31 490 l 156 490 l 156 946 l 186 946 l 186 490 l 311 490 l 311 461 z "},"K":{"ha":601,"x_min":139,"x_max":583,"o":"m 169 946 l 169 0 l 139 0 l 139 946 l 169 946 m 565 946 l 211 510 l 583 0 l 547 0 l 174 510 l 529 946 l 565 946 z "},"Ǩ":{"ha":601,"x_min":139,"x_max":583,"o":"m 169 946 l 169 0 l 139 0 l 139 946 l 169 946 m 565 946 l 211 510 l 583 0 l 547 0 l 174 510 l 529 946 l 565 946 m 463 1199 l 475 1183 l 338 1056 l 321 1056 l 183 1183 l 197 1199 l 329 1088 l 463 1199 z "},"Ķ":{"ha":601,"x_min":139,"x_max":583,"o":"m 169 946 l 169 0 l 139 0 l 139 946 l 169 946 m 565 946 l 211 510 l 583 0 l 547 0 l 174 510 l 529 946 l 565 946 m 336 -133 q 360 -142 351 -133 q 368 -165 368 -150 q 361 -199 368 -179 q 351 -228 354 -219 l 311 -358 l 290 -358 l 326 -197 q 304 -165 304 -187 q 313 -142 304 -151 q 336 -133 321 -133 z "},"Ƙ":{"ha":640,"x_min":139,"x_max":622,"o":"m 174 510 l 406 876 q 460 939 432 918 q 525 960 488 960 q 578 947 556 960 q 622 911 601 935 l 606 893 q 567 924 583 915 q 526 933 551 933 q 476 917 497 933 q 431 863 454 901 l 211 510 l 583 0 l 547 0 l 174 510 m 169 946 l 169 0 l 139 0 l 139 946 l 169 946 z "},"L":{"ha":521,"x_min":139,"x_max":497,"o":"m 169 946 l 169 31 l 497 31 l 493 0 l 139 0 l 139 946 l 169 946 z "},"Ǉ":{"ha":818,"x_min":139,"x_max":686,"o":"m 169 946 l 169 31 l 497 31 l 493 0 l 139 0 l 139 946 l 169 946 m 686 121 q 674 4 686 49 q 628 -73 661 -40 q 533 -139 596 -106 l 525 -117 q 606 -55 579 -85 q 644 15 633 -25 q 656 124 656 56 l 656 946 l 686 946 l 686 121 z "},"Ĺ":{"ha":521,"x_min":46,"x_max":497,"o":"m 169 946 l 169 31 l 497 31 l 493 0 l 139 0 l 139 946 l 169 946 m 246 1192 l 261 1161 l 56 1061 l 46 1081 l 246 1192 z "},"Ƚ":{"ha":544,"x_min":38,"x_max":521,"o":"m 193 31 l 521 31 l 517 0 l 163 0 l 163 489 l 38 489 l 38 518 l 163 518 l 163 946 l 193 946 l 193 518 l 318 518 l 318 489 l 193 489 l 193 31 z "},"Ɬ":{"ha":551,"x_min":32,"x_max":528,"o":"m 528 31 l 524 0 l 169 0 l 169 388 l 168 388 q 32 504 32 388 q 61 585 32 556 q 135 615 90 615 q 169 613 150 615 l 169 946 l 200 946 l 200 415 q 332 429 261 417 l 336 404 q 200 389 257 390 l 200 31 l 528 31 m 169 415 l 169 586 q 136 589 150 589 q 82 567 103 589 q 61 506 61 546 q 88 437 61 458 q 168 415 115 415 l 169 415 z "},"Ľ":{"ha":521,"x_min":139,"x_max":497,"o":"m 169 946 l 169 31 l 497 31 l 493 0 l 139 0 l 139 946 l 169 946 m 274 746 l 306 947 l 274 950 l 253 750 l 274 746 z "},"Ḽ":{"ha":521,"x_min":139,"x_max":497,"o":"m 169 946 l 169 31 l 497 31 l 493 0 l 139 0 l 139 946 l 169 946 m 188 -253 l 172 -239 l 310 -104 l 328 -104 l 464 -239 l 449 -253 l 318 -136 l 188 -253 z "},"Ļ":{"ha":521,"x_min":139,"x_max":497,"o":"m 169 946 l 169 31 l 497 31 l 493 0 l 139 0 l 139 946 l 169 946 m 315 -133 q 339 -142 331 -133 q 347 -165 347 -150 q 340 -199 347 -179 q 331 -228 333 -219 l 290 -358 l 269 -358 l 306 -197 q 283 -165 283 -187 q 292 -142 283 -151 q 315 -133 300 -133 z "},"Ŀ":{"ha":521,"x_min":139,"x_max":497,"o":"m 169 946 l 169 31 l 497 31 l 493 0 l 139 0 l 139 946 l 169 946 m 404 519 q 423 511 415 519 q 431 492 431 503 q 423 473 431 481 q 404 465 415 465 q 384 473 392 465 q 376 492 376 481 q 384 511 376 503 q 404 519 392 519 z "},"Ḷ":{"ha":521,"x_min":139,"x_max":497,"o":"m 169 946 l 169 31 l 497 31 l 493 0 l 139 0 l 139 946 l 169 946 m 317 -192 q 298 -183 306 -192 q 290 -164 290 -175 q 298 -145 290 -153 q 317 -137 306 -137 q 337 -145 329 -137 q 344 -164 344 -153 q 337 -183 344 -175 q 317 -192 329 -192 z "},"ǈ":{"ha":796,"x_min":139,"x_max":674,"o":"m 169 946 l 169 31 l 497 31 l 493 0 l 139 0 l 139 946 l 169 946 m 664 -35 q 650 -142 664 -100 q 608 -212 636 -183 q 532 -271 581 -240 l 519 -249 q 608 -165 583 -208 q 633 -33 633 -121 l 633 721 l 664 721 l 664 -35 m 647 1006 q 666 997 658 1006 q 674 978 674 989 q 666 959 674 967 q 647 951 658 951 q 627 959 635 951 q 619 978 619 967 q 627 997 619 989 q 647 1006 635 1006 z "},"Ł":{"ha":528,"x_min":50,"x_max":504,"o":"m 176 31 l 504 31 l 500 0 l 146 0 l 146 426 l 63 364 l 50 388 l 146 458 l 146 946 l 176 946 l 176 482 l 401 653 l 415 629 l 176 450 l 176 31 z "},"M":{"ha":872,"x_min":89,"x_max":783,"o":"m 783 0 l 754 0 l 710 479 q 674 917 686 743 l 451 117 l 421 117 l 196 917 q 178 710 192 858 l 160 492 l 119 0 l 89 0 l 172 946 l 218 946 l 436 156 l 653 946 l 699 946 l 783 0 z "},"Ḿ":{"ha":872,"x_min":89,"x_max":783,"o":"m 783 0 l 754 0 l 710 479 q 674 917 686 743 l 451 117 l 421 117 l 196 917 q 178 710 192 858 l 160 492 l 119 0 l 89 0 l 172 946 l 218 946 l 436 156 l 653 946 l 699 946 l 783 0 m 528 1192 l 543 1161 l 338 1061 l 328 1081 l 528 1192 z "},"Ṁ":{"ha":872,"x_min":89,"x_max":783,"o":"m 783 0 l 754 0 l 710 479 q 674 917 686 743 l 451 117 l 421 117 l 196 917 q 178 710 192 858 l 160 492 l 119 0 l 89 0 l 172 946 l 218 946 l 436 156 l 653 946 l 699 946 l 783 0 m 438 1181 q 456 1172 449 1181 q 464 1153 464 1164 q 456 1134 464 1142 q 438 1126 449 1126 q 417 1134 425 1126 q 410 1153 410 1142 q 417 1172 410 1164 q 438 1181 425 1181 z "},"Ɯ":{"ha":1050,"x_min":125,"x_max":911,"o":"m 911 946 l 911 0 l 883 0 l 881 147 q 792 29 843 72 q 678 -14 740 -14 q 565 31 608 -14 q 508 153 521 75 q 300 -14 421 -14 q 172 49 218 -14 q 125 215 125 111 l 125 946 l 156 946 l 156 213 q 194 69 156 122 q 300 15 233 15 q 415 63 365 15 q 503 199 464 111 l 503 218 l 503 946 l 535 946 l 535 213 q 573 69 535 122 q 678 15 611 15 q 879 200 797 15 l 879 946 l 911 946 z "},"N":{"ha":756,"x_min":139,"x_max":617,"o":"m 617 0 l 576 0 l 165 910 q 169 663 169 768 l 169 0 l 139 0 l 139 946 l 179 946 l 590 36 q 589 67 590 56 q 586 285 586 178 l 586 946 l 617 946 l 617 0 z "},"Ǌ":{"ha":1074,"x_min":139,"x_max":942,"o":"m 617 0 l 576 0 l 165 910 q 169 663 169 768 l 169 0 l 139 0 l 139 946 l 179 946 l 590 36 q 589 67 590 56 q 586 285 586 178 l 586 946 l 617 946 l 617 0 m 942 121 q 929 4 942 49 q 884 -73 917 -40 q 789 -139 851 -106 l 781 -117 q 862 -55 835 -85 q 900 15 889 -25 q 911 124 911 56 l 911 946 l 942 946 l 942 121 z "},"Ń":{"ha":756,"x_min":139,"x_max":617,"o":"m 617 0 l 576 0 l 165 910 q 169 663 169 768 l 169 0 l 139 0 l 139 946 l 179 946 l 590 36 q 589 67 590 56 q 586 285 586 178 l 586 946 l 617 946 l 617 0 m 476 1192 l 492 1161 l 286 1061 l 276 1081 l 476 1192 z "},"Ň":{"ha":756,"x_min":139,"x_max":617,"o":"m 617 0 l 576 0 l 165 910 q 169 663 169 768 l 169 0 l 139 0 l 139 946 l 179 946 l 590 36 q 589 67 590 56 q 586 285 586 178 l 586 946 l 617 946 l 617 0 m 517 1199 l 529 1183 l 392 1056 l 375 1056 l 238 1183 l 251 1199 l 383 1088 l 517 1199 z "},"Ṋ":{"ha":756,"x_min":139,"x_max":617,"o":"m 617 0 l 576 0 l 165 910 q 169 663 169 768 l 169 0 l 139 0 l 139 946 l 179 946 l 590 36 q 589 67 590 56 q 586 285 586 178 l 586 946 l 617 946 l 617 0 m 246 -253 l 231 -239 l 368 -104 l 386 -104 l 522 -239 l 507 -253 l 376 -136 l 246 -253 z "},"Ņ":{"ha":756,"x_min":139,"x_max":617,"o":"m 617 0 l 576 0 l 165 910 q 169 663 169 768 l 169 0 l 139 0 l 139 946 l 179 946 l 590 36 q 589 67 590 56 q 586 285 586 178 l 586 946 l 617 946 l 617 0 m 374 -133 q 397 -142 389 -133 q 406 -165 406 -150 q 399 -199 406 -179 q 389 -228 392 -219 l 349 -358 l 328 -358 l 364 -197 q 342 -165 342 -187 q 350 -142 342 -151 q 374 -133 358 -133 z "},"Ṅ":{"ha":756,"x_min":139,"x_max":617,"o":"m 617 0 l 576 0 l 165 910 q 169 663 169 768 l 169 0 l 139 0 l 139 946 l 179 946 l 590 36 q 589 67 590 56 q 586 285 586 178 l 586 946 l 617 946 l 617 0 m 386 1181 q 405 1172 397 1181 q 413 1153 413 1164 q 405 1134 413 1142 q 386 1126 397 1126 q 366 1134 374 1126 q 358 1153 358 1142 q 366 1172 358 1164 q 386 1181 374 1181 z "},"Ṇ":{"ha":756,"x_min":139,"x_max":617,"o":"m 617 0 l 576 0 l 165 910 q 169 663 169 768 l 169 0 l 139 0 l 139 946 l 179 946 l 590 36 q 589 67 590 56 q 586 285 586 178 l 586 946 l 617 946 l 617 0 m 375 -192 q 356 -183 364 -192 q 349 -164 349 -175 q 356 -145 349 -153 q 375 -137 364 -137 q 395 -145 388 -137 q 403 -164 403 -153 q 395 -183 403 -175 q 375 -192 388 -192 z "},"Ǹ":{"ha":756,"x_min":139,"x_max":617,"o":"m 617 0 l 576 0 l 165 910 q 169 663 169 768 l 169 0 l 139 0 l 139 946 l 179 946 l 590 36 q 589 67 590 56 q 586 285 586 178 l 586 946 l 617 946 l 617 0 m 294 1190 l 493 1079 l 482 1060 l 278 1161 l 294 1190 z "},"Ŋ":{"ha":756,"x_min":139,"x_max":617,"o":"m 617 946 l 617 -142 q 585 -240 617 -207 q 504 -274 554 -274 q 399 -232 446 -274 l 415 -210 q 503 -244 453 -244 q 585 -142 585 -244 l 585 0 l 576 0 l 165 910 q 169 663 169 768 l 169 0 l 139 0 l 139 946 l 179 946 l 590 36 q 589 67 590 56 q 586 285 586 178 l 586 946 l 617 946 z "},"Ɲ":{"ha":756,"x_min":-49,"x_max":617,"o":"m 617 946 l 617 0 l 576 0 l 165 910 q 169 663 169 768 l 169 -142 q 138 -240 169 -207 q 56 -274 106 -274 q -49 -232 -4 -274 l -33 -211 q 7 -237 -14 -228 q 56 -246 28 -246 q 116 -221 93 -246 q 139 -142 139 -196 l 139 946 l 179 946 l 590 36 q 589 67 590 56 q 586 285 586 178 l 586 946 l 617 946 z "},"ǋ":{"ha":1051,"x_min":139,"x_max":929,"o":"m 617 0 l 576 0 l 165 910 q 169 663 169 768 l 169 0 l 139 0 l 139 946 l 179 946 l 590 36 q 589 67 590 56 q 586 285 586 178 l 586 946 l 617 946 l 617 0 m 919 -35 q 906 -142 919 -100 q 864 -212 892 -183 q 788 -271 836 -240 l 775 -249 q 864 -165 839 -208 q 889 -33 889 -121 l 889 721 l 919 721 l 919 -35 m 903 1006 q 922 997 914 1006 q 929 978 929 989 q 922 959 929 967 q 903 951 914 951 q 883 959 890 951 q 875 978 875 967 q 883 997 875 989 q 903 1006 890 1006 z "},"Ƞ":{"ha":739,"x_min":139,"x_max":613,"o":"m 419 960 q 561 897 510 960 q 613 718 613 835 l 613 -267 l 582 -267 l 582 714 q 539 876 582 822 q 417 931 496 931 q 281 885 342 931 q 169 761 221 839 l 169 0 l 139 0 l 139 946 l 165 946 l 168 801 q 280 917 217 874 q 419 960 343 960 z "},"Ñ":{"ha":756,"x_min":139,"x_max":617,"o":"m 617 0 l 576 0 l 165 910 q 169 663 169 768 l 169 0 l 139 0 l 139 946 l 179 946 l 590 36 q 589 67 590 56 q 586 285 586 178 l 586 946 l 617 946 l 617 0 m 450 1117 q 413 1125 431 1117 q 375 1150 396 1133 q 358 1161 371 1153 q 335 1174 346 1169 q 317 1178 325 1178 q 283 1167 297 1178 q 250 1129 268 1156 l 231 1140 q 272 1188 251 1172 q 317 1204 292 1204 q 347 1197 333 1204 q 385 1174 361 1190 q 420 1151 406 1158 q 450 1143 435 1143 q 485 1156 469 1143 q 518 1200 500 1169 l 538 1190 q 497 1134 518 1151 q 450 1117 476 1117 z "},"O":{"ha":785,"x_min":88,"x_max":699,"o":"m 393 960 q 617 838 536 960 q 699 472 699 715 q 619 110 699 233 q 393 -14 539 -14 q 169 110 251 -14 q 88 471 88 233 q 170 835 88 710 q 393 960 253 960 m 393 931 q 193 815 267 931 q 119 471 119 700 q 193 131 119 244 q 393 17 267 17 q 595 130 525 17 q 665 472 665 243 q 594 817 665 704 q 393 931 522 931 z "},"Ȣ":{"ha":719,"x_min":88,"x_max":632,"o":"m 451 533 q 585 440 539 510 q 632 265 632 371 q 562 63 632 140 q 360 -14 492 -14 q 158 63 229 -14 q 88 263 88 139 q 135 435 88 364 q 268 532 182 507 q 143 733 143 571 l 143 946 l 175 946 l 175 733 q 360 546 175 546 q 549 733 549 546 l 549 946 l 579 946 l 579 733 q 549 608 579 661 q 451 533 518 556 m 360 17 q 540 84 479 17 q 600 265 600 151 q 540 450 600 383 q 360 517 479 517 q 181 448 243 517 q 119 263 119 379 q 181 83 119 150 q 360 17 243 17 z "},"Ó":{"ha":785,"x_min":88,"x_max":699,"o":"m 393 960 q 617 838 536 960 q 699 472 699 715 q 619 110 699 233 q 393 -14 539 -14 q 169 110 251 -14 q 88 471 88 233 q 170 835 88 710 q 393 960 253 960 m 393 931 q 193 815 267 931 q 119 471 119 700 q 193 131 119 244 q 393 17 267 17 q 595 130 525 17 q 665 472 665 243 q 594 817 665 704 q 393 931 522 931 m 485 1192 l 500 1161 l 294 1061 l 285 1081 l 485 1192 z "},"Ŏ":{"ha":785,"x_min":88,"x_max":699,"o":"m 393 960 q 617 838 536 960 q 699 472 699 715 q 619 110 699 233 q 393 -14 539 -14 q 169 110 251 -14 q 88 471 88 233 q 170 835 88 710 q 393 960 253 960 m 393 931 q 193 815 267 931 q 119 471 119 700 q 193 131 119 244 q 393 17 267 17 q 595 130 525 17 q 665 472 665 243 q 594 817 665 704 q 393 931 522 931 m 393 1071 q 309 1101 343 1071 q 267 1176 275 1131 l 289 1182 q 327 1122 300 1144 q 393 1100 354 1100 q 459 1122 432 1100 q 499 1182 486 1144 l 519 1176 q 478 1101 513 1131 q 393 1071 443 1071 z "},"Ǒ":{"ha":785,"x_min":88,"x_max":699,"o":"m 393 960 q 617 838 536 960 q 699 472 699 715 q 619 110 699 233 q 393 -14 539 -14 q 169 110 251 -14 q 88 471 88 233 q 170 835 88 710 q 393 960 253 960 m 393 931 q 193 815 267 931 q 119 471 119 700 q 193 131 119 244 q 393 17 267 17 q 595 130 525 17 q 665 472 665 243 q 594 817 665 704 q 393 931 522 931 m 525 1199 l 538 1183 l 400 1056 l 383 1056 l 246 1183 l 260 1199 l 392 1088 l 525 1199 z "},"Ɵ":{"ha":785,"x_min":88,"x_max":699,"o":"m 393 960 q 617 838 535 960 q 699 474 699 715 q 618 110 699 235 q 393 -14 538 -14 q 169 110 251 -14 q 88 472 88 233 q 126 740 88 631 q 233 905 164 850 q 393 960 301 960 m 393 931 q 197 822 269 931 q 119 496 124 713 l 665 496 q 590 823 661 715 q 393 931 518 931 m 393 17 q 594 128 524 17 q 665 468 664 240 l 119 468 q 194 130 121 243 q 393 17 268 17 z "},"Ô":{"ha":785,"x_min":88,"x_max":699,"o":"m 393 960 q 617 838 536 960 q 699 472 699 715 q 619 110 699 233 q 393 -14 539 -14 q 169 110 251 -14 q 88 471 88 233 q 170 835 88 710 q 393 960 253 960 m 393 931 q 193 815 267 931 q 119 471 119 700 q 193 131 119 244 q 393 17 267 17 q 595 130 525 17 q 665 472 665 243 q 594 817 665 704 q 393 931 522 931 m 261 1065 l 246 1081 l 383 1207 l 400 1207 l 539 1081 l 522 1065 l 392 1175 l 261 1065 z "},"Ố":{"ha":785,"x_min":88,"x_max":699,"o":"m 393 960 q 617 838 536 960 q 699 472 699 715 q 619 110 699 233 q 393 -14 539 -14 q 169 110 251 -14 q 88 471 88 233 q 170 835 88 710 q 393 960 253 960 m 393 931 q 193 815 267 931 q 119 471 119 700 q 193 131 119 244 q 393 17 267 17 q 595 130 525 17 q 665 472 665 243 q 594 817 665 704 q 393 931 522 931 m 267 1025 l 251 1040 l 389 1167 l 406 1167 l 544 1040 l 528 1025 l 397 1135 l 267 1025 m 606 1324 l 632 1304 l 510 1144 l 492 1157 l 606 1324 z "},"Ộ":{"ha":785,"x_min":88,"x_max":699,"o":"m 393 960 q 617 838 536 960 q 699 472 699 715 q 619 110 699 233 q 393 -14 539 -14 q 169 110 251 -14 q 88 471 88 233 q 170 835 88 710 q 393 960 253 960 m 393 931 q 193 815 267 931 q 119 471 119 700 q 193 131 119 244 q 393 17 267 17 q 595 130 525 17 q 665 472 665 243 q 594 817 665 704 q 393 931 522 931 m 261 1065 l 246 1081 l 383 1207 l 400 1207 l 539 1081 l 522 1065 l 392 1175 l 261 1065 m 392 -192 q 373 -183 381 -192 q 365 -164 365 -175 q 373 -145 365 -153 q 392 -137 381 -137 q 412 -145 404 -137 q 419 -164 419 -153 q 412 -183 419 -175 q 392 -192 404 -192 z "},"Ồ":{"ha":785,"x_min":88,"x_max":699,"o":"m 393 960 q 617 838 536 960 q 699 472 699 715 q 619 110 699 233 q 393 -14 539 -14 q 169 110 251 -14 q 88 471 88 233 q 170 835 88 710 q 393 960 253 960 m 393 931 q 193 815 267 931 q 119 471 119 700 q 193 131 119 244 q 393 17 267 17 q 595 130 525 17 q 665 472 665 243 q 594 817 665 704 q 393 931 522 931 m 261 1025 l 246 1040 l 383 1167 l 400 1167 l 539 1040 l 522 1025 l 392 1135 l 261 1025 m 188 1324 l 301 1157 l 283 1144 l 161 1304 l 188 1324 z "},"Ổ":{"ha":785,"x_min":88,"x_max":699,"o":"m 393 960 q 617 838 536 960 q 699 472 699 715 q 619 110 699 233 q 393 -14 539 -14 q 169 110 251 -14 q 88 471 88 233 q 170 835 88 710 q 393 960 253 960 m 393 931 q 193 815 267 931 q 119 471 119 700 q 193 131 119 244 q 393 17 267 17 q 595 130 525 17 q 665 472 665 243 q 594 817 665 704 q 393 931 522 931 m 261 1025 l 246 1040 l 383 1167 l 400 1167 l 539 1040 l 522 1025 l 392 1135 l 261 1025 m 500 1196 q 576 1268 576 1199 q 560 1315 576 1299 q 517 1332 544 1332 q 454 1313 485 1332 l 442 1335 q 521 1360 478 1360 q 583 1335 560 1360 q 607 1268 607 1310 q 528 1176 607 1186 l 528 1117 l 500 1117 l 500 1196 z "},"Ỗ":{"ha":785,"x_min":88,"x_max":699,"o":"m 393 960 q 617 838 536 960 q 699 472 699 715 q 619 110 699 233 q 393 -14 539 -14 q 169 110 251 -14 q 88 471 88 233 q 170 835 88 710 q 393 960 253 960 m 393 931 q 193 815 267 931 q 119 471 119 700 q 193 131 119 244 q 393 17 267 17 q 595 130 525 17 q 665 472 665 243 q 594 817 665 704 q 393 931 522 931 m 260 1025 l 244 1040 l 382 1167 l 399 1167 l 538 1040 l 521 1025 l 390 1135 l 260 1025 m 457 1231 q 420 1239 438 1231 q 382 1264 403 1247 q 365 1275 378 1267 q 342 1288 353 1283 q 324 1292 332 1292 q 290 1281 304 1292 q 257 1243 275 1269 l 238 1254 q 278 1302 258 1286 q 324 1318 299 1318 q 354 1311 340 1318 q 392 1288 368 1304 q 427 1265 413 1272 q 457 1257 442 1257 q 492 1270 476 1257 q 525 1314 507 1283 l 544 1304 q 504 1248 525 1265 q 457 1231 483 1231 z "},"Ȍ":{"ha":785,"x_min":88,"x_max":699,"o":"m 393 960 q 617 838 536 960 q 699 472 699 715 q 619 110 699 233 q 393 -14 539 -14 q 169 110 251 -14 q 88 471 88 233 q 170 835 88 710 q 393 960 253 960 m 393 931 q 193 815 267 931 q 119 471 119 700 q 193 131 119 244 q 393 17 267 17 q 595 130 525 17 q 665 472 665 243 q 594 817 665 704 q 393 931 522 931 m 258 1274 l 340 1090 l 319 1081 l 229 1260 l 258 1274 m 386 1272 l 461 1096 l 440 1086 l 357 1258 l 386 1272 z "},"Ö":{"ha":785,"x_min":88,"x_max":699,"o":"m 393 960 q 617 838 536 960 q 699 472 699 715 q 619 110 699 233 q 393 -14 539 -14 q 169 110 251 -14 q 88 471 88 233 q 170 835 88 710 q 393 960 253 960 m 393 931 q 193 815 267 931 q 119 471 119 700 q 193 131 119 244 q 393 17 267 17 q 595 130 525 17 q 665 472 665 243 q 594 817 665 704 q 393 931 522 931 m 304 1164 q 324 1156 317 1164 q 331 1136 331 1149 q 324 1117 331 1125 q 304 1110 317 1110 q 285 1117 293 1110 q 278 1136 278 1125 q 285 1156 278 1147 q 304 1164 293 1164 m 497 1164 q 516 1156 508 1164 q 524 1136 524 1147 q 516 1117 524 1125 q 497 1110 508 1110 q 477 1117 485 1110 q 469 1136 469 1125 q 477 1156 469 1147 q 497 1164 485 1164 z "},"Ȫ":{"ha":785,"x_min":88,"x_max":699,"o":"m 393 960 q 617 838 536 960 q 699 472 699 715 q 619 110 699 233 q 393 -14 539 -14 q 169 110 251 -14 q 88 471 88 233 q 170 835 88 710 q 393 960 253 960 m 393 931 q 193 815 267 931 q 119 471 119 700 q 193 131 119 244 q 393 17 267 17 q 595 130 525 17 q 665 472 665 243 q 594 817 665 704 q 393 931 522 931 m 296 1085 q 315 1077 308 1085 q 322 1057 322 1069 q 315 1038 322 1046 q 296 1031 308 1031 q 277 1038 285 1031 q 269 1057 269 1046 q 277 1076 269 1068 q 296 1085 285 1085 m 489 1085 q 508 1076 500 1085 q 515 1057 515 1068 q 508 1038 515 1046 q 489 1031 500 1031 q 469 1038 476 1031 q 461 1057 461 1046 q 469 1076 461 1068 q 489 1085 476 1085 m 514 1181 l 272 1181 l 272 1208 l 514 1208 l 514 1181 z "},"Ȯ":{"ha":785,"x_min":88,"x_max":699,"o":"m 393 960 q 617 838 536 960 q 699 472 699 715 q 619 110 699 233 q 393 -14 539 -14 q 169 110 251 -14 q 88 471 88 233 q 170 835 88 710 q 393 960 253 960 m 393 931 q 193 815 267 931 q 119 471 119 700 q 193 131 119 244 q 393 17 267 17 q 595 130 525 17 q 665 472 665 243 q 594 817 665 704 q 393 931 522 931 m 394 1181 q 413 1172 406 1181 q 421 1153 421 1164 q 413 1134 421 1142 q 394 1126 406 1126 q 374 1134 382 1126 q 367 1153 367 1142 q 374 1172 367 1164 q 394 1181 382 1181 z "},"Ȱ":{"ha":785,"x_min":88,"x_max":699,"o":"m 393 960 q 617 838 536 960 q 699 472 699 715 q 619 110 699 233 q 393 -14 539 -14 q 169 110 251 -14 q 88 471 88 233 q 170 835 88 710 q 393 960 253 960 m 393 931 q 193 815 267 931 q 119 471 119 700 q 193 131 119 244 q 393 17 267 17 q 595 130 525 17 q 665 472 665 243 q 594 817 665 704 q 393 931 522 931 m 393 1092 q 412 1083 404 1092 q 419 1064 419 1075 q 412 1045 419 1053 q 393 1038 404 1038 q 373 1045 381 1038 q 365 1064 365 1053 q 373 1083 365 1075 q 393 1092 381 1092 m 514 1179 l 272 1179 l 272 1207 l 514 1207 l 514 1179 z "},"Ọ":{"ha":785,"x_min":88,"x_max":699,"o":"m 393 960 q 617 838 536 960 q 699 472 699 715 q 619 110 699 233 q 393 -14 539 -14 q 169 110 251 -14 q 88 471 88 233 q 170 835 88 710 q 393 960 253 960 m 393 931 q 193 815 267 931 q 119 471 119 700 q 193 131 119 244 q 393 17 267 17 q 595 130 525 17 q 665 472 665 243 q 594 817 665 704 q 393 931 522 931 m 392 -192 q 373 -183 381 -192 q 365 -164 365 -175 q 373 -145 365 -153 q 392 -137 381 -137 q 412 -145 404 -137 q 419 -164 419 -153 q 412 -183 419 -175 q 392 -192 404 -192 z "},"Ò":{"ha":785,"x_min":88,"x_max":699,"o":"m 393 960 q 617 838 536 960 q 699 472 699 715 q 619 110 699 233 q 393 -14 539 -14 q 169 110 251 -14 q 88 471 88 233 q 170 835 88 710 q 393 960 253 960 m 393 931 q 193 815 267 931 q 119 471 119 700 q 193 131 119 244 q 393 17 267 17 q 595 130 525 17 q 665 472 665 243 q 594 817 665 704 q 393 931 522 931 m 303 1190 l 501 1079 l 490 1060 l 286 1161 l 303 1190 z "},"Ỏ":{"ha":785,"x_min":88,"x_max":699,"o":"m 393 960 q 617 838 536 960 q 699 472 699 715 q 619 110 699 233 q 393 -14 539 -14 q 169 110 251 -14 q 88 471 88 233 q 170 835 88 710 q 393 960 253 960 m 393 931 q 193 815 267 931 q 119 471 119 700 q 193 131 119 244 q 393 17 267 17 q 595 130 525 17 q 665 472 665 243 q 594 817 665 704 q 393 931 522 931 m 379 1165 q 456 1238 456 1168 q 440 1285 456 1268 q 396 1301 424 1301 q 333 1282 364 1301 l 321 1304 q 400 1329 357 1329 q 463 1304 439 1329 q 486 1238 486 1279 q 407 1146 486 1156 l 407 1086 l 379 1086 l 379 1165 z "},"Ơ":{"ha":785,"x_min":88,"x_max":699,"o":"m 610 847 q 699 472 699 724 q 619 110 699 233 q 393 -14 539 -14 q 169 110 251 -14 q 88 471 88 233 q 170 835 88 710 q 393 960 253 960 q 594 868 519 960 q 646 894 631 875 q 661 953 661 913 q 646 1053 661 1000 l 669 1063 q 689 953 689 1007 q 669 879 689 904 q 610 847 650 854 m 393 17 q 595 130 525 17 q 665 472 665 243 q 594 817 665 704 q 393 931 522 931 q 193 815 267 931 q 119 471 119 700 q 193 131 119 244 q 393 17 267 17 z "},"Ớ":{"ha":785,"x_min":88,"x_max":699,"o":"m 500 1161 l 294 1061 l 285 1081 l 485 1192 l 500 1161 m 610 847 q 699 472 699 724 q 619 110 699 233 q 393 -14 539 -14 q 169 110 251 -14 q 88 471 88 233 q 170 835 88 710 q 393 960 253 960 q 594 868 519 960 q 646 894 631 875 q 661 953 661 913 q 646 1053 661 1000 l 669 1063 q 689 953 689 1007 q 669 879 689 904 q 610 847 650 854 m 393 17 q 595 130 525 17 q 665 472 665 243 q 594 817 665 704 q 393 931 522 931 q 193 815 267 931 q 119 471 119 700 q 193 131 119 244 q 393 17 267 17 z "},"Ợ":{"ha":785,"x_min":88,"x_max":699,"o":"m 610 847 q 699 472 699 724 q 619 110 699 233 q 393 -14 539 -14 q 169 110 251 -14 q 88 471 88 233 q 170 835 88 710 q 393 960 253 960 q 594 868 519 960 q 646 894 631 875 q 661 953 661 913 q 646 1053 661 1000 l 669 1063 q 689 953 689 1007 q 669 879 689 904 q 610 847 650 854 m 393 17 q 595 130 525 17 q 665 472 665 243 q 594 817 665 704 q 393 931 522 931 q 193 815 267 931 q 119 471 119 700 q 193 131 119 244 q 393 17 267 17 m 392 -137 q 412 -145 404 -137 q 419 -164 419 -153 q 412 -183 419 -175 q 392 -192 404 -192 q 373 -183 381 -192 q 365 -164 365 -175 q 373 -145 365 -153 q 392 -137 381 -137 z "},"Ờ":{"ha":785,"x_min":88,"x_max":699,"o":"m 501 1079 l 490 1060 l 286 1161 l 303 1190 l 501 1079 m 610 847 q 699 472 699 724 q 619 110 699 233 q 393 -14 539 -14 q 169 110 251 -14 q 88 471 88 233 q 170 835 88 710 q 393 960 253 960 q 594 868 519 960 q 646 894 631 875 q 661 953 661 913 q 646 1053 661 1000 l 669 1063 q 689 953 689 1007 q 669 879 689 904 q 610 847 650 854 m 393 17 q 595 130 525 17 q 665 472 665 243 q 594 817 665 704 q 393 931 522 931 q 193 815 267 931 q 119 471 119 700 q 193 131 119 244 q 393 17 267 17 z "},"Ở":{"ha":785,"x_min":88,"x_max":699,"o":"m 396 1301 q 333 1282 364 1301 l 321 1304 q 400 1329 357 1329 q 463 1304 439 1329 q 486 1238 486 1279 q 407 1146 486 1156 l 407 1086 l 379 1086 l 379 1165 q 456 1238 456 1168 q 440 1285 456 1268 q 396 1301 424 1301 m 610 847 q 699 472 699 724 q 619 110 699 233 q 393 -14 539 -14 q 169 110 251 -14 q 88 471 88 233 q 170 835 88 710 q 393 960 253 960 q 594 868 519 960 q 646 894 631 875 q 661 953 661 913 q 646 1053 661 1000 l 669 1063 q 689 953 689 1007 q 669 879 689 904 q 610 847 650 854 m 393 17 q 595 130 525 17 q 665 472 665 243 q 594 817 665 704 q 393 931 522 931 q 193 815 267 931 q 119 471 119 700 q 193 131 119 244 q 393 17 267 17 z "},"Ỡ":{"ha":785,"x_min":88,"x_max":699,"o":"m 325 1178 q 291 1167 306 1178 q 258 1129 276 1156 l 239 1140 q 280 1188 260 1172 q 325 1204 300 1204 q 356 1197 342 1204 q 393 1174 369 1190 q 428 1151 414 1158 q 458 1143 443 1143 q 493 1156 478 1143 q 526 1200 508 1169 l 546 1190 q 506 1134 526 1151 q 458 1117 485 1117 q 422 1125 439 1117 q 383 1150 404 1133 q 367 1161 379 1153 q 344 1174 354 1169 q 325 1178 333 1178 m 610 847 q 699 472 699 724 q 619 110 699 233 q 393 -14 539 -14 q 169 110 251 -14 q 88 471 88 233 q 170 835 88 710 q 393 960 253 960 q 594 868 519 960 q 646 894 631 875 q 661 953 661 913 q 646 1053 661 1000 l 669 1063 q 689 953 689 1007 q 669 879 689 904 q 610 847 650 854 m 393 17 q 595 130 525 17 q 665 472 665 243 q 594 817 665 704 q 393 931 522 931 q 193 815 267 931 q 119 471 119 700 q 193 131 119 244 q 393 17 267 17 z "},"Ő":{"ha":785,"x_min":88,"x_max":699,"o":"m 393 960 q 617 838 536 960 q 699 472 699 715 q 619 110 699 233 q 393 -14 539 -14 q 169 110 251 -14 q 88 471 88 233 q 170 835 88 710 q 393 960 253 960 m 393 931 q 193 815 267 931 q 119 471 119 700 q 193 131 119 244 q 393 17 267 17 q 595 130 525 17 q 665 472 665 243 q 594 817 665 704 q 393 931 522 931 m 515 1274 l 544 1260 l 454 1081 l 433 1090 l 515 1274 m 388 1272 l 417 1258 l 333 1086 l 313 1096 l 388 1272 z "},"Ƣ":{"ha":1007,"x_min":88,"x_max":869,"o":"m 733 960 q 834 919 799 960 q 869 799 869 878 l 869 -267 l 838 -267 l 838 797 q 733 933 838 933 q 656 919 692 933 q 585 879 621 906 q 699 472 699 758 q 619 110 699 233 q 393 -14 539 -14 q 169 110 251 -14 q 88 471 88 233 q 170 835 88 710 q 393 960 253 960 q 567 897 494 960 q 647 943 608 926 q 733 960 686 960 m 393 17 q 595 130 525 17 q 665 472 665 243 q 594 817 665 704 q 393 931 522 931 q 193 815 267 931 q 119 471 119 700 q 193 131 119 244 q 393 17 267 17 z "},"Ȏ":{"ha":785,"x_min":88,"x_max":699,"o":"m 393 960 q 617 838 536 960 q 699 472 699 715 q 619 110 699 233 q 393 -14 539 -14 q 169 110 251 -14 q 88 471 88 233 q 170 835 88 710 q 393 960 253 960 m 393 931 q 193 815 267 931 q 119 471 119 700 q 193 131 119 244 q 393 17 267 17 q 595 130 525 17 q 665 472 665 243 q 594 817 665 704 q 393 931 522 931 m 393 1232 q 478 1200 444 1232 q 519 1113 513 1168 l 497 1107 q 393 1203 478 1203 q 289 1107 311 1203 l 267 1113 q 308 1200 275 1168 q 393 1232 342 1232 z "},"Ō":{"ha":785,"x_min":88,"x_max":699,"o":"m 393 960 q 617 838 536 960 q 699 472 699 715 q 619 110 699 233 q 393 -14 539 -14 q 169 110 251 -14 q 88 471 88 233 q 170 835 88 710 q 393 960 253 960 m 393 931 q 193 815 267 931 q 119 471 119 700 q 193 131 119 244 q 393 17 267 17 q 595 130 525 17 q 665 472 665 243 q 594 817 665 704 q 393 931 522 931 m 514 1126 l 272 1126 l 272 1154 l 514 1154 l 514 1126 z "},"Ṓ":{"ha":785,"x_min":88,"x_max":699,"o":"m 393 960 q 617 838 536 960 q 699 472 699 715 q 619 110 699 233 q 393 -14 539 -14 q 169 110 251 -14 q 88 471 88 233 q 170 835 88 710 q 393 960 253 960 m 393 931 q 193 815 267 931 q 119 471 119 700 q 193 131 119 244 q 393 17 267 17 q 595 130 525 17 q 665 472 665 243 q 594 817 665 704 q 393 931 522 931 m 514 1065 l 272 1065 l 272 1093 l 514 1093 l 514 1065 m 481 1303 l 496 1272 l 290 1172 l 281 1192 l 481 1303 z "},"Ṑ":{"ha":785,"x_min":88,"x_max":699,"o":"m 311 1301 l 510 1190 l 499 1171 l 294 1272 l 311 1301 m 521 1065 l 279 1065 l 279 1093 l 521 1093 l 521 1065 m 393 960 q 617 838 536 960 q 699 472 699 715 q 619 110 699 233 q 393 -14 539 -14 q 169 110 251 -14 q 88 471 88 233 q 170 835 88 710 q 393 960 253 960 m 393 931 q 193 815 267 931 q 119 471 119 700 q 193 131 119 244 q 393 17 267 17 q 595 130 525 17 q 665 472 665 243 q 594 817 665 704 q 393 931 522 931 z "},"Ꞷ":{"ha":960,"x_min":96,"x_max":864,"o":"m 781 946 q 844 674 824 796 q 864 396 864 551 q 808 76 864 167 q 651 -14 753 -14 q 535 28 576 -14 q 479 150 493 69 q 306 -14 450 -14 q 148 78 200 -14 q 96 397 96 171 q 117 667 96 549 q 182 946 138 786 l 214 946 q 149 671 169 794 q 129 397 129 547 q 150 163 129 246 q 209 48 171 79 q 306 17 247 17 q 464 238 464 17 l 464 550 l 496 550 l 496 235 q 537 67 496 118 q 651 17 578 17 q 785 99 738 17 q 832 396 832 181 q 812 672 832 547 q 749 946 792 797 l 781 946 z "},"Ǫ":{"ha":785,"x_min":88,"x_max":699,"o":"m 476 -1 q 372 -76 407 -37 q 338 -171 338 -114 q 357 -231 338 -210 q 415 -251 376 -251 q 479 -242 446 -251 l 476 -272 q 414 -282 443 -282 q 333 -251 361 -282 q 306 -171 306 -221 q 333 -83 306 -121 q 413 -14 360 -46 l 393 -14 q 169 110 251 -14 q 88 471 88 233 q 170 835 88 710 q 393 960 253 960 q 617 838 536 960 q 699 472 699 715 q 641 150 699 269 q 476 -1 583 31 m 119 471 q 193 131 119 244 q 393 17 267 17 q 595 130 525 17 q 665 472 665 243 q 594 817 665 704 q 393 931 522 931 q 193 815 267 931 q 119 471 119 700 z "},"Ǭ":{"ha":785,"x_min":88,"x_max":699,"o":"m 514 1154 l 514 1126 l 272 1126 l 272 1154 l 514 1154 m 476 -1 q 372 -76 407 -37 q 338 -171 338 -114 q 357 -231 338 -210 q 415 -251 376 -251 q 479 -242 446 -251 l 476 -272 q 414 -282 443 -282 q 333 -251 361 -282 q 306 -171 306 -221 q 333 -83 306 -121 q 413 -14 360 -46 l 393 -14 q 169 110 251 -14 q 88 471 88 233 q 170 835 88 710 q 393 960 253 960 q 617 838 536 960 q 699 472 699 715 q 641 150 699 269 q 476 -1 583 31 m 119 471 q 193 131 119 244 q 393 17 267 17 q 595 130 525 17 q 665 472 665 243 q 594 817 665 704 q 393 931 522 931 q 193 815 267 931 q 119 471 119 700 z "},"Ɔ":{"ha":615,"x_min":28,"x_max":528,"o":"m 242 960 q 451 840 375 960 q 528 472 528 719 q 490 203 528 313 q 384 40 451 94 q 229 -14 317 -14 q 116 10 164 -14 q 28 75 68 33 l 47 94 q 130 37 89 57 q 228 17 171 17 q 365 66 306 17 q 460 217 425 115 q 494 472 494 319 q 426 820 494 710 q 240 931 358 931 q 141 913 185 931 q 54 857 97 894 l 38 879 q 130 939 81 918 q 242 960 179 960 z "},"Ø":{"ha":785,"x_min":88,"x_max":699,"o":"m 517 931 q 651 771 603 886 q 699 472 699 656 q 618 110 699 235 q 393 -14 538 -14 q 292 6 336 -14 l 254 -154 l 224 -144 l 267 17 q 134 178 181 64 q 88 471 88 293 q 126 740 88 629 q 233 905 164 850 q 393 960 301 960 q 492 942 447 960 l 532 1108 l 563 1100 l 517 931 m 119 471 q 161 195 119 301 q 278 46 203 89 l 486 914 q 393 931 443 931 q 193 815 267 931 q 119 471 119 700 m 393 17 q 595 130 525 17 q 665 472 665 243 q 508 903 665 814 l 301 35 q 393 17 342 17 z "},"Ǿ":{"ha":785,"x_min":88,"x_max":699,"o":"m 517 931 q 651 771 603 886 q 699 472 699 656 q 618 110 699 235 q 393 -14 538 -14 q 292 6 336 -14 l 254 -154 l 224 -144 l 267 17 q 134 178 181 64 q 88 471 88 293 q 126 740 88 629 q 233 905 164 850 q 393 960 301 960 q 492 942 447 960 l 532 1108 l 563 1100 l 517 931 m 119 471 q 161 195 119 301 q 278 46 203 89 l 486 914 q 393 931 443 931 q 193 815 267 931 q 119 471 119 700 m 393 17 q 595 130 525 17 q 665 472 665 243 q 508 903 665 814 l 301 35 q 393 17 342 17 m 475 1206 l 490 1175 l 285 1075 l 275 1094 l 475 1206 z "},"Õ":{"ha":785,"x_min":88,"x_max":699,"o":"m 393 960 q 617 838 536 960 q 699 472 699 715 q 619 110 699 233 q 393 -14 539 -14 q 169 110 251 -14 q 88 471 88 233 q 170 835 88 710 q 393 960 253 960 m 393 931 q 193 815 267 931 q 119 471 119 700 q 193 131 119 244 q 393 17 267 17 q 595 130 525 17 q 665 472 665 243 q 594 817 665 704 q 393 931 522 931 m 458 1117 q 422 1125 439 1117 q 383 1150 404 1133 q 367 1161 379 1153 q 344 1174 354 1169 q 325 1178 333 1178 q 291 1167 306 1178 q 258 1129 276 1156 l 239 1140 q 280 1188 260 1172 q 325 1204 300 1204 q 356 1197 342 1204 q 393 1174 369 1190 q 428 1151 414 1158 q 458 1143 443 1143 q 493 1156 478 1143 q 526 1200 508 1169 l 546 1190 q 506 1134 526 1151 q 458 1117 485 1117 z "},"Ṍ":{"ha":785,"x_min":88,"x_max":699,"o":"m 393 960 q 617 838 536 960 q 699 472 699 715 q 619 110 699 233 q 393 -14 539 -14 q 169 110 251 -14 q 88 471 88 233 q 170 835 88 710 q 393 960 253 960 m 393 931 q 193 815 267 931 q 119 471 119 700 q 193 131 119 244 q 393 17 267 17 q 595 130 525 17 q 665 472 665 243 q 594 817 665 704 q 393 931 522 931 m 460 1051 q 423 1060 440 1051 q 385 1085 406 1068 q 368 1096 381 1088 q 345 1108 356 1104 q 326 1113 335 1113 q 292 1101 307 1113 q 260 1064 278 1090 l 240 1075 q 281 1123 261 1107 q 326 1139 301 1139 q 357 1132 343 1139 q 394 1108 371 1125 q 430 1085 415 1093 q 460 1078 444 1078 q 494 1091 479 1078 q 528 1135 510 1104 l 547 1125 q 507 1069 528 1086 q 460 1051 486 1051 m 485 1326 l 500 1296 l 294 1196 l 285 1215 l 485 1326 z "},"Ȭ":{"ha":785,"x_min":88,"x_max":699,"o":"m 393 960 q 617 838 536 960 q 699 472 699 715 q 619 110 699 233 q 393 -14 539 -14 q 169 110 251 -14 q 88 471 88 233 q 170 835 88 710 q 393 960 253 960 m 393 931 q 193 815 267 931 q 119 471 119 700 q 193 131 119 244 q 393 17 267 17 q 595 130 525 17 q 665 472 665 243 q 594 817 665 704 q 393 931 522 931 m 460 1051 q 423 1060 440 1051 q 385 1085 406 1068 q 368 1096 381 1088 q 345 1108 356 1104 q 326 1113 335 1113 q 292 1101 307 1113 q 260 1064 278 1090 l 240 1075 q 281 1123 261 1107 q 326 1139 301 1139 q 357 1132 343 1139 q 394 1108 371 1125 q 430 1085 415 1093 q 460 1078 444 1078 q 494 1091 479 1078 q 528 1135 510 1104 l 547 1125 q 507 1069 528 1086 q 460 1051 486 1051 m 513 1219 l 271 1219 l 271 1247 l 513 1247 l 513 1219 z "},"Œ":{"ha":968,"x_min":88,"x_max":918,"o":"m 918 0 l 453 0 q 378 -14 419 -14 q 227 43 293 -14 q 124 209 161 100 q 88 471 88 318 q 124 734 88 624 q 227 902 161 844 q 378 960 293 960 q 460 946 424 960 l 910 946 l 906 917 l 511 917 q 628 767 586 869 q 672 514 669 664 l 860 514 l 860 485 l 672 485 q 629 191 672 306 q 506 29 586 76 l 918 29 l 918 0 m 119 471 q 152 224 119 326 q 243 69 185 122 q 378 17 301 17 q 571 138 501 17 q 640 489 640 258 q 608 728 640 629 q 516 879 575 828 q 378 931 457 931 q 244 877 303 931 q 153 720 186 824 q 119 471 119 617 z "},"P":{"ha":631,"x_min":139,"x_max":574,"o":"m 254 946 q 497 880 421 946 q 574 672 574 814 q 492 459 574 526 q 250 392 411 392 l 169 392 l 169 0 l 139 0 l 139 946 l 254 946 m 253 421 q 470 479 399 421 q 542 671 542 538 q 474 859 542 801 q 254 917 407 917 l 169 917 l 169 421 l 253 421 z "},"Ṕ":{"ha":631,"x_min":139,"x_max":574,"o":"m 254 946 q 497 880 421 946 q 574 672 574 814 q 492 459 574 526 q 250 392 411 392 l 169 392 l 169 0 l 139 0 l 139 946 l 254 946 m 253 421 q 470 479 399 421 q 542 671 542 538 q 474 859 542 801 q 254 917 407 917 l 169 917 l 169 421 l 253 421 m 411 1192 l 426 1161 l 221 1061 l 211 1081 l 411 1192 z "},"Ṗ":{"ha":631,"x_min":139,"x_max":574,"o":"m 254 946 q 497 880 421 946 q 574 672 574 814 q 492 459 574 526 q 250 392 411 392 l 169 392 l 169 0 l 139 0 l 139 946 l 254 946 m 253 421 q 470 479 399 421 q 542 671 542 538 q 474 859 542 801 q 254 917 407 917 l 169 917 l 169 421 l 253 421 m 321 1181 q 340 1172 332 1181 q 347 1153 347 1164 q 340 1134 347 1142 q 321 1126 332 1126 q 301 1134 308 1126 q 293 1153 293 1142 q 301 1172 293 1164 q 321 1181 308 1181 z "},"Ƥ":{"ha":682,"x_min":25,"x_max":625,"o":"m 306 946 q 549 880 472 946 q 625 672 625 814 q 544 459 625 526 q 301 392 463 392 l 221 392 l 221 0 l 190 0 l 190 918 l 158 918 q 81 890 106 918 q 56 813 56 863 q 64 756 56 781 q 88 704 72 731 l 64 692 q 35 748 44 721 q 25 813 25 775 q 60 910 25 875 q 161 946 94 946 l 306 946 m 304 421 q 522 479 450 421 q 593 671 593 538 q 526 859 593 801 q 306 917 458 917 l 221 917 l 221 421 l 304 421 z "},"Þ":{"ha":631,"x_min":139,"x_max":574,"o":"m 261 769 q 498 703 422 769 q 574 493 574 636 q 494 273 574 342 q 257 204 414 204 l 169 204 l 169 0 l 139 0 l 139 946 l 169 946 l 169 769 l 261 769 m 257 233 q 472 292 401 233 q 542 493 542 351 q 476 683 542 625 q 261 740 410 740 l 169 740 l 169 233 l 257 233 z "},"Q":{"ha":785,"x_min":88,"x_max":722,"o":"m 475 8 q 613 -16 553 6 q 722 -89 674 -37 l 699 -112 q 574 -33 642 -54 q 393 -11 506 -11 q 169 111 251 -11 q 88 471 88 233 q 126 740 88 631 q 233 905 164 850 q 393 960 301 960 q 617 838 536 960 q 699 472 699 715 q 475 8 699 65 m 119 471 q 193 131 119 244 q 393 17 267 17 q 595 130 525 17 q 665 472 665 243 q 594 817 665 704 q 393 931 522 931 q 193 815 267 931 q 119 471 119 700 z "},"Ɋ":{"ha":746,"x_min":88,"x_max":789,"o":"m 789 -232 q 683 -274 742 -274 q 602 -240 633 -274 q 571 -142 571 -207 l 571 96 q 378 -14 496 -14 q 167 104 247 -14 q 88 457 88 222 q 168 833 88 707 q 382 960 249 960 q 572 865 499 960 l 575 946 l 603 946 l 603 -142 q 685 -244 603 -244 q 772 -210 735 -244 l 789 -232 m 378 17 q 571 139 497 17 l 571 825 q 382 931 500 931 q 192 813 264 931 q 119 457 119 696 q 190 126 119 235 q 378 17 261 17 z "},"R":{"ha":654,"x_min":139,"x_max":606,"o":"m 571 0 l 356 453 q 306 450 322 450 l 169 450 l 169 0 l 139 0 l 139 946 l 288 946 q 503 883 436 946 q 569 700 569 819 q 522 540 569 601 q 386 458 474 478 l 606 0 l 571 0 m 300 479 q 536 700 536 479 q 479 863 536 808 q 285 917 422 917 l 169 917 l 169 479 l 300 479 z "},"Ŕ":{"ha":654,"x_min":139,"x_max":606,"o":"m 571 0 l 356 453 q 306 450 322 450 l 169 450 l 169 0 l 139 0 l 139 946 l 288 946 q 503 883 436 946 q 569 700 569 819 q 522 540 569 601 q 386 458 474 478 l 606 0 l 571 0 m 300 479 q 536 700 536 479 q 479 863 536 808 q 285 917 422 917 l 169 917 l 169 479 l 300 479 m 415 1192 l 431 1161 l 225 1061 l 215 1081 l 415 1192 z "},"Ř":{"ha":654,"x_min":139,"x_max":606,"o":"m 571 0 l 356 453 q 306 450 322 450 l 169 450 l 169 0 l 139 0 l 139 946 l 288 946 q 503 883 436 946 q 569 700 569 819 q 522 540 569 601 q 386 458 474 478 l 606 0 l 571 0 m 300 479 q 536 700 536 479 q 479 863 536 808 q 285 917 422 917 l 169 917 l 169 479 l 300 479 m 456 1199 l 468 1183 l 331 1056 l 314 1056 l 176 1183 l 190 1199 l 322 1088 l 456 1199 z "},"Ŗ":{"ha":654,"x_min":139,"x_max":606,"o":"m 571 0 l 356 453 q 306 450 322 450 l 169 450 l 169 0 l 139 0 l 139 946 l 288 946 q 503 883 436 946 q 569 700 569 819 q 522 540 569 601 q 386 458 474 478 l 606 0 l 571 0 m 300 479 q 536 700 536 479 q 479 863 536 808 q 285 917 422 917 l 169 917 l 169 479 l 300 479 m 344 -133 q 368 -142 360 -133 q 376 -165 376 -150 q 369 -199 376 -179 q 360 -228 363 -219 l 319 -358 l 299 -358 l 335 -197 q 313 -165 313 -187 q 321 -142 313 -151 q 344 -133 329 -133 z "},"Ȑ":{"ha":654,"x_min":139,"x_max":606,"o":"m 571 0 l 356 453 q 306 450 322 450 l 169 450 l 169 0 l 139 0 l 139 946 l 288 946 q 503 883 436 946 q 569 700 569 819 q 522 540 569 601 q 386 458 474 478 l 606 0 l 571 0 m 300 479 q 536 700 536 479 q 479 863 536 808 q 285 917 422 917 l 169 917 l 169 479 l 300 479 m 189 1274 l 271 1090 l 250 1081 l 160 1260 l 189 1274 m 317 1272 l 392 1096 l 371 1086 l 288 1258 l 317 1272 z "},"Ṛ":{"ha":654,"x_min":139,"x_max":606,"o":"m 571 0 l 356 453 q 306 450 322 450 l 169 450 l 169 0 l 139 0 l 139 946 l 288 946 q 503 883 436 946 q 569 700 569 819 q 522 540 569 601 q 386 458 474 478 l 606 0 l 571 0 m 300 479 q 536 700 536 479 q 479 863 536 808 q 285 917 422 917 l 169 917 l 169 479 l 300 479 m 346 -192 q 327 -183 335 -192 q 319 -164 319 -175 q 327 -145 319 -153 q 346 -137 335 -137 q 366 -145 358 -137 q 374 -164 374 -153 q 366 -183 374 -175 q 346 -192 358 -192 z "},"Ȓ":{"ha":654,"x_min":139,"x_max":606,"o":"m 571 0 l 356 453 q 306 450 322 450 l 169 450 l 169 0 l 139 0 l 139 946 l 288 946 q 503 883 436 946 q 569 700 569 819 q 522 540 569 601 q 386 458 474 478 l 606 0 l 571 0 m 300 479 q 536 700 536 479 q 479 863 536 808 q 285 917 422 917 l 169 917 l 169 479 l 300 479 m 324 1232 q 409 1200 375 1232 q 450 1113 443 1168 l 428 1107 q 324 1203 408 1203 q 219 1107 242 1203 l 197 1113 q 239 1200 206 1168 q 324 1232 272 1232 z "},"Ɍ":{"ha":650,"x_min":29,"x_max":601,"o":"m 567 0 l 351 453 q 301 450 318 450 l 165 450 l 165 0 l 135 0 l 135 450 l 29 450 l 29 479 l 135 479 l 135 946 l 283 946 q 499 883 432 946 q 565 700 565 819 q 517 540 565 601 q 382 458 469 478 l 601 0 l 567 0 m 296 479 q 532 700 532 479 q 475 863 532 808 q 281 917 418 917 l 165 917 l 165 479 l 296 479 z "},"Ɽ":{"ha":654,"x_min":139,"x_max":606,"o":"m 169 450 l 169 1 l 171 1 l 171 -142 q 253 -244 171 -244 q 340 -210 303 -244 l 357 -232 q 251 -274 310 -274 q 170 -240 201 -274 q 139 -142 139 -207 l 139 946 l 288 946 q 503 883 436 946 q 569 700 569 819 q 522 540 569 601 q 386 458 474 478 l 606 0 l 571 0 l 356 453 q 306 450 322 450 l 169 450 m 169 917 l 169 479 l 300 479 q 536 700 536 479 q 479 863 536 808 q 285 917 422 917 l 169 917 z "},"S":{"ha":611,"x_min":60,"x_max":535,"o":"m 303 960 q 418 935 371 960 q 510 864 465 911 l 490 844 q 404 910 447 889 q 303 931 361 931 q 172 876 222 931 q 121 742 121 822 q 163 613 121 661 q 314 524 206 565 q 483 418 432 478 q 535 253 535 358 q 504 117 535 178 q 419 21 474 56 q 294 -14 364 -14 q 165 15 221 -14 q 60 100 110 44 l 81 118 q 176 42 126 68 q 293 17 225 17 q 445 83 388 17 q 503 251 503 149 q 458 401 503 349 q 303 497 414 453 q 137 599 185 544 q 89 742 89 653 q 116 850 89 800 q 192 930 143 900 q 303 960 240 960 z "},"Ś":{"ha":611,"x_min":60,"x_max":535,"o":"m 303 960 q 418 935 371 960 q 510 864 465 911 l 490 844 q 404 910 447 889 q 303 931 361 931 q 172 876 222 931 q 121 742 121 822 q 163 613 121 661 q 314 524 206 565 q 483 418 432 478 q 535 253 535 358 q 504 117 535 178 q 419 21 474 56 q 294 -14 364 -14 q 165 15 221 -14 q 60 100 110 44 l 81 118 q 176 42 126 68 q 293 17 225 17 q 445 83 388 17 q 503 251 503 149 q 458 401 503 349 q 303 497 414 453 q 137 599 185 544 q 89 742 89 653 q 116 850 89 800 q 192 930 143 900 q 303 960 240 960 m 400 1192 l 415 1161 l 210 1061 l 200 1081 l 400 1192 z "},"Ꞌ":{"ha":235,"x_min":101,"x_max":135,"o":"m 104 501 l 101 946 l 135 946 l 131 501 l 104 501 z "},"Š":{"ha":611,"x_min":60,"x_max":535,"o":"m 303 960 q 418 935 371 960 q 510 864 465 911 l 490 844 q 404 910 447 889 q 303 931 361 931 q 172 876 222 931 q 121 742 121 822 q 163 613 121 661 q 314 524 206 565 q 483 418 432 478 q 535 253 535 358 q 504 117 535 178 q 419 21 474 56 q 294 -14 364 -14 q 165 15 221 -14 q 60 100 110 44 l 81 118 q 176 42 126 68 q 293 17 225 17 q 445 83 388 17 q 503 251 503 149 q 458 401 503 349 q 303 497 414 453 q 137 599 185 544 q 89 742 89 653 q 116 850 89 800 q 192 930 143 900 q 303 960 240 960 m 440 1199 l 453 1183 l 315 1056 l 299 1056 l 161 1183 l 175 1199 l 307 1088 l 440 1199 z "},"Ş":{"ha":611,"x_min":60,"x_max":535,"o":"m 535 253 q 505 119 535 179 q 423 24 475 60 q 304 -14 371 -11 l 301 -103 q 406 -196 406 -114 q 377 -269 406 -243 q 307 -294 349 -294 q 228 -269 263 -294 l 242 -247 q 307 -268 271 -268 q 357 -250 338 -268 q 376 -196 376 -232 q 352 -143 376 -160 q 274 -125 328 -126 l 279 -14 q 159 18 211 -11 q 60 100 107 47 l 81 118 q 176 42 126 68 q 293 17 225 17 q 445 83 388 17 q 503 251 503 149 q 458 401 503 349 q 303 497 414 453 q 137 599 185 544 q 89 742 89 653 q 116 850 89 800 q 192 930 143 900 q 303 960 240 960 q 418 935 371 960 q 510 864 465 911 l 490 844 q 404 910 447 889 q 303 931 361 931 q 172 876 222 931 q 121 742 121 822 q 163 613 121 661 q 314 524 206 565 q 483 418 432 478 q 535 253 535 358 z "},"Ŝ":{"ha":611,"x_min":60,"x_max":535,"o":"m 303 960 q 418 935 371 960 q 510 864 465 911 l 490 844 q 404 910 447 889 q 303 931 361 931 q 172 876 222 931 q 121 742 121 822 q 163 613 121 661 q 314 524 206 565 q 483 418 432 478 q 535 253 535 358 q 504 117 535 178 q 419 21 474 56 q 294 -14 364 -14 q 165 15 221 -14 q 60 100 110 44 l 81 118 q 176 42 126 68 q 293 17 225 17 q 445 83 388 17 q 503 251 503 149 q 458 401 503 349 q 303 497 414 453 q 137 599 185 544 q 89 742 89 653 q 116 850 89 800 q 192 930 143 900 q 303 960 240 960 m 176 1065 l 161 1081 l 299 1207 l 315 1207 l 454 1081 l 438 1065 l 307 1175 l 176 1065 z "},"Ș":{"ha":611,"x_min":60,"x_max":535,"o":"m 303 960 q 418 935 371 960 q 510 864 465 911 l 490 844 q 404 910 447 889 q 303 931 361 931 q 172 876 222 931 q 121 742 121 822 q 163 613 121 661 q 314 524 206 565 q 483 418 432 478 q 535 253 535 358 q 504 117 535 178 q 419 21 474 56 q 294 -14 364 -14 q 165 15 221 -14 q 60 100 110 44 l 81 118 q 176 42 126 68 q 293 17 225 17 q 445 83 388 17 q 503 251 503 149 q 458 401 503 349 q 303 497 414 453 q 137 599 185 544 q 89 742 89 653 q 116 850 89 800 q 192 930 143 900 q 303 960 240 960 m 296 -133 q 319 -142 311 -133 q 328 -165 328 -150 q 321 -199 328 -179 q 311 -228 314 -219 l 271 -358 l 250 -358 l 286 -197 q 264 -165 264 -187 q 272 -142 264 -151 q 296 -133 281 -133 z "},"Ṡ":{"ha":611,"x_min":60,"x_max":535,"o":"m 303 960 q 418 935 371 960 q 510 864 465 911 l 490 844 q 404 910 447 889 q 303 931 361 931 q 172 876 222 931 q 121 742 121 822 q 163 613 121 661 q 314 524 206 565 q 483 418 432 478 q 535 253 535 358 q 504 117 535 178 q 419 21 474 56 q 294 -14 364 -14 q 165 15 221 -14 q 60 100 110 44 l 81 118 q 176 42 126 68 q 293 17 225 17 q 445 83 388 17 q 503 251 503 149 q 458 401 503 349 q 303 497 414 453 q 137 599 185 544 q 89 742 89 653 q 116 850 89 800 q 192 930 143 900 q 303 960 240 960 m 310 1181 q 328 1172 321 1181 q 336 1153 336 1164 q 328 1134 336 1142 q 310 1126 321 1126 q 290 1134 297 1126 q 282 1153 282 1142 q 290 1172 282 1164 q 310 1181 297 1181 z "},"Ṣ":{"ha":611,"x_min":60,"x_max":535,"o":"m 303 960 q 418 935 371 960 q 510 864 465 911 l 490 844 q 404 910 447 889 q 303 931 361 931 q 172 876 222 931 q 121 742 121 822 q 163 613 121 661 q 314 524 206 565 q 483 418 432 478 q 535 253 535 358 q 504 117 535 178 q 419 21 474 56 q 294 -14 364 -14 q 165 15 221 -14 q 60 100 110 44 l 81 118 q 176 42 126 68 q 293 17 225 17 q 445 83 388 17 q 503 251 503 149 q 458 401 503 349 q 303 497 414 453 q 137 599 185 544 q 89 742 89 653 q 116 850 89 800 q 192 930 143 900 q 303 960 240 960 m 297 -192 q 278 -183 286 -192 q 271 -164 271 -175 q 278 -145 271 -153 q 297 -137 286 -137 q 317 -145 310 -137 q 325 -164 325 -153 q 317 -183 325 -175 q 297 -192 310 -192 z "},"ẞ":{"ha":726,"x_min":139,"x_max":658,"o":"m 367 960 q 492 940 432 960 q 622 882 553 921 l 622 857 l 379 531 q 590 442 521 511 q 658 249 658 374 q 601 57 658 128 q 443 -14 543 -14 q 314 17 365 -14 l 325 42 q 442 15 381 15 q 577 76 528 15 q 626 249 626 138 q 560 428 626 367 q 349 506 493 489 l 349 535 l 593 867 q 478 914 532 897 q 367 931 425 931 q 221 875 272 931 q 169 711 169 819 l 169 0 l 139 0 l 139 715 q 199 895 139 831 q 367 960 260 960 z "},"Ə":{"ha":735,"x_min":74,"x_max":647,"o":"m 365 960 q 575 847 503 960 q 647 468 647 733 q 571 102 647 218 q 360 -14 494 -14 q 149 101 224 -14 q 74 451 74 215 q 75 499 74 481 l 614 499 q 546 832 608 733 q 365 931 483 931 q 249 907 300 931 q 144 831 197 883 l 125 850 q 236 933 179 907 q 365 960 293 960 m 361 17 q 614 471 613 17 l 107 471 q 361 17 103 17 z "},"T":{"ha":544,"x_min":18,"x_max":529,"o":"m 529 946 l 526 917 l 289 917 l 289 0 l 257 0 l 257 917 l 18 917 l 18 946 l 529 946 z "},"Ŧ":{"ha":544,"x_min":18,"x_max":529,"o":"m 526 917 l 289 917 l 289 528 l 431 528 l 431 500 l 289 500 l 289 0 l 257 0 l 257 500 l 115 500 l 115 528 l 257 528 l 257 917 l 18 917 l 18 946 l 529 946 l 526 917 z "},"Ť":{"ha":544,"x_min":18,"x_max":529,"o":"m 529 946 l 526 917 l 289 917 l 289 0 l 257 0 l 257 917 l 18 917 l 18 946 l 529 946 m 404 1199 l 417 1183 l 279 1056 l 263 1056 l 125 1183 l 139 1199 l 271 1088 l 404 1199 z "},"Ţ":{"ha":544,"x_min":18,"x_max":529,"o":"m 286 -103 q 390 -194 390 -110 q 361 -268 390 -242 q 292 -294 332 -294 q 213 -269 247 -294 l 225 -246 q 290 -267 253 -267 q 340 -249 321 -267 q 360 -194 360 -231 q 335 -143 360 -160 q 258 -125 311 -126 l 265 0 l 257 0 l 257 917 l 18 917 l 18 946 l 529 946 l 526 917 l 289 917 l 289 0 l 286 -103 z "},"Ṱ":{"ha":544,"x_min":18,"x_max":529,"o":"m 529 946 l 526 917 l 289 917 l 289 0 l 257 0 l 257 917 l 18 917 l 18 946 l 529 946 m 142 -253 l 126 -239 l 264 -104 l 282 -104 l 418 -239 l 403 -253 l 272 -136 l 142 -253 z "},"Ț":{"ha":544,"x_min":18,"x_max":529,"o":"m 529 946 l 526 917 l 289 917 l 289 0 l 257 0 l 257 917 l 18 917 l 18 946 l 529 946 m 269 -133 q 293 -142 285 -133 q 301 -165 301 -150 q 294 -199 301 -179 q 285 -228 288 -219 l 244 -358 l 224 -358 l 260 -197 q 238 -165 238 -187 q 246 -142 238 -151 q 269 -133 254 -133 z "},"Ⱦ":{"ha":544,"x_min":18,"x_max":529,"o":"m 526 915 l 393 915 l 288 481 l 288 0 l 257 0 l 257 354 l 149 -92 l 125 -87 l 257 454 l 257 915 l 18 915 l 18 946 l 376 946 l 396 1024 l 418 1018 l 400 946 l 529 946 l 526 915 m 288 579 l 369 915 l 288 915 l 288 579 z "},"Ṫ":{"ha":544,"x_min":18,"x_max":529,"o":"m 529 946 l 526 917 l 289 917 l 289 0 l 257 0 l 257 917 l 18 917 l 18 946 l 529 946 m 274 1181 q 292 1172 285 1181 q 300 1153 300 1164 q 292 1134 300 1142 q 274 1126 285 1126 q 253 1134 261 1126 q 246 1153 246 1142 q 253 1172 246 1164 q 274 1181 261 1181 z "},"Ṭ":{"ha":544,"x_min":18,"x_max":529,"o":"m 529 946 l 526 917 l 289 917 l 289 0 l 257 0 l 257 917 l 18 917 l 18 946 l 529 946 m 271 -192 q 252 -183 260 -192 q 244 -164 244 -175 q 252 -145 244 -153 q 271 -137 260 -137 q 291 -145 283 -137 q 299 -164 299 -153 q 291 -183 299 -175 q 271 -192 283 -192 z "},"Ƭ":{"ha":569,"x_min":25,"x_max":556,"o":"m 550 915 l 313 915 l 313 0 l 281 0 l 281 915 l 161 915 q 56 813 56 915 q 64 756 56 781 q 88 706 72 731 l 64 692 q 35 747 44 721 q 25 813 25 774 q 60 911 25 876 q 168 946 96 946 l 556 946 l 550 915 z "},"Ṯ":{"ha":544,"x_min":18,"x_max":529,"o":"m 529 946 l 526 917 l 289 917 l 289 0 l 257 0 l 257 917 l 18 917 l 18 946 l 529 946 m 394 -193 l 153 -193 l 153 -165 l 394 -165 l 394 -193 z "},"Ƽ":{"ha":554,"x_min":49,"x_max":488,"o":"m 458 918 l 128 918 l 128 536 q 198 576 164 563 q 276 590 232 590 q 431 515 375 590 q 488 304 488 440 q 426 72 488 158 q 258 -14 364 -14 q 143 13 193 -14 q 49 90 93 39 l 71 108 q 155 38 110 61 q 260 15 200 15 q 404 92 351 15 q 457 304 457 169 q 407 497 457 432 q 272 561 357 561 q 196 548 228 561 q 124 506 164 535 l 100 506 l 100 946 l 464 946 l 458 918 z "},"Ƅ":{"ha":629,"x_min":99,"x_max":575,"o":"m 293 567 q 575 294 575 567 q 502 73 575 146 q 293 0 429 0 l 139 0 l 139 815 l 99 846 q 142 946 131 888 l 169 946 l 169 567 l 293 567 m 300 29 q 481 94 419 29 q 542 296 542 160 q 480 478 542 419 q 294 538 418 538 l 169 538 l 169 29 l 300 29 z "},"Ƨ":{"ha":604,"x_min":76,"x_max":544,"o":"m 321 960 q 467 901 413 960 q 522 750 522 842 q 501 641 522 685 q 435 565 481 597 q 308 499 389 532 q 190 435 233 468 q 128 358 147 403 q 108 243 108 313 q 165 78 108 139 q 308 17 221 17 q 428 43 378 17 q 524 121 478 69 l 544 100 q 438 15 494 44 q 308 -14 382 -14 q 189 18 242 -14 q 106 108 136 50 q 76 243 76 167 q 128 416 76 354 q 297 525 179 478 q 413 583 372 554 q 471 651 453 613 q 489 750 489 690 q 444 881 489 832 q 321 931 400 931 q 213 909 260 931 q 119 842 167 888 l 101 864 q 201 936 151 913 q 321 960 251 960 z "},"Ʈ":{"ha":544,"x_min":18,"x_max":529,"o":"m 289 -142 q 371 -244 289 -244 q 458 -210 421 -244 l 475 -232 q 369 -274 428 -274 q 288 -240 319 -274 q 257 -142 257 -207 l 257 917 l 18 917 l 18 946 l 529 946 l 526 917 l 289 917 l 289 -142 z "},"U":{"ha":726,"x_min":125,"x_max":601,"o":"m 601 239 q 542 57 601 128 q 364 -14 482 -14 q 184 57 243 -14 q 125 239 125 128 l 125 946 l 156 946 l 156 242 q 207 78 156 140 q 364 17 258 17 q 520 79 469 17 q 571 242 571 142 l 571 946 l 601 946 l 601 239 z "},"Ú":{"ha":726,"x_min":125,"x_max":601,"o":"m 601 239 q 542 57 601 128 q 364 -14 482 -14 q 184 57 243 -14 q 125 239 125 128 l 125 946 l 156 946 l 156 242 q 207 78 156 140 q 364 17 258 17 q 520 79 469 17 q 571 242 571 142 l 571 946 l 601 946 l 601 239 m 456 1192 l 471 1161 l 265 1061 l 256 1081 l 456 1192 z "},"Ʉ":{"ha":760,"x_min":72,"x_max":688,"o":"m 688 722 l 618 722 l 618 239 q 558 57 618 128 q 381 -14 499 -14 q 201 57 260 -14 q 142 239 142 128 l 142 722 l 72 722 l 72 747 l 142 747 l 142 946 l 172 946 l 172 747 l 588 747 l 588 946 l 618 946 l 618 747 l 688 747 l 688 722 m 588 722 l 172 722 l 172 242 q 224 78 172 140 q 381 17 275 17 q 537 79 486 17 q 588 242 588 142 l 588 722 z "},"Ŭ":{"ha":726,"x_min":125,"x_max":601,"o":"m 601 239 q 542 57 601 128 q 364 -14 482 -14 q 184 57 243 -14 q 125 239 125 128 l 125 946 l 156 946 l 156 242 q 207 78 156 140 q 364 17 258 17 q 520 79 469 17 q 571 242 571 142 l 571 946 l 601 946 l 601 239 m 364 1071 q 280 1101 314 1071 q 238 1176 246 1131 l 260 1182 q 298 1122 271 1144 q 364 1100 325 1100 q 430 1122 403 1100 q 469 1182 457 1144 l 490 1176 q 449 1101 483 1131 q 364 1071 414 1071 z "},"Ǔ":{"ha":726,"x_min":125,"x_max":601,"o":"m 601 239 q 542 57 601 128 q 364 -14 482 -14 q 184 57 243 -14 q 125 239 125 128 l 125 946 l 156 946 l 156 242 q 207 78 156 140 q 364 17 258 17 q 520 79 469 17 q 571 242 571 142 l 571 946 l 601 946 l 601 239 m 496 1199 l 508 1183 l 371 1056 l 354 1056 l 217 1183 l 231 1199 l 363 1088 l 496 1199 z "},"Û":{"ha":726,"x_min":125,"x_max":601,"o":"m 601 239 q 542 57 601 128 q 364 -14 482 -14 q 184 57 243 -14 q 125 239 125 128 l 125 946 l 156 946 l 156 242 q 207 78 156 140 q 364 17 258 17 q 520 79 469 17 q 571 242 571 142 l 571 946 l 601 946 l 601 239 m 232 1065 l 217 1081 l 354 1207 l 371 1207 l 510 1081 l 493 1065 l 363 1175 l 232 1065 z "},"Ȕ":{"ha":726,"x_min":125,"x_max":601,"o":"m 601 239 q 542 57 601 128 q 364 -14 482 -14 q 184 57 243 -14 q 125 239 125 128 l 125 946 l 156 946 l 156 242 q 207 78 156 140 q 364 17 258 17 q 520 79 469 17 q 571 242 571 142 l 571 946 l 601 946 l 601 239 m 229 1274 l 311 1090 l 290 1081 l 200 1260 l 229 1274 m 357 1272 l 432 1096 l 411 1086 l 328 1258 l 357 1272 z "},"Ü":{"ha":726,"x_min":125,"x_max":601,"o":"m 601 239 q 542 57 601 128 q 364 -14 482 -14 q 184 57 243 -14 q 125 239 125 128 l 125 946 l 156 946 l 156 242 q 207 78 156 140 q 364 17 258 17 q 520 79 469 17 q 571 242 571 142 l 571 946 l 601 946 l 601 239 m 275 1164 q 294 1156 288 1164 q 301 1136 301 1149 q 294 1117 301 1125 q 275 1110 288 1110 q 256 1117 264 1110 q 249 1136 249 1125 q 256 1156 249 1147 q 275 1164 264 1164 m 468 1164 q 487 1156 479 1164 q 494 1136 494 1147 q 487 1117 494 1125 q 468 1110 479 1110 q 448 1117 456 1110 q 440 1136 440 1125 q 448 1156 440 1147 q 468 1164 456 1164 z "},"Ǘ":{"ha":726,"x_min":125,"x_max":601,"o":"m 601 239 q 542 57 601 128 q 364 -14 482 -14 q 184 57 243 -14 q 125 239 125 128 l 125 946 l 156 946 l 156 242 q 207 78 156 140 q 364 17 258 17 q 520 79 469 17 q 571 242 571 142 l 571 946 l 601 946 l 601 239 m 457 1279 l 483 1260 l 361 1100 l 343 1113 l 457 1279 m 268 1085 q 288 1077 281 1085 q 294 1058 294 1069 q 288 1038 294 1046 q 268 1031 281 1031 q 249 1039 257 1031 q 242 1058 242 1047 q 249 1077 242 1069 q 268 1085 257 1085 m 461 1085 q 480 1077 472 1085 q 488 1058 488 1069 q 480 1039 488 1047 q 461 1031 472 1031 q 441 1039 449 1031 q 433 1058 433 1047 q 441 1077 433 1069 q 461 1085 449 1085 z "},"Ǚ":{"ha":726,"x_min":125,"x_max":601,"o":"m 601 239 q 542 57 601 128 q 364 -14 482 -14 q 184 57 243 -14 q 125 239 125 128 l 125 946 l 156 946 l 156 242 q 207 78 156 140 q 364 17 258 17 q 520 79 469 17 q 571 242 571 142 l 571 946 l 601 946 l 601 239 m 494 1242 l 507 1226 l 369 1099 l 353 1099 l 215 1226 l 229 1242 l 361 1131 l 494 1242 m 267 1085 q 287 1077 279 1085 q 294 1058 294 1069 q 287 1038 294 1046 q 267 1031 279 1031 q 248 1039 256 1031 q 240 1058 240 1047 q 248 1077 240 1069 q 267 1085 256 1085 m 460 1085 q 480 1077 472 1085 q 488 1058 488 1069 q 480 1039 488 1047 q 460 1031 472 1031 q 440 1039 447 1031 q 432 1058 432 1047 q 440 1077 432 1069 q 460 1085 447 1085 z "},"Ǜ":{"ha":726,"x_min":125,"x_max":601,"o":"m 601 239 q 542 57 601 128 q 364 -14 482 -14 q 184 57 243 -14 q 125 239 125 128 l 125 946 l 156 946 l 156 242 q 207 78 156 140 q 364 17 258 17 q 520 79 469 17 q 571 242 571 142 l 571 946 l 601 946 l 601 239 m 281 1279 l 394 1113 l 376 1100 l 254 1260 l 281 1279 m 267 1085 q 286 1077 279 1085 q 293 1058 293 1069 q 286 1038 293 1046 q 267 1031 279 1031 q 248 1039 256 1031 q 240 1058 240 1047 q 248 1077 240 1069 q 267 1085 256 1085 m 460 1085 q 478 1077 471 1085 q 486 1058 486 1069 q 478 1039 486 1047 q 460 1031 471 1031 q 440 1039 447 1031 q 432 1058 432 1047 q 440 1077 432 1069 q 460 1085 447 1085 z "},"Ǖ":{"ha":726,"x_min":125,"x_max":601,"o":"m 601 239 q 542 57 601 128 q 364 -14 482 -14 q 184 57 243 -14 q 125 239 125 128 l 125 946 l 156 946 l 156 242 q 207 78 156 140 q 364 17 258 17 q 520 79 469 17 q 571 242 571 142 l 571 946 l 601 946 l 601 239 m 267 1085 q 286 1077 279 1085 q 293 1057 293 1069 q 286 1038 293 1046 q 267 1031 279 1031 q 248 1038 256 1031 q 240 1057 240 1046 q 248 1076 240 1068 q 267 1085 256 1085 m 460 1085 q 478 1076 471 1085 q 486 1057 486 1068 q 478 1038 486 1046 q 460 1031 471 1031 q 440 1038 447 1031 q 432 1057 432 1046 q 440 1076 432 1068 q 460 1085 447 1085 m 485 1181 l 243 1181 l 243 1208 l 485 1208 l 485 1181 z "},"Ụ":{"ha":726,"x_min":125,"x_max":601,"o":"m 601 239 q 542 57 601 128 q 364 -14 482 -14 q 184 57 243 -14 q 125 239 125 128 l 125 946 l 156 946 l 156 242 q 207 78 156 140 q 364 17 258 17 q 520 79 469 17 q 571 242 571 142 l 571 946 l 601 946 l 601 239 m 363 -192 q 344 -183 351 -192 q 336 -164 336 -175 q 344 -145 336 -153 q 363 -137 351 -137 q 383 -145 375 -137 q 390 -164 390 -153 q 383 -183 390 -175 q 363 -192 375 -192 z "},"Ù":{"ha":726,"x_min":125,"x_max":601,"o":"m 601 239 q 542 57 601 128 q 364 -14 482 -14 q 184 57 243 -14 q 125 239 125 128 l 125 946 l 156 946 l 156 242 q 207 78 156 140 q 364 17 258 17 q 520 79 469 17 q 571 242 571 142 l 571 946 l 601 946 l 601 239 m 274 1190 l 472 1079 l 461 1060 l 257 1161 l 274 1190 z "},"Ủ":{"ha":726,"x_min":125,"x_max":601,"o":"m 601 239 q 542 57 601 128 q 364 -14 482 -14 q 184 57 243 -14 q 125 239 125 128 l 125 946 l 156 946 l 156 242 q 207 78 156 140 q 364 17 258 17 q 520 79 469 17 q 571 242 571 142 l 571 946 l 601 946 l 601 239 m 350 1165 q 426 1238 426 1168 q 410 1285 426 1268 q 367 1301 394 1301 q 304 1282 335 1301 l 292 1304 q 371 1329 328 1329 q 433 1304 410 1329 q 457 1238 457 1279 q 378 1146 457 1156 l 378 1086 l 350 1086 l 350 1165 z "},"Ư":{"ha":726,"x_min":125,"x_max":694,"o":"m 675 1063 q 694 953 694 1007 q 672 875 694 900 q 601 846 650 850 l 601 239 q 542 57 601 128 q 364 -14 482 -14 q 184 57 243 -14 q 125 239 125 128 l 125 946 l 156 946 l 156 242 q 207 78 156 140 q 364 17 258 17 q 520 79 469 17 q 571 242 571 142 l 571 946 l 601 946 l 601 868 q 652 893 638 875 q 667 953 667 911 q 651 1053 667 1000 l 675 1063 z "},"Ứ":{"ha":726,"x_min":125,"x_max":694,"o":"m 471 1161 l 265 1061 l 256 1081 l 456 1192 l 471 1161 m 675 1063 q 694 953 694 1007 q 672 875 694 900 q 601 846 650 850 l 601 239 q 542 57 601 128 q 364 -14 482 -14 q 184 57 243 -14 q 125 239 125 128 l 125 946 l 156 946 l 156 242 q 207 78 156 140 q 364 17 258 17 q 520 79 469 17 q 571 242 571 142 l 571 946 l 601 946 l 601 868 q 652 893 638 875 q 667 953 667 911 q 651 1053 667 1000 l 675 1063 z "},"Ự":{"ha":726,"x_min":125,"x_max":694,"o":"m 675 1063 q 694 953 694 1007 q 672 875 694 900 q 601 846 650 850 l 601 239 q 542 57 601 128 q 364 -14 482 -14 q 184 57 243 -14 q 125 239 125 128 l 125 946 l 156 946 l 156 242 q 207 78 156 140 q 364 17 258 17 q 520 79 469 17 q 571 242 571 142 l 571 946 l 601 946 l 601 868 q 652 893 638 875 q 667 953 667 911 q 651 1053 667 1000 l 675 1063 m 363 -137 q 383 -145 375 -137 q 390 -164 390 -153 q 383 -183 390 -175 q 363 -192 375 -192 q 344 -183 351 -192 q 336 -164 336 -175 q 344 -145 336 -153 q 363 -137 351 -137 z "},"Ừ":{"ha":726,"x_min":125,"x_max":694,"o":"m 472 1079 l 461 1060 l 257 1161 l 274 1190 l 472 1079 m 675 1063 q 694 953 694 1007 q 672 875 694 900 q 601 846 650 850 l 601 239 q 542 57 601 128 q 364 -14 482 -14 q 184 57 243 -14 q 125 239 125 128 l 125 946 l 156 946 l 156 242 q 207 78 156 140 q 364 17 258 17 q 520 79 469 17 q 571 242 571 142 l 571 946 l 601 946 l 601 868 q 652 893 638 875 q 667 953 667 911 q 651 1053 667 1000 l 675 1063 z "},"Ử":{"ha":726,"x_min":125,"x_max":694,"o":"m 367 1301 q 304 1282 335 1301 l 292 1304 q 371 1329 328 1329 q 433 1304 410 1329 q 457 1238 457 1279 q 378 1146 457 1156 l 378 1086 l 350 1086 l 350 1165 q 426 1238 426 1168 q 410 1285 426 1268 q 367 1301 394 1301 m 675 1063 q 694 953 694 1007 q 672 875 694 900 q 601 846 650 850 l 601 239 q 542 57 601 128 q 364 -14 482 -14 q 184 57 243 -14 q 125 239 125 128 l 125 946 l 156 946 l 156 242 q 207 78 156 140 q 364 17 258 17 q 520 79 469 17 q 571 242 571 142 l 571 946 l 601 946 l 601 868 q 652 893 638 875 q 667 953 667 911 q 651 1053 667 1000 l 675 1063 z "},"Ữ":{"ha":726,"x_min":125,"x_max":694,"o":"m 296 1178 q 262 1167 276 1178 q 229 1129 247 1156 l 210 1140 q 251 1188 231 1172 q 296 1204 271 1204 q 326 1197 313 1204 q 364 1174 340 1190 q 399 1151 385 1158 q 429 1143 414 1143 q 464 1156 449 1143 q 497 1200 479 1169 l 517 1190 q 476 1134 497 1151 q 429 1117 456 1117 q 392 1125 410 1117 q 354 1150 375 1133 q 338 1161 350 1153 q 315 1174 325 1169 q 296 1178 304 1178 m 675 1063 q 694 953 694 1007 q 672 875 694 900 q 601 846 650 850 l 601 239 q 542 57 601 128 q 364 -14 482 -14 q 184 57 243 -14 q 125 239 125 128 l 125 946 l 156 946 l 156 242 q 207 78 156 140 q 364 17 258 17 q 520 79 469 17 q 571 242 571 142 l 571 946 l 601 946 l 601 868 q 652 893 638 875 q 667 953 667 911 q 651 1053 667 1000 l 675 1063 z "},"Ű":{"ha":726,"x_min":125,"x_max":601,"o":"m 601 239 q 542 57 601 128 q 364 -14 482 -14 q 184 57 243 -14 q 125 239 125 128 l 125 946 l 156 946 l 156 242 q 207 78 156 140 q 364 17 258 17 q 520 79 469 17 q 571 242 571 142 l 571 946 l 601 946 l 601 239 m 486 1274 l 515 1260 l 425 1081 l 404 1090 l 486 1274 m 358 1272 l 388 1258 l 304 1086 l 283 1096 l 358 1272 z "},"Ȗ":{"ha":726,"x_min":125,"x_max":601,"o":"m 601 239 q 542 57 601 128 q 364 -14 482 -14 q 184 57 243 -14 q 125 239 125 128 l 125 946 l 156 946 l 156 242 q 207 78 156 140 q 364 17 258 17 q 520 79 469 17 q 571 242 571 142 l 571 946 l 601 946 l 601 239 m 364 1232 q 449 1200 415 1232 q 490 1113 483 1168 l 468 1107 q 364 1203 449 1203 q 260 1107 282 1203 l 238 1113 q 279 1200 246 1168 q 364 1232 313 1232 z "},"Ū":{"ha":726,"x_min":125,"x_max":601,"o":"m 601 239 q 542 57 601 128 q 364 -14 482 -14 q 184 57 243 -14 q 125 239 125 128 l 125 946 l 156 946 l 156 242 q 207 78 156 140 q 364 17 258 17 q 520 79 469 17 q 571 242 571 142 l 571 946 l 601 946 l 601 239 m 485 1126 l 243 1126 l 243 1154 l 485 1154 l 485 1126 z "},"Ų":{"ha":726,"x_min":125,"x_max":601,"o":"m 601 946 l 601 239 q 562 84 601 149 q 443 -4 522 19 q 342 -76 376 -39 q 307 -168 307 -114 q 328 -229 307 -207 q 388 -251 349 -251 q 449 -242 415 -251 l 446 -272 q 383 -282 415 -282 q 303 -251 331 -282 q 275 -168 275 -219 q 303 -82 275 -119 q 388 -12 332 -44 q 364 -14 381 -14 q 184 57 243 -14 q 125 239 125 128 l 125 946 l 156 946 l 156 242 q 207 78 156 140 q 364 17 258 17 q 520 79 469 17 q 571 242 571 142 l 571 946 l 601 946 z "},"Ʊ":{"ha":785,"x_min":88,"x_max":699,"o":"m 393 -14 q 169 100 251 -14 q 88 431 88 214 q 256 917 88 763 l 115 917 l 115 946 l 300 946 l 300 918 q 119 431 119 778 q 192 119 119 224 q 393 15 265 15 q 593 119 521 15 q 665 432 665 224 q 485 918 665 779 l 485 946 l 672 946 l 672 917 l 531 917 q 653 736 607 850 q 699 432 699 622 q 617 100 699 214 q 393 -14 535 -14 z "},"Ů":{"ha":726,"x_min":125,"x_max":601,"o":"m 601 239 q 542 57 601 128 q 364 -14 482 -14 q 184 57 243 -14 q 125 239 125 128 l 125 946 l 156 946 l 156 242 q 207 78 156 140 q 364 17 258 17 q 520 79 469 17 q 571 242 571 142 l 571 946 l 601 946 l 601 239 m 364 1288 q 432 1259 407 1288 q 457 1179 457 1231 q 432 1098 457 1126 q 364 1069 407 1069 q 296 1098 321 1069 q 271 1178 271 1126 q 296 1259 271 1231 q 364 1288 321 1288 m 364 1264 q 299 1178 299 1264 q 364 1093 299 1093 q 429 1179 429 1093 q 364 1264 429 1264 z "},"Ũ":{"ha":726,"x_min":125,"x_max":601,"o":"m 601 239 q 542 57 601 128 q 364 -14 482 -14 q 184 57 243 -14 q 125 239 125 128 l 125 946 l 156 946 l 156 242 q 207 78 156 140 q 364 17 258 17 q 520 79 469 17 q 571 242 571 142 l 571 946 l 601 946 l 601 239 m 429 1117 q 392 1125 410 1117 q 354 1150 375 1133 q 338 1161 350 1153 q 315 1174 325 1169 q 296 1178 304 1178 q 262 1167 276 1178 q 229 1129 247 1156 l 210 1140 q 251 1188 231 1172 q 296 1204 271 1204 q 326 1197 313 1204 q 364 1174 340 1190 q 399 1151 385 1158 q 429 1143 414 1143 q 464 1156 449 1143 q 497 1200 479 1169 l 517 1190 q 476 1134 497 1151 q 429 1117 456 1117 z "},"Ṹ":{"ha":726,"x_min":125,"x_max":601,"o":"m 601 239 q 542 57 601 128 q 364 -14 482 -14 q 184 57 243 -14 q 125 239 125 128 l 125 946 l 156 946 l 156 242 q 207 78 156 140 q 364 17 258 17 q 520 79 469 17 q 571 242 571 142 l 571 946 l 601 946 l 601 239 m 431 1051 q 394 1060 411 1051 q 356 1085 376 1068 q 339 1096 351 1088 q 316 1108 326 1104 q 297 1113 306 1113 q 263 1101 278 1113 q 231 1064 249 1090 l 211 1075 q 252 1123 232 1107 q 297 1139 272 1139 q 328 1132 314 1139 q 365 1108 342 1125 q 401 1085 386 1093 q 431 1078 415 1078 q 465 1091 450 1078 q 499 1135 481 1104 l 518 1125 q 478 1069 499 1086 q 431 1051 457 1051 m 456 1326 l 471 1296 l 265 1196 l 256 1215 l 456 1326 z "},"V":{"ha":626,"x_min":39,"x_max":588,"o":"m 588 946 l 332 0 l 294 0 l 39 946 l 71 946 l 314 31 l 557 946 l 588 946 z "},"Ʋ":{"ha":726,"x_min":125,"x_max":601,"o":"m 511 960 q 578 932 556 960 q 601 849 601 904 l 601 357 q 528 83 601 179 q 335 -14 456 -14 q 181 47 238 -14 q 125 211 125 108 l 125 946 l 156 946 l 156 214 q 203 69 156 122 q 335 17 250 17 q 507 104 443 17 q 571 361 571 192 l 571 849 q 510 933 571 933 q 460 919 483 933 l 447 942 q 511 960 479 960 z "},"Ʌ":{"ha":653,"x_min":39,"x_max":615,"o":"m 346 946 l 615 0 l 583 0 l 326 921 l 69 0 l 39 0 l 307 946 l 346 946 z "},"W":{"ha":914,"x_min":47,"x_max":867,"o":"m 867 946 l 686 0 l 647 0 l 457 915 l 267 0 l 228 0 l 47 946 l 79 946 l 247 33 l 438 946 l 476 946 l 667 33 l 836 946 l 867 946 z "},"Ẃ":{"ha":914,"x_min":47,"x_max":867,"o":"m 867 946 l 686 0 l 647 0 l 457 915 l 267 0 l 228 0 l 47 946 l 79 946 l 247 33 l 438 946 l 476 946 l 667 33 l 836 946 l 867 946 m 549 1192 l 564 1161 l 358 1061 l 349 1081 l 549 1192 z "},"Ŵ":{"ha":914,"x_min":47,"x_max":867,"o":"m 867 946 l 686 0 l 647 0 l 457 915 l 267 0 l 228 0 l 47 946 l 79 946 l 247 33 l 438 946 l 476 946 l 667 33 l 836 946 l 867 946 m 325 1065 l 310 1081 l 447 1207 l 464 1207 l 603 1081 l 586 1065 l 456 1175 l 325 1065 z "},"Ẅ":{"ha":914,"x_min":47,"x_max":867,"o":"m 867 946 l 686 0 l 647 0 l 457 915 l 267 0 l 228 0 l 47 946 l 79 946 l 247 33 l 438 946 l 476 946 l 667 33 l 836 946 l 867 946 m 368 1164 q 388 1156 381 1164 q 394 1136 394 1149 q 388 1117 394 1125 q 368 1110 381 1110 q 349 1117 357 1110 q 342 1136 342 1125 q 349 1156 342 1147 q 368 1164 357 1164 m 561 1164 q 580 1156 572 1164 q 588 1136 588 1147 q 580 1117 588 1125 q 561 1110 572 1110 q 541 1117 549 1110 q 533 1136 533 1125 q 541 1156 533 1147 q 561 1164 549 1164 z "},"Ẁ":{"ha":914,"x_min":47,"x_max":867,"o":"m 867 946 l 686 0 l 647 0 l 457 915 l 267 0 l 228 0 l 47 946 l 79 946 l 247 33 l 438 946 l 476 946 l 667 33 l 836 946 l 867 946 m 367 1190 l 565 1079 l 554 1060 l 350 1161 l 367 1190 z "},"Ⱳ":{"ha":943,"x_min":47,"x_max":1017,"o":"m 228 0 l 267 0 l 457 915 l 647 0 l 686 0 l 840 843 q 869 913 849 893 q 922 933 889 933 q 962 924 946 933 q 1000 893 978 915 l 1017 911 q 921 960 974 960 q 852 934 879 960 q 815 857 825 908 l 667 33 l 476 946 l 438 946 l 247 32 l 79 946 l 47 946 l 228 0 z "},"Ƿ":{"ha":631,"x_min":139,"x_max":574,"o":"m 371 960 q 518 894 463 960 q 574 717 574 829 q 501 499 574 578 q 293 364 429 421 l 169 311 l 169 0 l 139 0 l 139 946 l 169 946 l 169 860 q 261 933 213 906 q 371 960 310 960 m 296 394 q 478 517 414 446 q 542 717 542 589 q 495 874 542 818 q 369 931 449 931 q 259 902 307 931 q 169 825 211 874 l 169 340 l 296 394 z "},"X":{"ha":556,"x_min":17,"x_max":539,"o":"m 294 514 l 539 0 l 506 0 l 275 493 l 50 0 l 17 0 l 256 513 l 44 946 l 78 946 l 275 533 l 471 946 l 503 946 l 294 514 z "},"Y":{"ha":567,"x_min":22,"x_max":543,"o":"m 543 946 l 301 375 l 301 0 l 269 0 l 269 375 l 22 946 l 57 946 l 286 406 l 511 946 l 543 946 z "},"Ý":{"ha":567,"x_min":22,"x_max":543,"o":"m 543 946 l 301 375 l 301 0 l 269 0 l 269 375 l 22 946 l 57 946 l 286 406 l 511 946 l 543 946 m 375 1192 l 390 1161 l 185 1061 l 175 1081 l 375 1192 z "},"Ŷ":{"ha":567,"x_min":22,"x_max":543,"o":"m 543 946 l 301 375 l 301 0 l 269 0 l 269 375 l 22 946 l 57 946 l 286 406 l 511 946 l 543 946 m 151 1065 l 136 1081 l 274 1207 l 290 1207 l 429 1081 l 413 1065 l 282 1175 l 151 1065 z "},"Ÿ":{"ha":567,"x_min":22,"x_max":543,"o":"m 543 946 l 301 375 l 301 0 l 269 0 l 269 375 l 22 946 l 57 946 l 286 406 l 511 946 l 543 946 m 194 1164 q 214 1156 207 1164 q 221 1136 221 1149 q 214 1117 221 1125 q 194 1110 207 1110 q 176 1117 183 1110 q 168 1136 168 1125 q 176 1156 168 1147 q 194 1164 183 1164 m 388 1164 q 406 1156 399 1164 q 414 1136 414 1147 q 406 1117 414 1125 q 388 1110 399 1110 q 367 1117 375 1110 q 360 1136 360 1125 q 367 1156 360 1147 q 388 1164 375 1164 z "},"Ỵ":{"ha":567,"x_min":22,"x_max":543,"o":"m 543 946 l 301 375 l 301 0 l 269 0 l 269 375 l 22 946 l 57 946 l 286 406 l 511 946 l 543 946 m 285 -192 q 266 -183 274 -192 q 258 -164 258 -175 q 266 -145 258 -153 q 285 -137 274 -137 q 305 -145 297 -137 q 313 -164 313 -153 q 305 -183 313 -175 q 285 -192 297 -192 z "},"Ỳ":{"ha":567,"x_min":22,"x_max":543,"o":"m 543 946 l 301 375 l 301 0 l 269 0 l 269 375 l 22 946 l 57 946 l 286 406 l 511 946 l 543 946 m 193 1190 l 392 1079 l 381 1060 l 176 1161 l 193 1190 z "},"Ƴ":{"ha":589,"x_min":22,"x_max":663,"o":"m 269 375 l 22 946 l 57 946 l 286 404 l 460 865 q 502 936 476 913 q 567 960 528 960 q 663 911 619 960 l 646 893 q 608 924 624 915 q 568 933 592 933 q 519 915 538 933 q 485 851 501 897 l 301 375 l 301 0 l 269 0 l 269 375 z "},"Ỷ":{"ha":567,"x_min":22,"x_max":543,"o":"m 543 946 l 301 375 l 301 0 l 269 0 l 269 375 l 22 946 l 57 946 l 286 406 l 511 946 l 543 946 m 269 1165 q 346 1238 346 1168 q 330 1285 346 1268 q 286 1301 314 1301 q 224 1282 254 1301 l 211 1304 q 290 1329 247 1329 q 353 1304 329 1329 q 376 1238 376 1279 q 297 1146 376 1156 l 297 1086 l 269 1086 l 269 1165 z "},"Ȳ":{"ha":567,"x_min":22,"x_max":543,"o":"m 543 946 l 301 375 l 301 0 l 269 0 l 269 375 l 22 946 l 57 946 l 286 406 l 511 946 l 543 946 m 404 1126 l 163 1126 l 163 1154 l 404 1154 l 404 1126 z "},"Ʀ":{"ha":654,"x_min":139,"x_max":606,"o":"m 571 -183 l 356 269 q 306 267 325 267 l 169 267 l 169 0 l 139 0 l 139 946 l 169 946 l 169 763 l 288 763 q 503 699 436 763 q 569 517 569 636 q 522 356 569 417 q 386 275 474 294 l 606 -183 l 571 -183 m 300 296 q 536 517 536 296 q 479 680 536 625 q 285 733 422 735 l 169 732 l 169 296 l 300 296 z "},"Ɏ":{"ha":568,"x_min":22,"x_max":544,"o":"m 544 811 l 544 788 l 476 788 l 301 375 l 301 0 l 269 0 l 269 375 l 90 788 l 22 788 l 22 811 l 81 811 l 22 946 l 57 946 l 114 811 l 456 811 l 511 946 l 543 946 l 486 811 l 544 811 m 286 406 l 446 788 l 124 788 l 286 406 z "},"Ỹ":{"ha":567,"x_min":22,"x_max":543,"o":"m 543 946 l 301 375 l 301 0 l 269 0 l 269 375 l 22 946 l 57 946 l 286 406 l 511 946 l 543 946 m 349 1117 q 312 1125 329 1117 q 274 1150 294 1133 q 257 1161 269 1153 q 234 1174 244 1169 q 215 1178 224 1178 q 181 1167 196 1178 q 149 1129 167 1156 l 129 1140 q 170 1188 150 1172 q 215 1204 190 1204 q 246 1197 232 1204 q 283 1174 260 1190 q 319 1151 304 1158 q 349 1143 333 1143 q 383 1156 368 1143 q 417 1200 399 1169 l 436 1190 q 396 1134 417 1151 q 349 1117 375 1117 z "},"Z":{"ha":581,"x_min":46,"x_max":524,"o":"m 524 946 l 524 919 l 79 31 l 511 31 l 507 0 l 46 0 l 46 29 l 492 917 l 89 917 l 89 946 l 524 946 z "},"Ź":{"ha":581,"x_min":46,"x_max":524,"o":"m 524 946 l 524 919 l 79 31 l 511 31 l 507 0 l 46 0 l 46 29 l 492 917 l 89 917 l 89 946 l 524 946 m 383 1192 l 399 1161 l 193 1061 l 183 1081 l 383 1192 z "},"Ž":{"ha":581,"x_min":46,"x_max":524,"o":"m 524 946 l 524 919 l 79 31 l 511 31 l 507 0 l 46 0 l 46 29 l 492 917 l 89 917 l 89 946 l 524 946 m 424 1199 l 436 1183 l 299 1056 l 282 1056 l 144 1183 l 158 1199 l 290 1088 l 424 1199 z "},"Ż":{"ha":581,"x_min":46,"x_max":524,"o":"m 524 946 l 524 919 l 79 31 l 511 31 l 507 0 l 46 0 l 46 29 l 492 917 l 89 917 l 89 946 l 524 946 m 293 1181 q 312 1172 304 1181 q 319 1153 319 1164 q 312 1134 319 1142 q 293 1126 304 1126 q 273 1134 281 1126 q 265 1153 265 1142 q 273 1172 265 1164 q 293 1181 281 1181 z "},"Ẓ":{"ha":581,"x_min":46,"x_max":524,"o":"m 524 946 l 524 919 l 79 31 l 511 31 l 507 0 l 46 0 l 46 29 l 492 917 l 89 917 l 89 946 l 524 946 m 293 -192 q 274 -183 282 -192 q 267 -164 267 -175 q 274 -145 267 -153 q 293 -137 282 -137 q 313 -145 306 -137 q 321 -164 321 -153 q 313 -183 321 -175 q 293 -192 306 -192 z "},"Ȥ":{"ha":581,"x_min":46,"x_max":524,"o":"m 524 919 l 79 31 l 508 31 l 508 -142 q 477 -240 508 -207 q 396 -274 446 -274 q 290 -232 338 -274 l 307 -210 q 347 -235 326 -226 q 394 -244 367 -244 q 476 -142 476 -244 l 476 0 l 46 0 l 46 29 l 492 917 l 89 917 l 89 946 l 524 946 l 524 919 z "},"Ƶ":{"ha":581,"x_min":46,"x_max":524,"o":"m 524 946 l 524 919 l 310 490 l 443 490 l 443 461 l 294 461 l 79 31 l 511 31 l 507 0 l 46 0 l 46 29 l 263 461 l 133 461 l 133 490 l 278 490 l 492 917 l 89 917 l 89 946 l 524 946 z "},"ʙ":{"ha":613,"x_min":133,"x_max":531,"o":"m 375 390 q 489 341 447 386 q 531 213 531 296 q 467 53 531 107 q 303 0 404 0 l 133 0 l 133 715 q 301 735 231 735 q 446 685 396 735 q 496 553 496 635 q 465 442 496 483 q 375 390 433 401 m 303 708 q 228 703 264 708 q 164 693 193 699 l 164 403 l 328 403 q 430 442 394 403 q 465 553 465 482 q 424 666 465 624 q 303 708 383 708 m 300 28 q 444 72 389 28 q 500 211 500 115 q 335 375 500 375 l 164 375 l 164 28 l 300 28 z "},"ɢ":{"ha":625,"x_min":82,"x_max":518,"o":"m 336 738 q 426 721 386 738 q 504 669 465 704 l 485 647 q 415 694 450 679 q 336 710 379 710 q 176 628 240 710 q 113 367 113 547 q 172 99 113 179 q 339 18 231 18 q 489 63 418 18 l 489 350 l 349 350 l 344 378 l 518 378 l 518 46 q 434 3 481 18 q 339 -11 388 -11 q 82 367 82 -11 q 154 647 82 556 q 336 738 226 738 z "},"ʛ":{"ha":625,"x_min":82,"x_max":692,"o":"m 589 1024 q 692 981 643 1024 l 675 961 q 633 987 653 978 q 589 996 614 996 q 527 969 550 996 q 504 882 504 942 l 504 669 l 485 651 q 413 695 449 681 q 336 710 378 710 q 176 628 240 710 q 113 367 113 547 q 172 99 113 179 q 339 18 231 18 q 489 63 418 18 l 489 350 l 349 350 l 344 378 l 518 378 l 518 46 q 434 3 481 18 q 339 -11 388 -11 q 82 367 82 -11 q 154 647 82 556 q 336 738 226 738 q 474 692 411 738 l 474 883 q 505 988 474 951 q 589 1024 536 1024 z "},"ʜ":{"ha":665,"x_min":133,"x_max":532,"o":"m 501 0 l 501 364 l 164 364 l 164 0 l 133 0 l 133 721 l 164 721 l 164 392 l 501 392 l 501 721 l 532 721 l 532 0 l 501 0 z "},"ɪ":{"ha":356,"x_min":38,"x_max":318,"o":"m 318 693 l 193 693 l 193 29 l 318 29 l 318 0 l 38 0 l 38 29 l 163 29 l 163 693 l 38 693 l 38 721 l 318 721 l 318 693 z "},"ʟ":{"ha":458,"x_min":133,"x_max":443,"o":"m 164 721 l 164 29 l 443 29 l 438 0 l 133 0 l 133 721 l 164 721 z "},"ɴ":{"ha":665,"x_min":133,"x_max":532,"o":"m 532 0 l 492 0 l 160 689 q 163 467 163 594 l 163 0 l 133 0 l 133 721 l 172 721 l 507 31 q 504 249 504 79 l 504 721 l 532 721 l 532 0 z "},"ɶ":{"ha":817,"x_min":82,"x_max":763,"o":"m 763 0 l 389 0 q 317 -14 354 -14 q 143 80 204 -14 q 82 360 82 174 q 145 642 82 549 q 319 735 208 735 q 394 721 357 735 l 756 721 l 751 693 l 444 693 q 526 584 494 660 q 560 396 557 508 l 711 396 l 711 368 l 560 368 q 439 29 558 111 l 763 29 l 763 0 m 113 360 q 166 100 113 185 q 317 15 219 15 q 472 106 417 15 q 528 374 528 196 q 471 622 528 536 q 319 707 414 707 q 167 622 222 707 q 113 360 113 538 z "},"ʀ":{"ha":599,"x_min":133,"x_max":518,"o":"m 485 0 l 313 326 q 290 325 306 325 l 164 325 l 164 0 l 133 0 l 133 721 l 261 721 q 493 522 493 721 q 453 394 493 443 q 343 331 413 344 l 518 0 l 485 0 m 288 353 q 416 396 369 353 q 463 522 463 439 q 416 649 463 606 q 264 693 369 693 l 164 693 l 164 353 l 288 353 z "},"ʁ":{"ha":599,"x_min":133,"x_max":518,"o":"m 343 390 q 453 331 414 378 q 493 204 493 283 q 261 0 493 0 l 133 0 l 133 721 l 164 721 l 164 396 l 290 396 q 313 394 306 396 l 485 721 l 518 721 l 343 390 m 264 29 q 416 73 369 29 q 463 204 463 117 q 417 327 463 286 q 288 368 371 368 l 164 368 l 164 29 l 264 29 z "},"ʏ":{"ha":457,"x_min":13,"x_max":444,"o":"m 444 721 l 246 294 l 246 0 l 215 0 l 215 293 l 13 721 l 44 721 l 231 319 l 414 721 l 444 721 z "},"a":{"ha":603,"x_min":74,"x_max":524,"o":"m 471 133 q 483 49 471 76 q 524 8 494 21 l 517 -14 q 462 31 479 0 q 443 119 444 61 q 365 19 410 53 q 256 -14 319 -14 q 122 45 171 -14 q 74 200 74 104 q 139 369 74 310 q 321 428 204 428 l 440 428 l 440 524 q 406 660 440 614 q 296 707 372 707 q 128 664 218 707 l 117 688 q 297 735 208 735 q 471 526 471 735 l 471 133 m 256 15 q 440 167 381 15 l 440 400 l 324 400 q 162 349 217 400 q 107 200 107 299 q 147 64 107 113 q 256 15 186 15 z "},"á":{"ha":603,"x_min":74,"x_max":524,"o":"m 471 133 q 483 49 471 76 q 524 8 494 21 l 517 -14 q 462 31 479 0 q 443 119 444 61 q 365 19 410 53 q 256 -14 319 -14 q 122 45 171 -14 q 74 200 74 104 q 139 369 74 310 q 321 428 204 428 l 440 428 l 440 524 q 406 660 440 614 q 296 707 372 707 q 128 664 218 707 l 117 688 q 297 735 208 735 q 471 526 471 735 l 471 133 m 256 15 q 440 167 381 15 l 440 400 l 324 400 q 162 349 217 400 q 107 200 107 299 q 147 64 107 113 q 256 15 186 15 m 378 1054 l 396 1025 l 190 908 l 178 928 l 378 1054 z "},"ă":{"ha":603,"x_min":74,"x_max":524,"o":"m 471 133 q 483 49 471 76 q 524 8 494 21 l 517 -14 q 462 31 479 0 q 443 119 444 61 q 365 19 410 53 q 256 -14 319 -14 q 122 45 171 -14 q 74 200 74 104 q 139 369 74 310 q 321 428 204 428 l 440 428 l 440 524 q 406 660 440 614 q 296 707 372 707 q 128 664 218 707 l 117 688 q 297 735 208 735 q 471 526 471 735 l 471 133 m 256 15 q 440 167 381 15 l 440 400 l 324 400 q 162 349 217 400 q 107 200 107 299 q 147 64 107 113 q 256 15 186 15 m 296 919 q 211 951 244 919 q 169 1039 178 983 l 192 1044 q 296 949 214 949 q 400 1044 381 949 l 422 1039 q 381 951 415 983 q 296 919 347 919 z "},"ắ":{"ha":603,"x_min":74,"x_max":524,"o":"m 471 133 q 483 49 471 76 q 524 8 494 21 l 517 -14 q 462 31 479 0 q 443 119 444 61 q 365 19 410 53 q 256 -14 319 -14 q 122 45 171 -14 q 74 200 74 104 q 139 369 74 310 q 321 428 204 428 l 440 428 l 440 524 q 406 660 440 614 q 296 707 372 707 q 128 664 218 707 l 117 688 q 297 735 208 735 q 471 526 471 735 l 471 133 m 256 15 q 440 167 381 15 l 440 400 l 324 400 q 162 349 217 400 q 107 200 107 299 q 147 64 107 113 q 256 15 186 15 m 289 826 q 205 856 239 826 q 163 932 171 886 l 185 938 q 223 878 196 900 q 289 856 250 856 q 355 878 328 856 q 394 938 382 900 l 415 932 q 374 856 408 886 q 289 826 339 826 m 389 1151 l 415 1132 l 293 972 l 275 985 l 389 1151 z "},"ặ":{"ha":603,"x_min":74,"x_max":524,"o":"m 471 133 q 483 49 471 76 q 524 8 494 21 l 517 -14 q 462 31 479 0 q 443 119 444 61 q 365 19 410 53 q 256 -14 319 -14 q 122 45 171 -14 q 74 200 74 104 q 139 369 74 310 q 321 428 204 428 l 440 428 l 440 524 q 406 660 440 614 q 296 707 372 707 q 128 664 218 707 l 117 688 q 297 735 208 735 q 471 526 471 735 l 471 133 m 256 15 q 440 167 381 15 l 440 400 l 324 400 q 162 349 217 400 q 107 200 107 299 q 147 64 107 113 q 256 15 186 15 m 296 919 q 211 951 244 919 q 169 1039 178 983 l 192 1044 q 296 949 214 949 q 400 1044 381 949 l 422 1039 q 381 951 415 983 q 296 919 347 919 m 289 -192 q 270 -183 278 -192 q 263 -164 263 -175 q 270 -145 263 -153 q 289 -137 278 -137 q 309 -145 301 -137 q 317 -164 317 -153 q 309 -183 317 -175 q 289 -192 301 -192 z "},"ằ":{"ha":603,"x_min":74,"x_max":524,"o":"m 471 133 q 483 49 471 76 q 524 8 494 21 l 517 -14 q 462 31 479 0 q 443 119 444 61 q 365 19 410 53 q 256 -14 319 -14 q 122 45 171 -14 q 74 200 74 104 q 139 369 74 310 q 321 428 204 428 l 440 428 l 440 524 q 406 660 440 614 q 296 707 372 707 q 128 664 218 707 l 117 688 q 297 735 208 735 q 471 526 471 735 l 471 133 m 256 15 q 440 167 381 15 l 440 400 l 324 400 q 162 349 217 400 q 107 200 107 299 q 147 64 107 113 q 256 15 186 15 m 303 826 q 219 856 253 826 q 176 932 185 886 l 199 938 q 237 878 210 900 q 303 856 264 856 q 369 878 342 856 q 408 938 396 900 l 429 932 q 388 856 422 886 q 303 826 353 826 m 208 1151 l 322 985 l 304 972 l 182 1132 l 208 1151 z "},"ẳ":{"ha":603,"x_min":74,"x_max":524,"o":"m 471 133 q 483 49 471 76 q 524 8 494 21 l 517 -14 q 462 31 479 0 q 443 119 444 61 q 365 19 410 53 q 256 -14 319 -14 q 122 45 171 -14 q 74 200 74 104 q 139 369 74 310 q 321 428 204 428 l 440 428 l 440 524 q 406 660 440 614 q 296 707 372 707 q 128 664 218 707 l 117 688 q 297 735 208 735 q 471 526 471 735 l 471 133 m 256 15 q 440 167 381 15 l 440 400 l 324 400 q 162 349 217 400 q 107 200 107 299 q 147 64 107 113 q 256 15 186 15 m 296 826 q 212 856 246 826 q 169 932 178 886 l 192 938 q 230 878 203 900 q 296 856 257 856 q 362 878 335 856 q 401 938 389 900 l 422 932 q 381 856 415 886 q 296 826 346 826 m 278 1038 q 354 1110 354 1043 q 338 1158 354 1140 q 294 1175 322 1175 q 263 1170 276 1175 q 232 1156 250 1165 l 219 1176 q 299 1203 258 1203 q 361 1178 338 1203 q 385 1111 385 1153 q 306 1018 385 1029 l 306 940 l 278 940 l 278 1038 z "},"ẵ":{"ha":603,"x_min":74,"x_max":524,"o":"m 471 133 q 483 49 471 76 q 524 8 494 21 l 517 -14 q 462 31 479 0 q 443 119 444 61 q 365 19 410 53 q 256 -14 319 -14 q 122 45 171 -14 q 74 200 74 104 q 139 369 74 310 q 321 428 204 428 l 440 428 l 440 524 q 406 660 440 614 q 296 707 372 707 q 128 664 218 707 l 117 688 q 297 735 208 735 q 471 526 471 735 l 471 133 m 256 15 q 440 167 381 15 l 440 400 l 324 400 q 162 349 217 400 q 107 200 107 299 q 147 64 107 113 q 256 15 186 15 m 296 826 q 212 856 246 826 q 169 932 178 886 l 192 938 q 230 878 203 900 q 296 856 257 856 q 362 878 335 856 q 401 938 389 900 l 422 932 q 381 856 415 886 q 296 826 346 826 m 361 1018 q 324 1026 342 1018 q 286 1051 307 1035 q 269 1063 282 1054 q 247 1075 257 1071 q 228 1079 236 1079 q 194 1068 208 1079 q 161 1031 179 1057 l 142 1042 q 183 1090 163 1074 q 228 1106 203 1106 q 258 1099 244 1106 q 296 1075 272 1092 q 331 1052 317 1060 q 361 1044 346 1044 q 396 1058 381 1044 q 429 1101 411 1071 l 449 1092 q 408 1035 429 1053 q 361 1018 388 1018 z "},"ǎ":{"ha":603,"x_min":74,"x_max":524,"o":"m 471 133 q 483 49 471 76 q 524 8 494 21 l 517 -14 q 462 31 479 0 q 443 119 444 61 q 365 19 410 53 q 256 -14 319 -14 q 122 45 171 -14 q 74 200 74 104 q 139 369 74 310 q 321 428 204 428 l 440 428 l 440 524 q 406 660 440 614 q 296 707 372 707 q 128 664 218 707 l 117 688 q 297 735 208 735 q 471 526 471 735 l 471 133 m 256 15 q 440 167 381 15 l 440 400 l 324 400 q 162 349 217 400 q 107 200 107 299 q 147 64 107 113 q 256 15 186 15 m 426 1039 l 442 1025 l 304 890 l 288 890 l 150 1025 l 165 1039 l 296 922 l 426 1039 z "},"â":{"ha":603,"x_min":74,"x_max":524,"o":"m 471 133 q 483 49 471 76 q 524 8 494 21 l 517 -14 q 462 31 479 0 q 443 119 444 61 q 365 19 410 53 q 256 -14 319 -14 q 122 45 171 -14 q 74 200 74 104 q 139 369 74 310 q 321 428 204 428 l 440 428 l 440 524 q 406 660 440 614 q 296 707 372 707 q 128 664 218 707 l 117 688 q 297 735 208 735 q 471 526 471 735 l 471 133 m 256 15 q 440 167 381 15 l 440 400 l 324 400 q 162 349 217 400 q 107 200 107 299 q 147 64 107 113 q 256 15 186 15 m 164 910 l 149 924 l 286 1058 l 304 1058 l 440 924 l 425 910 l 294 1026 l 164 910 z "},"ấ":{"ha":603,"x_min":74,"x_max":529,"o":"m 471 133 q 483 49 471 76 q 524 8 494 21 l 517 -14 q 462 31 479 0 q 443 119 444 61 q 365 19 410 53 q 256 -14 319 -14 q 122 45 171 -14 q 74 200 74 104 q 139 369 74 310 q 321 428 204 428 l 440 428 l 440 524 q 406 660 440 614 q 296 707 372 707 q 128 664 218 707 l 117 688 q 297 735 208 735 q 471 526 471 735 l 471 133 m 256 15 q 440 167 381 15 l 440 400 l 324 400 q 162 349 217 400 q 107 200 107 299 q 147 64 107 113 q 256 15 186 15 m 164 815 l 149 831 l 286 957 l 303 957 l 442 831 l 425 815 l 294 925 l 164 815 m 503 1114 l 529 1094 l 407 935 l 389 947 l 503 1114 z "},"ậ":{"ha":603,"x_min":74,"x_max":524,"o":"m 471 133 q 483 49 471 76 q 524 8 494 21 l 517 -14 q 462 31 479 0 q 443 119 444 61 q 365 19 410 53 q 256 -14 319 -14 q 122 45 171 -14 q 74 200 74 104 q 139 369 74 310 q 321 428 204 428 l 440 428 l 440 524 q 406 660 440 614 q 296 707 372 707 q 128 664 218 707 l 117 688 q 297 735 208 735 q 471 526 471 735 l 471 133 m 256 15 q 440 167 381 15 l 440 400 l 324 400 q 162 349 217 400 q 107 200 107 299 q 147 64 107 113 q 256 15 186 15 m 164 910 l 149 924 l 286 1058 l 304 1058 l 440 924 l 425 910 l 294 1026 l 164 910 m 289 -192 q 270 -183 278 -192 q 263 -164 263 -175 q 270 -145 263 -153 q 289 -137 278 -137 q 309 -145 301 -137 q 317 -164 317 -153 q 309 -183 317 -175 q 289 -192 301 -192 z "},"ầ":{"ha":603,"x_min":65,"x_max":524,"o":"m 471 133 q 483 49 471 76 q 524 8 494 21 l 517 -14 q 462 31 479 0 q 443 119 444 61 q 365 19 410 53 q 256 -14 319 -14 q 122 45 171 -14 q 74 200 74 104 q 139 369 74 310 q 321 428 204 428 l 440 428 l 440 524 q 406 660 440 614 q 296 707 372 707 q 128 664 218 707 l 117 688 q 297 735 208 735 q 471 526 471 735 l 471 133 m 256 15 q 440 167 381 15 l 440 400 l 324 400 q 162 349 217 400 q 107 200 107 299 q 147 64 107 113 q 256 15 186 15 m 165 815 l 150 831 l 288 957 l 304 957 l 443 831 l 426 815 l 296 925 l 165 815 m 92 1114 l 206 947 l 188 935 l 65 1094 l 92 1114 z "},"ẩ":{"ha":603,"x_min":74,"x_max":524,"o":"m 471 133 q 483 49 471 76 q 524 8 494 21 l 517 -14 q 462 31 479 0 q 443 119 444 61 q 365 19 410 53 q 256 -14 319 -14 q 122 45 171 -14 q 74 200 74 104 q 139 369 74 310 q 321 428 204 428 l 440 428 l 440 524 q 406 660 440 614 q 296 707 372 707 q 128 664 218 707 l 117 688 q 297 735 208 735 q 471 526 471 735 l 471 133 m 256 15 q 440 167 381 15 l 440 400 l 324 400 q 162 349 217 400 q 107 200 107 299 q 147 64 107 113 q 256 15 186 15 m 164 815 l 149 831 l 286 957 l 303 957 l 442 831 l 425 815 l 294 925 l 164 815 m 400 1019 q 476 1092 476 1025 q 460 1140 476 1122 q 417 1157 444 1157 q 385 1152 399 1157 q 354 1138 372 1147 l 342 1158 q 421 1185 381 1185 q 483 1160 460 1185 q 507 1093 507 1135 q 428 1000 507 1011 l 428 922 l 400 922 l 400 1019 z "},"ẫ":{"ha":603,"x_min":74,"x_max":524,"o":"m 471 133 q 483 49 471 76 q 524 8 494 21 l 517 -14 q 462 31 479 0 q 443 119 444 61 q 365 19 410 53 q 256 -14 319 -14 q 122 45 171 -14 q 74 200 74 104 q 139 369 74 310 q 321 428 204 428 l 440 428 l 440 524 q 406 660 440 614 q 296 707 372 707 q 128 664 218 707 l 117 688 q 297 735 208 735 q 471 526 471 735 l 471 133 m 256 15 q 440 167 381 15 l 440 400 l 324 400 q 162 349 217 400 q 107 200 107 299 q 147 64 107 113 q 256 15 186 15 m 164 803 l 149 818 l 286 944 l 303 944 l 442 818 l 425 803 l 294 913 l 164 803 m 361 1010 q 324 1018 342 1010 q 286 1043 307 1026 q 269 1054 282 1046 q 247 1067 257 1063 q 228 1071 236 1071 q 194 1060 208 1071 q 161 1022 179 1049 l 142 1033 q 183 1081 163 1065 q 228 1097 203 1097 q 258 1090 244 1097 q 296 1067 272 1083 q 331 1044 317 1051 q 361 1036 346 1036 q 396 1049 381 1036 q 429 1093 411 1063 l 449 1083 q 408 1027 429 1044 q 361 1010 388 1010 z "},"ȁ":{"ha":603,"x_min":74,"x_max":524,"o":"m 471 133 q 483 49 471 76 q 524 8 494 21 l 517 -14 q 462 31 479 0 q 443 119 444 61 q 365 19 410 53 q 256 -14 319 -14 q 122 45 171 -14 q 74 200 74 104 q 139 369 74 310 q 321 428 204 428 l 440 428 l 440 524 q 406 660 440 614 q 296 707 372 707 q 128 664 218 707 l 117 688 q 297 735 208 735 q 471 526 471 735 l 471 133 m 256 15 q 440 167 381 15 l 440 400 l 324 400 q 162 349 217 400 q 107 200 107 299 q 147 64 107 113 q 256 15 186 15 m 167 1099 l 249 915 l 228 906 l 138 1085 l 167 1099 m 294 1097 l 369 921 l 349 911 l 265 1083 l 294 1097 z "},"ä":{"ha":603,"x_min":74,"x_max":524,"o":"m 471 133 q 483 49 471 76 q 524 8 494 21 l 517 -14 q 462 31 479 0 q 443 119 444 61 q 365 19 410 53 q 256 -14 319 -14 q 122 45 171 -14 q 74 200 74 104 q 139 369 74 310 q 321 428 204 428 l 440 428 l 440 524 q 406 660 440 614 q 296 707 372 707 q 128 664 218 707 l 117 688 q 297 735 208 735 q 471 526 471 735 l 471 133 m 256 15 q 440 167 381 15 l 440 400 l 324 400 q 162 349 217 400 q 107 200 107 299 q 147 64 107 113 q 256 15 186 15 m 199 989 q 218 981 211 989 q 225 961 225 974 q 218 942 225 950 q 199 935 211 935 q 180 942 188 935 q 172 961 172 950 q 180 981 172 972 q 199 989 188 989 m 392 989 q 410 981 403 989 q 418 961 418 972 q 410 942 418 950 q 392 935 403 935 q 372 942 379 935 q 364 961 364 950 q 372 981 364 972 q 392 989 379 989 z "},"ǟ":{"ha":603,"x_min":74,"x_max":524,"o":"m 471 133 q 483 49 471 76 q 524 8 494 21 l 517 -14 q 462 31 479 0 q 443 119 444 61 q 365 19 410 53 q 256 -14 319 -14 q 122 45 171 -14 q 74 200 74 104 q 139 369 74 310 q 321 428 204 428 l 440 428 l 440 524 q 406 660 440 614 q 296 707 372 707 q 128 664 218 707 l 117 688 q 297 735 208 735 q 471 526 471 735 l 471 133 m 256 15 q 440 167 381 15 l 440 400 l 324 400 q 162 349 217 400 q 107 200 107 299 q 147 64 107 113 q 256 15 186 15 m 199 947 q 218 940 211 947 q 225 919 225 932 q 218 901 225 908 q 199 893 211 893 q 180 901 188 893 q 172 919 172 908 q 180 939 172 931 q 199 947 188 947 m 392 947 q 410 939 403 947 q 418 919 418 931 q 410 901 418 908 q 392 893 403 893 q 372 901 379 893 q 364 919 364 908 q 372 939 364 931 q 392 947 379 947 m 417 1046 l 175 1046 l 175 1074 l 417 1074 l 417 1046 z "},"ȧ":{"ha":603,"x_min":74,"x_max":524,"o":"m 471 133 q 483 49 471 76 q 524 8 494 21 l 517 -14 q 462 31 479 0 q 443 119 444 61 q 365 19 410 53 q 256 -14 319 -14 q 122 45 171 -14 q 74 200 74 104 q 139 369 74 310 q 321 428 204 428 l 440 428 l 440 524 q 406 660 440 614 q 296 707 372 707 q 128 664 218 707 l 117 688 q 297 735 208 735 q 471 526 471 735 l 471 133 m 256 15 q 440 167 381 15 l 440 400 l 324 400 q 162 349 217 400 q 107 200 107 299 q 147 64 107 113 q 256 15 186 15 m 296 1006 q 315 997 307 1006 q 322 978 322 989 q 315 959 322 967 q 296 951 307 951 q 276 959 283 951 q 268 978 268 967 q 276 997 268 989 q 296 1006 283 1006 z "},"ạ":{"ha":603,"x_min":74,"x_max":524,"o":"m 471 133 q 483 49 471 76 q 524 8 494 21 l 517 -14 q 462 31 479 0 q 443 119 444 61 q 365 19 410 53 q 256 -14 319 -14 q 122 45 171 -14 q 74 200 74 104 q 139 369 74 310 q 321 428 204 428 l 440 428 l 440 524 q 406 660 440 614 q 296 707 372 707 q 128 664 218 707 l 117 688 q 297 735 208 735 q 471 526 471 735 l 471 133 m 256 15 q 440 167 381 15 l 440 400 l 324 400 q 162 349 217 400 q 107 200 107 299 q 147 64 107 113 q 256 15 186 15 m 289 -192 q 270 -183 278 -192 q 263 -164 263 -175 q 270 -145 263 -153 q 289 -137 278 -137 q 309 -145 301 -137 q 317 -164 317 -153 q 309 -183 317 -175 q 289 -192 301 -192 z "},"ǡ":{"ha":603,"x_min":74,"x_max":524,"o":"m 471 133 q 483 49 471 76 q 524 8 494 21 l 517 -14 q 462 31 479 0 q 443 119 444 61 q 365 19 410 53 q 256 -14 319 -14 q 122 45 171 -14 q 74 200 74 104 q 139 369 74 310 q 321 428 204 428 l 440 428 l 440 524 q 406 660 440 614 q 296 707 372 707 q 128 664 218 707 l 117 688 q 297 735 208 735 q 471 526 471 735 l 471 133 m 256 15 q 440 167 381 15 l 440 400 l 324 400 q 162 349 217 400 q 107 200 107 299 q 147 64 107 113 q 256 15 186 15 m 297 932 q 316 924 308 932 q 324 904 324 915 q 316 885 324 893 q 297 878 308 878 q 277 885 285 878 q 269 904 269 893 q 277 924 269 915 q 297 932 285 932 m 417 1035 l 175 1035 l 175 1063 l 417 1063 l 417 1035 z "},"à":{"ha":603,"x_min":74,"x_max":524,"o":"m 471 133 q 483 49 471 76 q 524 8 494 21 l 517 -14 q 462 31 479 0 q 443 119 444 61 q 365 19 410 53 q 256 -14 319 -14 q 122 45 171 -14 q 74 200 74 104 q 139 369 74 310 q 321 428 204 428 l 440 428 l 440 524 q 406 660 440 614 q 296 707 372 707 q 128 664 218 707 l 117 688 q 297 735 208 735 q 471 526 471 735 l 471 133 m 256 15 q 440 167 381 15 l 440 400 l 324 400 q 162 349 217 400 q 107 200 107 299 q 147 64 107 113 q 256 15 186 15 m 208 1054 l 408 928 l 394 908 l 190 1025 l 208 1054 z "},"ả":{"ha":603,"x_min":74,"x_max":524,"o":"m 471 133 q 483 49 471 76 q 524 8 494 21 l 517 -14 q 462 31 479 0 q 443 119 444 61 q 365 19 410 53 q 256 -14 319 -14 q 122 45 171 -14 q 74 200 74 104 q 139 369 74 310 q 321 428 204 428 l 440 428 l 440 524 q 406 660 440 614 q 296 707 372 707 q 128 664 218 707 l 117 688 q 297 735 208 735 q 471 526 471 735 l 471 133 m 256 15 q 440 167 381 15 l 440 400 l 324 400 q 162 349 217 400 q 107 200 107 299 q 147 64 107 113 q 256 15 186 15 m 282 961 q 358 1033 358 967 q 342 1081 358 1064 q 299 1099 326 1099 q 267 1094 281 1099 q 236 1079 254 1089 l 224 1100 q 303 1126 263 1126 q 365 1101 342 1126 q 389 1035 389 1076 q 310 942 389 953 l 310 864 l 282 864 l 282 961 z "},"ȃ":{"ha":603,"x_min":74,"x_max":524,"o":"m 471 133 q 483 49 471 76 q 524 8 494 21 l 517 -14 q 462 31 479 0 q 443 119 444 61 q 365 19 410 53 q 256 -14 319 -14 q 122 45 171 -14 q 74 200 74 104 q 139 369 74 310 q 321 428 204 428 l 440 428 l 440 524 q 406 660 440 614 q 296 707 372 707 q 128 664 218 707 l 117 688 q 297 735 208 735 q 471 526 471 735 l 471 133 m 256 15 q 440 167 381 15 l 440 400 l 324 400 q 162 349 217 400 q 107 200 107 299 q 147 64 107 113 q 256 15 186 15 m 296 1007 q 381 975 347 1007 q 422 888 415 943 l 400 882 q 296 978 381 978 q 192 882 214 978 l 169 888 q 211 975 178 943 q 296 1007 244 1007 z "},"ɑ":{"ha":653,"x_min":82,"x_max":574,"o":"m 518 129 q 531 59 518 83 q 574 19 543 35 l 565 -7 q 508 39 525 11 q 488 114 490 67 q 415 21 458 56 q 306 -14 371 -14 q 141 78 200 -14 q 82 358 82 171 q 144 637 82 539 q 314 735 206 735 q 489 624 424 735 l 492 721 l 518 721 l 518 129 m 306 15 q 412 52 369 15 q 488 164 454 89 l 488 585 q 315 707 424 707 q 169 619 224 707 q 114 364 114 532 q 164 101 114 186 q 306 15 214 15 z "},"ɒ":{"ha":653,"x_min":79,"x_max":571,"o":"m 347 735 q 512 642 453 735 q 571 363 571 550 q 509 84 571 182 q 339 -14 447 -14 q 164 97 229 -14 l 161 0 l 135 0 l 135 592 q 122 662 135 638 q 79 701 110 686 l 88 728 q 145 682 128 710 q 165 607 163 654 q 238 700 194 665 q 347 735 282 735 m 338 14 q 484 101 429 14 q 539 357 539 189 q 489 620 539 535 q 347 706 439 706 q 241 669 283 706 q 165 557 199 632 l 165 136 q 338 14 229 14 z "},"ā":{"ha":603,"x_min":74,"x_max":524,"o":"m 471 133 q 483 49 471 76 q 524 8 494 21 l 517 -14 q 462 31 479 0 q 443 119 444 61 q 365 19 410 53 q 256 -14 319 -14 q 122 45 171 -14 q 74 200 74 104 q 139 369 74 310 q 321 428 204 428 l 440 428 l 440 524 q 406 660 440 614 q 296 707 372 707 q 128 664 218 707 l 117 688 q 297 735 208 735 q 471 526 471 735 l 471 133 m 256 15 q 440 167 381 15 l 440 400 l 324 400 q 162 349 217 400 q 107 200 107 299 q 147 64 107 113 q 256 15 186 15 m 417 951 l 175 951 l 175 979 l 417 979 l 417 951 z "},"ą":{"ha":603,"x_min":74,"x_max":524,"o":"m 517 -14 q 410 -88 446 -50 q 374 -185 374 -126 q 393 -244 374 -224 q 451 -265 413 -265 q 515 -256 482 -265 l 513 -286 q 450 -296 479 -296 q 369 -265 397 -296 q 342 -185 342 -235 q 380 -83 342 -125 q 493 -3 418 -40 q 456 42 468 14 q 443 119 444 71 q 365 19 410 53 q 256 -14 319 -14 q 122 45 171 -14 q 74 200 74 104 q 139 369 74 310 q 321 428 204 428 l 440 428 l 440 524 q 406 660 440 614 q 296 707 372 707 q 128 664 218 707 l 117 688 q 297 735 208 735 q 471 526 471 735 l 471 133 q 483 49 471 76 q 524 8 494 21 l 517 -14 m 256 15 q 440 167 381 15 l 440 400 l 324 400 q 162 349 217 400 q 107 200 107 299 q 147 64 107 113 q 256 15 186 15 z "},"å":{"ha":603,"x_min":74,"x_max":524,"o":"m 471 133 q 483 49 471 76 q 524 8 494 21 l 517 -14 q 462 31 479 0 q 443 119 444 61 q 365 19 410 53 q 256 -14 319 -14 q 122 45 171 -14 q 74 200 74 104 q 139 369 74 310 q 321 428 204 428 l 440 428 l 440 524 q 406 660 440 614 q 296 707 372 707 q 128 664 218 707 l 117 688 q 297 735 208 735 q 471 526 471 735 l 471 133 m 256 15 q 440 167 381 15 l 440 400 l 324 400 q 162 349 217 400 q 107 200 107 299 q 147 64 107 113 q 256 15 186 15 m 296 1113 q 364 1084 339 1113 q 389 1004 389 1056 q 364 923 389 951 q 296 894 339 894 q 228 923 253 894 q 203 1003 203 951 q 228 1084 203 1056 q 296 1113 253 1113 m 296 1089 q 231 1003 231 1089 q 296 918 231 918 q 361 1004 361 918 q 296 1089 361 1089 z "},"ǻ":{"ha":603,"x_min":74,"x_max":524,"o":"m 404 1156 l 199 1056 l 189 1075 l 389 1186 l 404 1156 m 204 925 q 229 1006 204 978 q 297 1035 254 1035 q 365 1006 340 1035 q 390 926 390 978 q 365 845 390 874 q 297 817 340 817 q 229 845 254 817 q 204 925 204 874 m 363 926 q 297 1011 363 1011 q 232 925 232 1011 q 297 840 232 840 q 363 926 363 840 m 471 133 q 483 49 471 76 q 524 8 494 21 l 517 -14 q 462 31 479 0 q 443 119 444 61 q 365 19 410 53 q 256 -14 319 -14 q 122 45 171 -14 q 74 200 74 104 q 139 369 74 310 q 321 428 204 428 l 440 428 l 440 524 q 406 660 440 614 q 296 707 372 707 q 128 664 218 707 l 117 688 q 297 735 208 735 q 471 526 471 735 l 471 133 m 256 15 q 440 167 381 15 l 440 400 l 324 400 q 162 349 217 400 q 107 200 107 299 q 147 64 107 113 q 256 15 186 15 z "},"ⱥ":{"ha":603,"x_min":74,"x_max":524,"o":"m 471 133 q 483 49 471 76 q 524 8 494 21 l 517 -14 q 462 31 479 0 q 443 119 444 61 q 365 19 410 53 q 256 -14 319 -14 q 231 -12 239 -14 l 213 -92 l 192 -87 l 210 -8 q 109 62 144 6 q 74 200 74 118 q 135 366 74 307 q 307 428 197 425 l 367 693 q 296 707 335 707 q 128 664 218 707 l 117 688 q 297 735 208 735 q 374 721 342 735 l 394 814 l 415 811 l 393 713 q 471 526 471 665 l 471 133 m 440 524 q 386 681 440 640 l 329 428 l 440 428 l 440 524 m 256 15 q 440 167 381 15 l 440 400 l 324 400 l 236 17 q 256 15 243 15 m 107 200 q 135 80 107 126 q 215 19 164 33 l 301 400 q 107 200 107 389 z "},"ã":{"ha":603,"x_min":74,"x_max":524,"o":"m 471 133 q 483 49 471 76 q 524 8 494 21 l 517 -14 q 462 31 479 0 q 443 119 444 61 q 365 19 410 53 q 256 -14 319 -14 q 122 45 171 -14 q 74 200 74 104 q 139 369 74 310 q 321 428 204 428 l 440 428 l 440 524 q 406 660 440 614 q 296 707 372 707 q 128 664 218 707 l 117 688 q 297 735 208 735 q 471 526 471 735 l 471 133 m 256 15 q 440 167 381 15 l 440 400 l 324 400 q 162 349 217 400 q 107 200 107 299 q 147 64 107 113 q 256 15 186 15 m 363 942 q 326 950 343 942 q 288 975 308 958 q 271 986 283 978 q 248 999 258 994 q 229 1003 238 1003 q 195 992 210 1003 q 163 954 181 981 l 143 965 q 184 1013 164 997 q 229 1029 204 1029 q 260 1022 246 1029 q 297 999 274 1015 q 333 976 318 983 q 363 968 347 968 q 397 981 382 968 q 431 1025 413 994 l 450 1015 q 410 959 431 976 q 363 942 389 942 z "},"ɐ":{"ha":603,"x_min":79,"x_max":529,"o":"m 307 14 q 475 57 385 14 l 486 33 q 306 -14 394 -14 q 132 194 132 -14 l 132 588 q 120 672 132 644 q 79 713 108 700 l 86 735 q 141 690 124 721 q 160 601 158 660 q 238 701 193 668 q 347 735 283 735 q 481 676 432 735 q 529 521 529 617 q 464 352 529 411 q 282 293 399 293 l 163 293 l 163 197 q 197 60 163 107 q 307 14 231 14 m 347 706 q 163 554 222 706 l 163 321 l 279 321 q 441 372 386 321 q 496 521 496 422 q 456 657 496 608 q 347 706 417 706 z "},"æ":{"ha":961,"x_min":74,"x_max":886,"o":"m 886 394 q 883 342 886 372 l 472 342 q 531 97 475 179 q 679 15 586 15 q 767 34 729 15 q 843 92 804 53 l 861 71 q 776 7 818 28 q 678 -14 733 -14 q 553 28 606 -14 q 471 150 500 69 q 371 24 422 63 q 253 -14 319 -14 q 122 44 169 -14 q 74 200 74 103 q 138 369 74 310 q 318 428 203 428 l 440 428 l 440 514 q 406 659 440 611 q 290 707 371 707 q 128 663 221 707 l 119 688 q 292 735 214 735 q 421 686 379 735 q 468 542 463 638 q 547 685 494 636 q 672 735 599 735 q 833 647 779 735 q 886 394 886 558 m 856 406 q 810 628 856 550 q 672 707 764 707 q 529 620 585 707 q 472 368 474 533 l 856 368 l 856 406 m 256 15 q 365 55 318 15 q 461 183 413 94 q 440 354 440 257 l 440 400 l 317 400 q 161 349 217 400 q 106 200 106 297 q 146 65 106 114 q 256 15 186 15 z "},"ǽ":{"ha":961,"x_min":74,"x_max":886,"o":"m 886 394 q 883 342 886 372 l 472 342 q 531 97 475 179 q 679 15 586 15 q 767 34 729 15 q 843 92 804 53 l 861 71 q 776 7 818 28 q 678 -14 733 -14 q 553 28 606 -14 q 471 150 500 69 q 371 24 422 63 q 253 -14 319 -14 q 122 44 169 -14 q 74 200 74 103 q 138 369 74 310 q 318 428 203 428 l 440 428 l 440 514 q 406 659 440 611 q 290 707 371 707 q 128 663 221 707 l 119 688 q 292 735 214 735 q 421 686 379 735 q 468 542 463 638 q 547 685 494 636 q 672 735 599 735 q 833 647 779 735 q 886 394 886 558 m 856 406 q 810 628 856 550 q 672 707 764 707 q 529 620 585 707 q 472 368 474 533 l 856 368 l 856 406 m 256 15 q 365 55 318 15 q 461 183 413 94 q 440 354 440 257 l 440 400 l 317 400 q 161 349 217 400 q 106 200 106 297 q 146 65 106 114 q 256 15 186 15 m 564 1054 l 582 1025 l 376 908 l 364 928 l 564 1054 z "},"ǣ":{"ha":961,"x_min":74,"x_max":886,"o":"m 886 394 q 883 342 886 372 l 472 342 q 531 97 475 179 q 679 15 586 15 q 767 34 729 15 q 843 92 804 53 l 861 71 q 776 7 818 28 q 678 -14 733 -14 q 553 28 606 -14 q 471 150 500 69 q 371 24 422 63 q 253 -14 319 -14 q 122 44 169 -14 q 74 200 74 103 q 138 369 74 310 q 318 428 203 428 l 440 428 l 440 514 q 406 659 440 611 q 290 707 371 707 q 128 663 221 707 l 119 688 q 292 735 214 735 q 421 686 379 735 q 468 542 463 638 q 547 685 494 636 q 672 735 599 735 q 833 647 779 735 q 886 394 886 558 m 856 406 q 810 628 856 550 q 672 707 764 707 q 529 620 585 707 q 472 368 474 533 l 856 368 l 856 406 m 256 15 q 365 55 318 15 q 461 183 413 94 q 440 354 440 257 l 440 400 l 317 400 q 161 349 217 400 q 106 200 106 297 q 146 65 106 114 q 256 15 186 15 m 603 951 l 361 951 l 361 979 l 603 979 l 603 951 z "},"b":{"ha":644,"x_min":133,"x_max":564,"o":"m 354 735 q 510 643 456 735 q 564 367 564 551 q 508 83 564 181 q 344 -14 451 -14 q 163 108 236 -14 l 160 0 l 133 0 l 133 1018 l 164 1022 l 164 610 q 354 735 240 735 m 343 15 q 483 103 436 15 q 531 367 531 190 q 351 707 531 707 q 247 672 290 707 q 164 569 204 638 l 164 149 q 343 15 239 15 z "},"ḃ":{"ha":644,"x_min":133,"x_max":564,"o":"m 354 735 q 510 643 456 735 q 564 367 564 551 q 508 83 564 181 q 344 -14 451 -14 q 163 108 236 -14 l 160 0 l 133 0 l 133 1018 l 164 1022 l 164 610 q 354 735 240 735 m 343 15 q 483 103 436 15 q 531 367 531 190 q 351 707 531 707 q 247 672 290 707 q 164 569 204 638 l 164 149 q 343 15 239 15 m 336 1251 q 355 1243 347 1251 q 363 1224 363 1235 q 355 1205 363 1213 q 336 1197 347 1197 q 316 1205 324 1197 q 308 1224 308 1213 q 316 1243 308 1235 q 336 1251 324 1251 z "},"ḅ":{"ha":644,"x_min":133,"x_max":564,"o":"m 354 735 q 510 643 456 735 q 564 367 564 551 q 508 83 564 181 q 344 -14 451 -14 q 163 108 236 -14 l 160 0 l 133 0 l 133 1018 l 164 1022 l 164 610 q 354 735 240 735 m 343 15 q 483 103 436 15 q 531 367 531 190 q 351 707 531 707 q 247 672 290 707 q 164 569 204 638 l 164 149 q 343 15 239 15 m 335 -192 q 316 -183 324 -192 q 308 -164 308 -175 q 316 -145 308 -153 q 335 -137 324 -137 q 355 -145 347 -137 q 363 -164 363 -153 q 355 -183 363 -175 q 335 -192 347 -192 z "},"ꞵ":{"ha":656,"x_min":133,"x_max":590,"o":"m 349 554 q 524 480 457 551 q 590 279 590 408 q 560 122 590 188 q 478 21 529 56 q 364 -14 426 -14 q 253 13 301 -14 q 164 94 206 39 l 164 -267 l 133 -274 l 133 751 q 190 955 133 886 q 342 1024 246 1024 q 483 964 428 1024 q 538 792 538 904 q 488 624 538 685 q 349 554 439 564 m 364 15 q 463 47 418 15 q 533 135 507 78 q 558 271 558 193 q 492 470 558 400 q 308 540 425 540 l 250 540 l 254 568 l 311 568 q 449 620 390 568 q 507 789 507 672 q 462 944 507 893 q 342 994 417 994 q 212 935 260 994 q 164 750 164 875 l 164 129 q 254 42 207 69 q 364 15 301 15 z "},"ɓ":{"ha":644,"x_min":132,"x_max":564,"o":"m 354 735 q 510 643 456 735 q 564 367 564 551 q 508 83 564 181 q 344 -14 451 -14 q 163 108 236 -14 l 160 0 l 133 0 l 133 719 l 132 719 l 132 861 q 171 981 132 939 q 276 1024 210 1024 q 408 981 342 1024 l 396 957 q 278 994 332 994 q 193 961 224 994 q 163 860 163 928 l 163 736 l 164 736 l 164 610 q 354 735 240 735 m 343 15 q 483 103 436 15 q 531 367 531 190 q 351 707 531 707 q 247 672 290 707 q 164 569 204 638 l 164 149 q 343 15 239 15 z "},"ʭ":{"ha":365,"x_min":42,"x_max":324,"o":"m 42 557 l 42 710 l 324 710 l 324 556 l 296 556 l 296 682 l 69 682 l 69 557 l 42 557 m 42 1 l 42 154 l 324 154 l 324 0 l 296 0 l 296 126 l 69 126 l 69 1 l 42 1 z "},"ʘ":{"ha":899,"x_min":88,"x_max":813,"o":"m 450 960 q 715 835 618 960 q 813 472 813 711 q 717 112 813 238 q 450 -14 621 -14 q 259 41 340 -14 q 133 204 178 96 q 88 469 88 313 q 133 737 88 626 q 260 903 178 847 q 450 960 342 960 m 450 932 q 207 815 296 932 q 118 469 118 697 q 208 131 118 247 q 450 15 297 15 q 694 131 607 15 q 782 472 782 247 q 694 816 782 700 q 450 932 606 932 m 450 499 q 469 490 461 499 q 476 471 476 482 q 469 452 476 460 q 450 444 461 444 q 430 452 438 444 q 422 471 422 460 q 430 490 422 482 q 450 499 438 499 z "},"ʬ":{"ha":524,"x_min":60,"x_max":464,"o":"m 464 917 l 379 556 l 343 556 l 263 890 l 181 556 l 144 556 l 60 917 l 88 917 l 164 578 l 247 917 l 279 917 l 361 578 l 438 917 l 464 917 m 464 361 l 379 0 l 343 0 l 263 335 l 181 0 l 144 0 l 60 361 l 88 361 l 164 22 l 247 361 l 279 361 l 361 22 l 438 361 l 464 361 z "},"ƀ":{"ha":650,"x_min":53,"x_max":569,"o":"m 360 735 q 515 643 461 735 q 569 367 569 551 q 513 83 569 181 q 350 -14 457 -14 q 168 108 242 -14 l 165 0 l 139 0 l 139 874 l 53 874 l 53 901 l 139 901 l 139 1018 l 169 1022 l 169 901 l 374 901 l 374 874 l 169 874 l 169 610 q 360 735 246 735 m 349 15 q 489 103 442 15 q 536 367 536 190 q 357 707 536 707 q 253 672 296 707 q 169 569 210 638 l 169 149 q 349 15 244 15 z "},"ƃ":{"ha":644,"x_min":133,"x_max":564,"o":"m 354 735 q 510 643 456 735 q 564 367 564 551 q 508 83 564 181 q 344 -14 451 -14 q 163 108 236 -14 l 160 0 l 133 0 l 133 1017 l 440 1017 l 433 988 l 164 988 l 164 610 q 354 735 240 735 m 343 15 q 483 103 436 15 q 531 367 531 190 q 351 707 531 707 q 247 672 290 707 q 164 569 204 638 l 164 149 q 343 15 239 15 z "},"c":{"ha":521,"x_min":82,"x_max":483,"o":"m 324 735 q 407 718 371 735 q 478 665 443 701 l 460 646 q 324 707 401 707 q 170 621 226 707 q 114 357 114 535 q 170 99 114 183 q 322 15 226 15 q 467 79 403 15 l 483 61 q 324 -14 413 -14 q 147 79 211 -14 q 82 357 82 172 q 147 639 82 543 q 324 735 211 735 z "},"ć":{"ha":521,"x_min":82,"x_max":483,"o":"m 324 735 q 407 718 371 735 q 478 665 443 701 l 460 646 q 324 707 401 707 q 170 621 226 707 q 114 357 114 535 q 170 99 114 183 q 322 15 226 15 q 467 79 403 15 l 483 61 q 324 -14 413 -14 q 147 79 211 -14 q 82 357 82 172 q 147 639 82 543 q 324 735 211 735 m 403 1054 l 421 1025 l 215 908 l 203 928 l 403 1054 z "},"č":{"ha":521,"x_min":82,"x_max":483,"o":"m 324 735 q 407 718 371 735 q 478 665 443 701 l 460 646 q 324 707 401 707 q 170 621 226 707 q 114 357 114 535 q 170 99 114 183 q 322 15 226 15 q 467 79 403 15 l 483 61 q 324 -14 413 -14 q 147 79 211 -14 q 82 357 82 172 q 147 639 82 543 q 324 735 211 735 m 451 1039 l 467 1025 l 329 890 l 313 890 l 175 1025 l 190 1039 l 321 922 l 451 1039 z "},"ç":{"ha":521,"x_min":82,"x_max":483,"o":"m 483 61 q 329 -14 415 -12 l 326 -103 q 431 -196 431 -114 q 402 -269 431 -243 q 332 -294 374 -294 q 253 -269 288 -294 l 267 -247 q 332 -268 296 -268 q 382 -250 363 -268 q 401 -196 401 -232 q 377 -143 401 -160 q 299 -125 353 -126 l 304 -12 q 141 88 200 -6 q 82 357 82 181 q 147 639 82 543 q 324 735 211 735 q 407 718 371 735 q 478 665 443 701 l 460 646 q 324 707 401 707 q 170 621 226 707 q 114 357 114 535 q 170 99 114 183 q 322 15 226 15 q 467 79 403 15 l 483 61 z "},"ĉ":{"ha":521,"x_min":82,"x_max":483,"o":"m 324 735 q 407 718 371 735 q 478 665 443 701 l 460 646 q 324 707 401 707 q 170 621 226 707 q 114 357 114 535 q 170 99 114 183 q 322 15 226 15 q 467 79 403 15 l 483 61 q 324 -14 413 -14 q 147 79 211 -14 q 82 357 82 172 q 147 639 82 543 q 324 735 211 735 m 189 910 l 174 924 l 311 1058 l 329 1058 l 465 924 l 450 910 l 319 1026 l 189 910 z "},"ɕ":{"ha":542,"x_min":82,"x_max":503,"o":"m 386 281 q 472 244 440 281 q 503 149 503 207 q 456 31 503 75 q 329 -14 410 -14 q 265 -5 293 -14 q 208 24 236 4 l 172 -76 l 147 -67 l 186 39 q 109 167 136 86 q 82 357 82 247 q 147 639 82 543 q 324 735 211 735 q 407 718 371 735 q 478 665 443 701 l 460 646 q 324 707 401 707 q 170 621 226 707 q 114 357 114 535 q 136 183 114 256 q 199 68 158 110 q 281 230 236 179 q 386 281 326 281 m 329 15 q 433 49 392 15 q 474 149 474 82 q 451 225 474 197 q 386 253 429 253 q 297 206 335 253 q 219 51 258 160 q 329 15 268 15 z "},"ċ":{"ha":521,"x_min":82,"x_max":483,"o":"m 324 735 q 407 718 371 735 q 478 665 443 701 l 460 646 q 324 707 401 707 q 170 621 226 707 q 114 357 114 535 q 170 99 114 183 q 322 15 226 15 q 467 79 403 15 l 483 61 q 324 -14 413 -14 q 147 79 211 -14 q 82 357 82 172 q 147 639 82 543 q 324 735 211 735 m 321 1006 q 340 997 332 1006 q 347 978 347 989 q 340 959 347 967 q 321 951 332 951 q 301 959 308 951 q 293 978 293 967 q 301 997 293 989 q 321 1006 308 1006 z "},"ƈ":{"ha":521,"x_min":82,"x_max":665,"o":"m 563 1024 q 665 981 617 1024 l 649 961 q 608 987 628 978 q 563 996 589 996 q 501 969 524 996 q 478 882 478 942 l 478 667 l 475 668 l 478 665 l 463 649 q 397 692 431 678 q 324 707 364 707 q 170 621 226 707 q 114 357 114 535 q 170 99 114 183 q 322 15 226 15 q 467 79 403 15 l 483 61 q 324 -14 413 -14 q 147 79 211 -14 q 82 357 82 172 q 147 639 82 543 q 324 735 211 735 q 447 692 394 735 l 447 883 q 478 988 447 951 q 563 1024 510 1024 z "},"ʗ":{"ha":547,"x_min":106,"x_max":510,"o":"m 350 735 q 433 718 397 735 q 504 665 469 701 l 486 646 q 350 707 428 707 q 196 584 253 707 q 139 224 139 461 q 196 -132 139 -12 q 351 -251 253 -251 q 493 -187 432 -251 l 510 -206 q 350 -279 443 -279 q 171 -151 236 -279 q 106 224 106 -24 q 171 603 106 471 q 350 735 236 735 z "},"ȼ":{"ha":521,"x_min":82,"x_max":483,"o":"m 483 61 q 324 -14 413 -14 q 233 4 274 -14 l 213 -92 l 192 -87 l 214 14 q 117 138 151 51 q 82 357 82 224 q 147 639 82 543 q 324 735 211 735 q 375 729 354 735 l 394 814 l 415 811 l 396 724 q 478 665 438 708 l 460 646 q 389 696 429 679 l 240 33 q 322 15 276 15 q 467 79 403 15 l 483 61 m 114 357 q 142 158 114 236 q 221 44 169 81 l 369 701 q 324 707 351 707 q 170 621 226 707 q 114 357 114 535 z "},"d":{"ha":650,"x_min":82,"x_max":518,"o":"m 518 1018 l 518 0 l 490 0 l 488 122 q 303 -14 424 -14 q 141 83 200 -14 q 82 358 82 179 q 144 634 82 533 q 314 735 206 735 q 488 621 422 735 l 488 1022 l 518 1018 m 303 15 q 410 55 367 15 q 488 172 454 94 l 488 576 q 314 707 424 707 q 168 617 222 707 q 114 364 114 528 q 164 104 114 193 q 303 15 214 15 z "},"ð":{"ha":621,"x_min":82,"x_max":533,"o":"m 350 922 q 488 722 442 842 q 533 418 533 601 q 473 93 533 200 q 306 -14 413 -14 q 141 76 200 -14 q 82 319 82 165 q 140 548 82 456 q 297 640 197 640 q 407 606 358 640 q 499 507 456 572 q 451 733 490 638 q 332 904 413 828 l 238 786 l 214 796 l 313 919 q 240 967 281 946 q 161 997 200 988 l 168 1025 q 331 939 257 1000 l 407 1036 l 428 1021 l 350 922 m 306 15 q 451 116 400 15 q 501 421 501 217 q 500 465 501 454 q 299 613 411 613 q 163 531 211 613 q 114 318 114 449 q 164 95 114 175 q 306 15 214 15 z "},"ȸ":{"ha":953,"x_min":82,"x_max":871,"o":"m 672 735 q 819 645 768 735 q 871 367 871 556 q 818 82 871 178 q 668 -14 765 -14 q 568 22 613 -14 q 494 113 524 58 l 490 0 l 468 0 l 464 113 q 392 22 435 57 q 292 -14 349 -14 q 138 80 194 -14 q 82 358 82 174 q 140 637 82 539 q 300 735 197 735 q 464 625 397 735 l 464 1018 l 494 1022 l 494 618 q 572 702 526 669 q 672 735 617 735 m 293 15 q 390 52 349 15 q 464 157 431 89 l 464 585 q 390 675 428 643 q 300 707 351 707 q 165 619 217 707 q 114 364 114 532 q 162 101 114 188 q 293 15 210 15 m 667 15 q 794 101 750 15 q 839 367 839 188 q 672 707 839 707 q 574 674 617 707 q 494 582 532 642 l 494 160 q 667 15 564 15 z "},"ď":{"ha":650,"x_min":82,"x_max":651,"o":"m 518 1018 l 518 0 l 490 0 l 488 122 q 303 -14 424 -14 q 141 83 200 -14 q 82 358 82 179 q 144 634 82 533 q 314 735 206 735 q 488 621 422 735 l 488 1022 l 518 1018 m 303 15 q 410 55 367 15 q 488 172 454 94 l 488 576 q 314 707 424 707 q 168 617 222 707 q 114 364 114 528 q 164 104 114 193 q 303 15 214 15 m 619 817 l 651 1018 l 619 1021 l 599 821 l 619 817 z "},"ḓ":{"ha":650,"x_min":82,"x_max":518,"o":"m 518 1018 l 518 0 l 490 0 l 488 122 q 303 -14 424 -14 q 141 83 200 -14 q 82 358 82 179 q 144 634 82 533 q 314 735 206 735 q 488 621 422 735 l 488 1022 l 518 1018 m 303 15 q 410 55 367 15 q 488 172 454 94 l 488 576 q 314 707 424 707 q 168 617 222 707 q 114 364 114 528 q 164 104 114 193 q 303 15 214 15 m 200 -253 l 185 -239 l 322 -104 l 340 -104 l 476 -239 l 461 -253 l 331 -136 l 200 -253 z "},"đ":{"ha":656,"x_min":82,"x_max":604,"o":"m 604 901 l 604 874 l 518 874 l 518 0 l 490 0 l 488 122 q 303 -14 424 -14 q 141 83 200 -14 q 82 358 82 179 q 144 634 82 533 q 314 735 206 735 q 488 621 422 735 l 488 874 l 292 874 l 292 901 l 488 901 l 488 1022 l 518 1018 l 518 901 l 604 901 m 303 15 q 410 55 367 15 q 488 172 454 94 l 488 576 q 314 707 424 707 q 168 617 222 707 q 114 364 114 528 q 164 104 114 193 q 303 15 214 15 z "},"ȡ":{"ha":743,"x_min":82,"x_max":785,"o":"m 679 253 q 756 219 726 253 q 785 138 785 186 q 742 28 785 71 q 633 -14 699 -14 q 521 36 563 -14 l 474 -76 l 450 -64 l 506 63 q 489 124 490 90 q 414 23 458 60 q 303 -14 369 -14 q 141 83 200 -14 q 82 358 82 179 q 144 634 82 533 q 314 735 206 735 q 488 621 422 735 l 488 1022 l 518 1018 l 518 143 q 522 100 518 119 q 589 215 553 176 q 679 253 625 253 m 303 15 q 410 55 367 15 q 488 172 454 94 l 488 576 q 314 707 424 707 q 168 617 222 707 q 114 364 114 528 q 164 104 114 193 q 303 15 214 15 m 633 15 q 720 49 686 15 q 754 138 754 82 q 734 201 754 176 q 678 225 714 225 q 602 189 632 225 q 535 67 572 153 q 633 15 563 15 z "},"ḋ":{"ha":650,"x_min":82,"x_max":518,"o":"m 518 1018 l 518 0 l 490 0 l 488 122 q 303 -14 424 -14 q 141 83 200 -14 q 82 358 82 179 q 144 634 82 533 q 314 735 206 735 q 488 621 422 735 l 488 1022 l 518 1018 m 303 15 q 410 55 367 15 q 488 172 454 94 l 488 576 q 314 707 424 707 q 168 617 222 707 q 114 364 114 528 q 164 104 114 193 q 303 15 214 15 m 315 1251 q 334 1243 326 1251 q 342 1224 342 1235 q 334 1205 342 1213 q 315 1197 326 1197 q 295 1205 303 1197 q 288 1224 288 1213 q 295 1243 288 1235 q 315 1251 303 1251 z "},"ḍ":{"ha":650,"x_min":82,"x_max":518,"o":"m 518 1018 l 518 0 l 490 0 l 488 122 q 303 -14 424 -14 q 141 83 200 -14 q 82 358 82 179 q 144 634 82 533 q 314 735 206 735 q 488 621 422 735 l 488 1022 l 518 1018 m 303 15 q 410 55 367 15 q 488 172 454 94 l 488 576 q 314 707 424 707 q 168 617 222 707 q 114 364 114 528 q 164 104 114 193 q 303 15 214 15 m 329 -192 q 310 -183 318 -192 q 303 -164 303 -175 q 310 -145 303 -153 q 329 -137 318 -137 q 349 -145 342 -137 q 357 -164 357 -153 q 349 -183 357 -175 q 329 -192 342 -192 z "},"ƍ":{"ha":635,"x_min":82,"x_max":554,"o":"m 357 61 q 462 -15 431 25 q 493 -117 493 -54 q 443 -240 493 -190 q 313 -289 393 -289 q 223 -274 263 -289 q 144 -226 183 -258 l 161 -206 q 233 -248 199 -235 q 313 -261 267 -261 q 422 -221 382 -261 q 461 -115 461 -181 q 448 -49 461 -76 q 401 4 435 -21 q 303 58 367 29 q 174 140 222 94 q 104 250 126 185 q 82 413 82 315 q 144 652 82 569 q 321 735 207 735 q 492 652 431 735 q 554 413 554 569 q 502 191 554 279 q 357 61 450 103 m 113 413 q 133 258 113 318 q 199 155 153 197 q 331 74 246 113 q 471 196 419 113 q 522 413 522 279 q 469 631 522 557 q 321 706 417 706 q 166 631 219 706 q 113 413 113 557 z "},"ʤ":{"ha":981,"x_min":82,"x_max":938,"o":"m 678 269 q 938 3 938 269 q 876 -198 938 -122 q 707 -274 814 -274 q 590 -245 640 -274 q 496 -160 540 -217 l 517 -144 q 603 -221 560 -197 q 707 -244 647 -244 q 855 -178 803 -244 q 907 3 907 -111 q 851 183 907 126 q 679 240 794 240 l 618 240 l 618 269 l 874 693 l 518 693 l 518 0 l 490 0 l 488 122 q 303 -14 424 -14 q 141 83 200 -14 q 82 358 82 179 q 144 634 82 533 q 314 735 206 735 q 488 621 422 735 l 488 1022 l 518 1018 l 518 721 l 908 721 l 908 696 l 650 269 l 678 269 m 303 15 q 410 55 367 15 q 488 172 454 94 l 488 576 q 314 707 424 707 q 168 617 222 707 q 114 364 114 528 q 164 104 114 193 q 303 15 214 15 z "},"ɗ":{"ha":650,"x_min":82,"x_max":706,"o":"m 603 1024 q 706 981 660 1024 l 689 961 q 649 987 668 978 q 603 996 629 996 q 541 969 564 996 q 518 882 518 942 l 518 0 l 490 0 l 488 122 q 413 23 457 60 q 303 -14 368 -14 q 141 83 200 -14 q 82 358 82 181 q 144 633 82 531 q 313 735 206 735 q 488 619 422 735 l 488 883 q 519 988 488 951 q 603 1024 550 1024 m 303 15 q 410 55 367 15 q 488 172 454 94 l 488 578 q 415 671 458 635 q 313 707 372 707 q 168 617 222 707 q 114 364 114 526 q 164 105 114 194 q 303 15 214 15 z "},"ḏ":{"ha":650,"x_min":82,"x_max":518,"o":"m 518 1018 l 518 0 l 490 0 l 488 122 q 303 -14 424 -14 q 141 83 200 -14 q 82 358 82 179 q 144 634 82 533 q 314 735 206 735 q 488 621 422 735 l 488 1022 l 518 1018 m 303 15 q 410 55 367 15 q 488 172 454 94 l 488 576 q 314 707 424 707 q 168 617 222 707 q 114 364 114 528 q 164 104 114 193 q 303 15 214 15 m 453 -193 l 211 -193 l 211 -165 l 453 -165 l 453 -193 z "},"ɖ":{"ha":650,"x_min":82,"x_max":706,"o":"m 706 -232 q 600 -274 661 -274 q 519 -240 550 -274 q 488 -142 488 -207 l 488 121 q 303 -14 424 -14 q 141 83 200 -14 q 82 358 82 179 q 144 634 82 533 q 314 735 206 735 q 488 621 422 735 l 488 1022 l 518 1018 l 518 -143 q 541 -222 518 -197 q 601 -246 564 -246 q 689 -211 651 -246 l 706 -232 m 303 15 q 410 55 367 15 q 488 172 454 94 l 488 578 q 314 707 424 707 q 168 617 222 707 q 114 364 114 528 q 164 104 114 193 q 303 15 214 15 z "},"ƌ":{"ha":650,"x_min":82,"x_max":518,"o":"m 518 0 l 490 0 l 488 122 q 303 -14 424 -14 q 141 83 200 -14 q 82 358 82 179 q 144 634 82 533 q 314 735 206 735 q 488 621 422 735 l 488 988 l 213 988 l 213 1017 l 518 1017 l 518 0 m 303 15 q 410 55 367 15 q 488 172 454 94 l 488 578 q 314 707 424 707 q 168 617 222 707 q 114 364 114 528 q 164 104 114 193 q 303 15 214 15 z "},"ǳ":{"ha":1119,"x_min":82,"x_max":1078,"o":"m 518 1018 l 518 0 l 490 0 l 488 122 q 303 -14 424 -14 q 141 83 200 -14 q 82 358 82 179 q 144 634 82 533 q 314 735 206 735 q 488 621 422 735 l 488 1022 l 518 1018 m 303 15 q 410 55 367 15 q 488 172 454 94 l 488 576 q 314 707 424 707 q 168 617 222 707 q 114 364 114 528 q 164 104 114 193 q 303 15 214 15 m 1078 721 l 1078 696 l 719 29 l 1071 29 l 1068 0 l 685 0 l 685 25 l 1044 693 l 715 693 l 715 721 l 1078 721 z "},"ʣ":{"ha":971,"x_min":82,"x_max":928,"o":"m 928 696 l 551 29 l 921 29 l 918 0 l 490 0 l 488 122 q 303 -14 424 -14 q 141 83 200 -14 q 82 358 82 179 q 144 634 82 533 q 314 735 206 735 q 488 621 422 735 l 488 1022 l 518 1018 l 518 721 l 928 721 l 928 696 m 303 15 q 410 55 367 15 q 488 172 454 94 l 488 576 q 314 707 424 707 q 168 617 222 707 q 114 364 114 528 q 164 104 114 193 q 303 15 214 15 m 518 28 l 894 693 l 518 693 l 518 28 z "},"ǆ":{"ha":1119,"x_min":82,"x_max":1078,"o":"m 518 1018 l 518 0 l 490 0 l 488 122 q 303 -14 424 -14 q 141 83 200 -14 q 82 358 82 179 q 144 634 82 533 q 314 735 206 735 q 488 621 422 735 l 488 1022 l 518 1018 m 303 15 q 410 55 367 15 q 488 172 454 94 l 488 576 q 314 707 424 707 q 168 617 222 707 q 114 364 114 528 q 164 104 114 193 q 303 15 214 15 m 1078 721 l 1078 696 l 719 29 l 1071 29 l 1068 0 l 685 0 l 685 25 l 1044 693 l 715 693 l 715 721 l 1078 721 m 1025 1039 l 1040 1025 l 903 890 l 886 890 l 749 1025 l 764 1039 l 894 922 l 1025 1039 z "},"ʥ":{"ha":974,"x_min":82,"x_max":990,"o":"m 990 146 q 940 36 990 69 q 775 0 889 3 q 772 -85 772 -58 l 774 -142 l 747 -142 l 746 -83 q 749 0 746 -56 l 490 0 l 488 122 q 303 -14 424 -14 q 141 83 200 -14 q 82 358 82 179 q 144 634 82 533 q 314 735 206 735 q 488 621 422 735 l 488 1022 l 518 1018 l 518 721 l 921 721 l 921 696 l 549 29 l 750 29 q 889 265 763 265 q 963 233 935 265 q 990 146 990 201 m 303 15 q 410 55 367 15 q 488 172 454 94 l 488 576 q 314 707 424 707 q 168 617 222 707 q 114 364 114 528 q 164 104 114 193 q 303 15 214 15 m 518 693 l 518 31 l 888 693 l 518 693 m 888 239 q 811 191 839 239 q 778 29 783 143 q 919 56 878 29 q 961 146 961 82 q 942 215 961 190 q 888 239 922 239 z "},"e":{"ha":601,"x_min":82,"x_max":528,"o":"m 528 394 q 525 342 528 372 l 113 342 q 172 96 117 176 q 319 15 228 15 q 407 33 369 15 q 483 90 444 51 l 503 71 q 418 8 461 29 q 321 -14 375 -14 q 146 81 210 -14 q 82 354 82 175 q 144 637 82 539 q 313 735 206 735 q 474 646 419 735 q 528 394 528 557 m 496 368 q 497 406 497 379 q 451 628 497 549 q 313 707 406 707 q 169 623 224 707 q 113 368 114 539 l 496 368 z "},"é":{"ha":601,"x_min":82,"x_max":528,"o":"m 528 394 q 525 342 528 372 l 113 342 q 172 96 117 176 q 319 15 228 15 q 407 33 369 15 q 483 90 444 51 l 503 71 q 418 8 461 29 q 321 -14 375 -14 q 146 81 210 -14 q 82 354 82 175 q 144 637 82 539 q 313 735 206 735 q 474 646 419 735 q 528 394 528 557 m 496 368 q 497 406 497 379 q 451 628 497 549 q 313 707 406 707 q 169 623 224 707 q 113 368 114 539 l 496 368 m 394 1054 l 413 1025 l 207 908 l 194 928 l 394 1054 z "},"ĕ":{"ha":601,"x_min":82,"x_max":528,"o":"m 528 394 q 525 342 528 372 l 113 342 q 172 96 117 176 q 319 15 228 15 q 407 33 369 15 q 483 90 444 51 l 503 71 q 418 8 461 29 q 321 -14 375 -14 q 146 81 210 -14 q 82 354 82 175 q 144 637 82 539 q 313 735 206 735 q 474 646 419 735 q 528 394 528 557 m 496 368 q 497 406 497 379 q 451 628 497 549 q 313 707 406 707 q 169 623 224 707 q 113 368 114 539 l 496 368 m 313 919 q 228 951 261 919 q 186 1039 194 983 l 208 1044 q 313 949 231 949 q 417 1044 397 949 l 439 1039 q 398 951 432 983 q 313 919 364 919 z "},"ě":{"ha":601,"x_min":82,"x_max":528,"o":"m 528 394 q 525 342 528 372 l 113 342 q 172 96 117 176 q 319 15 228 15 q 407 33 369 15 q 483 90 444 51 l 503 71 q 418 8 461 29 q 321 -14 375 -14 q 146 81 210 -14 q 82 354 82 175 q 144 637 82 539 q 313 735 206 735 q 474 646 419 735 q 528 394 528 557 m 496 368 q 497 406 497 379 q 451 628 497 549 q 313 707 406 707 q 169 623 224 707 q 113 368 114 539 l 496 368 m 443 1039 l 458 1025 l 321 890 l 304 890 l 167 1025 l 182 1039 l 313 922 l 443 1039 z "},"ȩ":{"ha":601,"x_min":82,"x_max":528,"o":"m 528 394 q 525 342 528 372 l 113 342 q 172 96 117 176 q 319 15 228 15 q 407 33 369 15 q 483 90 444 51 l 503 71 q 422 9 463 31 q 329 -14 381 -12 l 326 -103 q 431 -196 431 -114 q 402 -269 431 -243 q 332 -294 374 -294 q 253 -269 288 -294 l 267 -247 q 332 -268 296 -268 q 382 -250 363 -268 q 401 -196 401 -232 q 377 -143 401 -160 q 299 -125 353 -126 l 304 -14 q 142 88 201 -7 q 82 354 82 183 q 144 637 82 539 q 313 735 206 735 q 474 646 419 735 q 528 394 528 557 m 496 368 q 497 406 497 379 q 451 628 497 549 q 313 707 406 707 q 169 623 224 707 q 113 368 114 539 l 496 368 z "},"ê":{"ha":601,"x_min":82,"x_max":528,"o":"m 528 394 q 525 342 528 372 l 113 342 q 172 96 117 176 q 319 15 228 15 q 407 33 369 15 q 483 90 444 51 l 503 71 q 418 8 461 29 q 321 -14 375 -14 q 146 81 210 -14 q 82 354 82 175 q 144 637 82 539 q 313 735 206 735 q 474 646 419 735 q 528 394 528 557 m 496 368 q 497 406 497 379 q 451 628 497 549 q 313 707 406 707 q 169 623 224 707 q 113 368 114 539 l 496 368 m 181 910 l 165 924 l 303 1058 l 321 1058 l 457 924 l 442 910 l 311 1026 l 181 910 z "},"ế":{"ha":601,"x_min":82,"x_max":546,"o":"m 528 394 q 525 342 528 372 l 113 342 q 172 96 117 176 q 319 15 228 15 q 407 33 369 15 q 483 90 444 51 l 503 71 q 418 8 461 29 q 321 -14 375 -14 q 146 81 210 -14 q 82 354 82 175 q 144 637 82 539 q 313 735 206 735 q 474 646 419 735 q 528 394 528 557 m 496 368 q 497 406 497 379 q 451 628 497 549 q 313 707 406 707 q 169 623 224 707 q 113 368 114 539 l 496 368 m 181 815 l 165 831 l 303 957 l 319 957 l 458 831 l 442 815 l 311 925 l 181 815 m 519 1114 l 546 1094 l 424 935 l 406 947 l 519 1114 z "},"ệ":{"ha":601,"x_min":82,"x_max":528,"o":"m 528 394 q 525 342 528 372 l 113 342 q 172 96 117 176 q 319 15 228 15 q 407 33 369 15 q 483 90 444 51 l 503 71 q 418 8 461 29 q 321 -14 375 -14 q 146 81 210 -14 q 82 354 82 175 q 144 637 82 539 q 313 735 206 735 q 474 646 419 735 q 528 394 528 557 m 496 368 q 497 406 497 379 q 451 628 497 549 q 313 707 406 707 q 169 623 224 707 q 113 368 114 539 l 496 368 m 181 910 l 165 924 l 303 1058 l 321 1058 l 457 924 l 442 910 l 311 1026 l 181 910 m 321 -192 q 302 -183 310 -192 q 294 -164 294 -175 q 302 -145 294 -153 q 321 -137 310 -137 q 341 -145 333 -137 q 349 -164 349 -153 q 341 -183 349 -175 q 321 -192 333 -192 z "},"ề":{"ha":601,"x_min":82,"x_max":528,"o":"m 528 394 q 525 342 528 372 l 113 342 q 172 96 117 176 q 319 15 228 15 q 407 33 369 15 q 483 90 444 51 l 503 71 q 418 8 461 29 q 321 -14 375 -14 q 146 81 210 -14 q 82 354 82 175 q 144 637 82 539 q 313 735 206 735 q 474 646 419 735 q 528 394 528 557 m 496 368 q 497 406 497 379 q 451 628 497 549 q 313 707 406 707 q 169 623 224 707 q 113 368 114 539 l 496 368 m 182 815 l 167 831 l 304 957 l 321 957 l 460 831 l 443 815 l 313 925 l 182 815 m 108 1114 l 222 947 l 204 935 l 82 1094 l 108 1114 z "},"ể":{"ha":601,"x_min":82,"x_max":528,"o":"m 528 394 q 525 342 528 372 l 113 342 q 172 96 117 176 q 319 15 228 15 q 407 33 369 15 q 483 90 444 51 l 503 71 q 418 8 461 29 q 321 -14 375 -14 q 146 81 210 -14 q 82 354 82 175 q 144 637 82 539 q 313 735 206 735 q 474 646 419 735 q 528 394 528 557 m 496 368 q 497 406 497 379 q 451 628 497 549 q 313 707 406 707 q 169 623 224 707 q 113 368 114 539 l 496 368 m 181 815 l 165 831 l 303 957 l 319 957 l 458 831 l 442 815 l 311 925 l 181 815 m 417 1019 q 493 1092 493 1025 q 477 1140 493 1122 q 433 1157 461 1157 q 402 1152 415 1157 q 371 1138 389 1147 l 358 1158 q 438 1185 397 1185 q 500 1160 476 1185 q 524 1093 524 1135 q 444 1000 524 1011 l 444 922 l 417 922 l 417 1019 z "},"ễ":{"ha":601,"x_min":82,"x_max":528,"o":"m 528 394 q 525 342 528 372 l 113 342 q 172 96 117 176 q 319 15 228 15 q 407 33 369 15 q 483 90 444 51 l 503 71 q 418 8 461 29 q 321 -14 375 -14 q 146 81 210 -14 q 82 354 82 175 q 144 637 82 539 q 313 735 206 735 q 474 646 419 735 q 528 394 528 557 m 496 368 q 497 406 497 379 q 451 628 497 549 q 313 707 406 707 q 169 623 224 707 q 113 368 114 539 l 496 368 m 181 803 l 165 818 l 303 944 l 319 944 l 458 818 l 442 803 l 311 913 l 181 803 m 378 1010 q 341 1018 358 1010 q 303 1043 324 1026 q 286 1054 299 1046 q 263 1067 274 1063 q 244 1071 253 1071 q 210 1060 225 1071 q 178 1022 196 1049 l 158 1033 q 199 1081 179 1065 q 244 1097 219 1097 q 275 1090 261 1097 q 313 1067 289 1083 q 348 1044 333 1051 q 378 1036 363 1036 q 413 1049 397 1036 q 446 1093 428 1063 l 465 1083 q 425 1027 446 1044 q 378 1010 404 1010 z "},"ȅ":{"ha":601,"x_min":82,"x_max":528,"o":"m 528 394 q 525 342 528 372 l 113 342 q 172 96 117 176 q 319 15 228 15 q 407 33 369 15 q 483 90 444 51 l 503 71 q 418 8 461 29 q 321 -14 375 -14 q 146 81 210 -14 q 82 354 82 175 q 144 637 82 539 q 313 735 206 735 q 474 646 419 735 q 528 394 528 557 m 496 368 q 497 406 497 379 q 451 628 497 549 q 313 707 406 707 q 169 623 224 707 q 113 368 114 539 l 496 368 m 183 1099 l 265 915 l 244 906 l 154 1085 l 183 1099 m 311 1097 l 386 921 l 365 911 l 282 1083 l 311 1097 z "},"ë":{"ha":601,"x_min":82,"x_max":528,"o":"m 528 394 q 525 342 528 372 l 113 342 q 172 96 117 176 q 319 15 228 15 q 407 33 369 15 q 483 90 444 51 l 503 71 q 418 8 461 29 q 321 -14 375 -14 q 146 81 210 -14 q 82 354 82 175 q 144 637 82 539 q 313 735 206 735 q 474 646 419 735 q 528 394 528 557 m 496 368 q 497 406 497 379 q 451 628 497 549 q 313 707 406 707 q 169 623 224 707 q 113 368 114 539 l 496 368 m 215 989 q 235 981 228 989 q 242 961 242 974 q 235 942 242 950 q 215 935 228 935 q 197 942 204 935 q 189 961 189 950 q 197 981 189 972 q 215 989 204 989 m 408 989 q 427 981 419 989 q 435 961 435 972 q 427 942 435 950 q 408 935 419 935 q 388 942 396 935 q 381 961 381 950 q 388 981 381 972 q 408 989 396 989 z "},"ė":{"ha":601,"x_min":82,"x_max":528,"o":"m 528 394 q 525 342 528 372 l 113 342 q 172 96 117 176 q 319 15 228 15 q 407 33 369 15 q 483 90 444 51 l 503 71 q 418 8 461 29 q 321 -14 375 -14 q 146 81 210 -14 q 82 354 82 175 q 144 637 82 539 q 313 735 206 735 q 474 646 419 735 q 528 394 528 557 m 496 368 q 497 406 497 379 q 451 628 497 549 q 313 707 406 707 q 169 623 224 707 q 113 368 114 539 l 496 368 m 313 1006 q 331 997 324 1006 q 339 978 339 989 q 331 959 339 967 q 313 951 324 951 q 292 959 300 951 q 285 978 285 967 q 292 997 285 989 q 313 1006 300 1006 z "},"ẹ":{"ha":601,"x_min":82,"x_max":528,"o":"m 528 394 q 525 342 528 372 l 113 342 q 172 96 117 176 q 319 15 228 15 q 407 33 369 15 q 483 90 444 51 l 503 71 q 418 8 461 29 q 321 -14 375 -14 q 146 81 210 -14 q 82 354 82 175 q 144 637 82 539 q 313 735 206 735 q 474 646 419 735 q 528 394 528 557 m 496 368 q 497 406 497 379 q 451 628 497 549 q 313 707 406 707 q 169 623 224 707 q 113 368 114 539 l 496 368 m 321 -192 q 302 -183 310 -192 q 294 -164 294 -175 q 302 -145 294 -153 q 321 -137 310 -137 q 341 -145 333 -137 q 349 -164 349 -153 q 341 -183 349 -175 q 321 -192 333 -192 z "},"è":{"ha":601,"x_min":82,"x_max":528,"o":"m 528 394 q 525 342 528 372 l 113 342 q 172 96 117 176 q 319 15 228 15 q 407 33 369 15 q 483 90 444 51 l 503 71 q 418 8 461 29 q 321 -14 375 -14 q 146 81 210 -14 q 82 354 82 175 q 144 637 82 539 q 313 735 206 735 q 474 646 419 735 q 528 394 528 557 m 496 368 q 497 406 497 379 q 451 628 497 549 q 313 707 406 707 q 169 623 224 707 q 113 368 114 539 l 496 368 m 225 1054 l 425 928 l 411 908 l 207 1025 l 225 1054 z "},"ẻ":{"ha":601,"x_min":82,"x_max":528,"o":"m 528 394 q 525 342 528 372 l 113 342 q 172 96 117 176 q 319 15 228 15 q 407 33 369 15 q 483 90 444 51 l 503 71 q 418 8 461 29 q 321 -14 375 -14 q 146 81 210 -14 q 82 354 82 175 q 144 637 82 539 q 313 735 206 735 q 474 646 419 735 q 528 394 528 557 m 496 368 q 497 406 497 379 q 451 628 497 549 q 313 707 406 707 q 169 623 224 707 q 113 368 114 539 l 496 368 m 299 961 q 375 1033 375 967 q 359 1081 375 1064 q 315 1099 343 1099 q 284 1094 297 1099 q 253 1079 271 1089 l 240 1100 q 319 1126 279 1126 q 382 1101 358 1126 q 406 1035 406 1076 q 326 942 406 953 l 326 864 l 299 864 l 299 961 z "},"ȇ":{"ha":601,"x_min":82,"x_max":528,"o":"m 528 394 q 525 342 528 372 l 113 342 q 172 96 117 176 q 319 15 228 15 q 407 33 369 15 q 483 90 444 51 l 503 71 q 418 8 461 29 q 321 -14 375 -14 q 146 81 210 -14 q 82 354 82 175 q 144 637 82 539 q 313 735 206 735 q 474 646 419 735 q 528 394 528 557 m 496 368 q 497 406 497 379 q 451 628 497 549 q 313 707 406 707 q 169 623 224 707 q 113 368 114 539 l 496 368 m 313 1007 q 398 975 364 1007 q 439 888 432 943 l 417 882 q 313 978 397 978 q 208 882 231 978 l 186 888 q 228 975 194 943 q 313 1007 261 1007 z "},"ē":{"ha":601,"x_min":82,"x_max":528,"o":"m 528 394 q 525 342 528 372 l 113 342 q 172 96 117 176 q 319 15 228 15 q 407 33 369 15 q 483 90 444 51 l 503 71 q 418 8 461 29 q 321 -14 375 -14 q 146 81 210 -14 q 82 354 82 175 q 144 637 82 539 q 313 735 206 735 q 474 646 419 735 q 528 394 528 557 m 496 368 q 497 406 497 379 q 451 628 497 549 q 313 707 406 707 q 169 623 224 707 q 113 368 114 539 l 496 368 m 433 951 l 192 951 l 192 979 l 433 979 l 433 951 z "},"ę":{"ha":601,"x_min":82,"x_max":528,"o":"m 528 394 q 525 342 528 372 l 113 342 q 172 96 117 176 q 319 15 228 15 q 407 33 369 15 q 483 90 444 51 l 503 71 q 401 1 453 21 q 304 -71 338 -33 q 271 -161 271 -108 q 292 -222 271 -200 q 351 -244 313 -244 q 413 -235 379 -244 l 410 -265 q 347 -275 379 -275 q 267 -244 294 -275 q 239 -161 239 -212 q 265 -79 239 -115 q 340 -12 290 -43 q 321 -14 333 -14 q 146 81 210 -14 q 82 354 82 175 q 144 637 82 539 q 313 735 206 735 q 474 646 419 735 q 528 394 528 557 m 496 368 q 497 406 497 379 q 451 628 497 549 q 313 707 406 707 q 169 623 224 707 q 113 368 114 539 l 496 368 z "},"ɛ":{"ha":514,"x_min":82,"x_max":478,"o":"m 293 735 q 465 672 390 735 l 450 650 q 378 692 414 678 q 296 707 342 707 q 178 664 221 707 q 136 549 136 621 q 178 437 136 481 q 294 393 221 393 l 361 393 l 357 365 l 292 365 q 158 321 203 365 q 113 190 113 276 q 160 61 113 107 q 286 15 207 15 q 384 34 344 15 q 460 90 424 53 l 478 72 q 394 8 440 31 q 286 -14 349 -14 q 138 40 194 -14 q 82 190 82 94 q 124 326 82 278 q 238 381 165 374 q 140 438 174 394 q 106 549 106 482 q 158 685 106 635 q 293 735 210 735 z "},"ʚ":{"ha":624,"x_min":82,"x_max":542,"o":"m 294 -14 q 138 43 194 -14 q 82 203 82 100 q 124 333 82 292 q 246 383 165 375 q 111 547 111 404 q 161 683 111 632 q 297 735 211 735 q 477 640 413 735 q 542 360 542 546 q 478 81 542 175 q 294 -14 415 -14 m 294 15 q 456 101 401 15 q 511 360 511 188 q 455 622 511 536 q 297 707 399 707 q 182 663 222 707 q 142 547 142 619 q 183 435 142 475 q 311 394 225 394 l 343 394 l 344 368 l 304 368 q 161 328 208 368 q 114 203 114 289 q 161 63 114 110 q 294 15 208 15 z "},"ɜ":{"ha":533,"x_min":36,"x_max":453,"o":"m 243 735 q 374 685 325 735 q 424 551 424 635 q 388 437 424 479 q 289 383 353 394 q 453 203 453 367 q 397 44 453 101 q 247 -14 340 -14 q 128 13 179 -14 q 36 83 78 39 l 56 100 q 142 37 99 58 q 247 15 185 15 q 374 63 326 15 q 421 203 421 110 q 373 328 421 289 q 229 368 325 368 l 167 368 l 171 394 l 226 394 q 350 436 308 394 q 392 551 392 478 q 352 664 392 621 q 243 707 313 707 q 153 692 190 707 q 69 642 115 676 l 54 663 q 142 717 97 699 q 243 735 188 735 z "},"ɞ":{"ha":624,"x_min":82,"x_max":542,"o":"m 329 -14 q 145 81 208 -14 q 82 360 82 175 q 147 640 82 546 q 326 735 211 735 q 463 683 413 735 q 513 547 513 632 q 378 383 513 404 q 500 333 458 375 q 542 203 542 292 q 485 43 542 100 q 329 -14 429 -14 m 329 15 q 463 63 415 15 q 510 203 510 110 q 463 328 510 289 q 319 368 415 368 l 279 368 l 281 394 l 313 394 q 440 435 399 394 q 482 547 482 475 q 442 663 482 619 q 326 707 401 707 q 169 622 225 707 q 113 360 113 536 q 167 101 113 188 q 329 15 222 15 z "},"ɝ":{"ha":694,"x_min":36,"x_max":740,"o":"m 740 506 q 638 464 696 464 q 553 499 585 464 q 522 600 522 533 l 522 692 l 410 629 q 424 551 424 597 q 388 437 424 479 q 289 383 353 394 q 453 203 453 367 q 397 44 453 101 q 247 -14 340 -14 q 128 13 179 -14 q 36 83 78 39 l 56 100 q 142 37 99 58 q 247 15 185 15 q 374 63 326 15 q 421 203 421 110 q 373 328 421 289 q 229 368 325 368 l 167 368 l 171 394 l 226 394 q 350 436 308 394 q 392 551 392 478 q 352 664 392 621 q 243 707 313 707 q 153 692 190 707 q 69 642 115 676 l 54 663 q 142 717 97 699 q 243 735 188 735 q 335 713 296 735 q 399 653 375 692 l 522 721 l 553 721 l 553 601 q 576 517 553 544 q 638 490 599 490 q 685 499 665 490 q 724 525 704 508 l 740 506 z "},"ɘ":{"ha":601,"x_min":75,"x_max":521,"o":"m 296 735 q 463 641 404 735 q 521 354 521 547 q 456 81 521 176 q 281 -14 390 -14 q 182 8 225 -14 q 99 71 139 29 l 118 90 q 192 33 156 51 q 282 15 229 15 q 429 96 374 15 q 489 342 485 176 l 76 342 q 75 394 75 357 q 132 645 75 556 q 296 735 189 735 m 106 368 l 489 368 q 296 707 485 707 q 154 627 203 707 q 106 406 106 547 l 106 368 z "},"ʃ":{"ha":296,"x_min":-54,"x_max":350,"o":"m 247 1024 q 350 981 304 1024 l 333 961 q 293 987 313 978 q 247 996 274 996 q 185 969 208 996 q 163 882 163 942 l 163 721 l 164 721 l 164 -142 q 133 -240 164 -207 q 51 -274 101 -274 q -54 -232 -10 -274 l -37 -211 q 50 -246 0 -246 q 110 -222 88 -246 q 133 -143 133 -197 l 133 719 l 132 719 l 132 883 q 163 988 132 951 q 247 1024 194 1024 z "},"ʆ":{"ha":313,"x_min":-87,"x_max":368,"o":"m 181 -37 q 288 -85 238 -56 l 278 -108 q 181 -65 233 -83 l 181 -72 q 142 -221 181 -168 q 31 -274 104 -274 q -56 -240 -24 -274 q -87 -153 -87 -207 q -49 -53 -87 -89 q 56 -18 -10 -18 q 150 -31 103 -18 l 150 883 q 181 988 150 951 q 265 1024 213 1024 q 368 981 322 1024 l 351 961 q 311 987 331 978 q 265 996 292 996 q 203 969 226 996 q 181 882 181 942 l 181 -37 m 31 -247 q 150 -67 150 -247 l 150 -58 q 56 -44 99 -44 q -28 -74 1 -44 q -58 -153 -58 -103 q -35 -222 -58 -196 q 31 -247 -11 -247 z "},"ƪ":{"ha":303,"x_min":-49,"x_max":358,"o":"m 358 -232 q 253 -274 314 -274 q 172 -240 203 -274 q 140 -142 140 -207 l 140 749 q 64 724 106 724 q -18 760 13 724 q -49 869 -49 796 q -18 984 -49 944 q 64 1024 13 1024 q 142 989 114 1024 q 171 893 171 954 l 171 -143 q 194 -222 171 -197 q 254 -246 217 -246 q 342 -211 304 -246 l 358 -232 m 65 751 q 140 776 103 751 l 140 892 q 64 996 140 996 q 3 965 25 996 q -18 871 -18 935 q 3 778 -18 806 q 65 751 25 751 z "},"ʅ":{"ha":425,"x_min":10,"x_max":415,"o":"m 415 28 q 310 -14 371 -14 q 228 19 260 -14 q 197 118 197 53 l 197 594 q 174 681 197 654 q 113 708 151 708 q 67 699 86 708 q 26 674 47 690 l 10 693 q 113 736 56 736 q 197 700 165 736 q 228 596 228 664 l 228 117 q 251 38 228 63 q 311 14 274 14 q 399 49 361 14 l 415 28 z "},"ɇ":{"ha":601,"x_min":82,"x_max":528,"o":"m 308 342 l 239 33 q 319 15 275 15 q 407 34 369 15 q 486 92 444 53 l 503 71 q 418 8 461 29 q 321 -14 375 -14 q 233 4 271 -14 l 211 -92 l 190 -87 l 214 15 q 117 139 151 53 q 82 354 82 225 q 144 635 82 536 q 313 735 206 735 q 374 726 344 735 l 393 814 l 414 811 l 393 718 q 494 604 460 688 q 528 394 528 521 q 525 342 528 372 l 308 342 m 313 707 q 169 623 224 707 q 113 368 114 539 l 293 368 l 367 699 q 313 707 342 707 m 497 406 q 469 590 497 517 q 386 690 442 663 l 314 368 l 496 368 q 497 406 497 379 m 288 342 l 113 342 q 219 44 118 117 l 288 342 z "},"ẽ":{"ha":601,"x_min":82,"x_max":528,"o":"m 528 394 q 525 342 528 372 l 113 342 q 172 96 117 176 q 319 15 228 15 q 407 33 369 15 q 483 90 444 51 l 503 71 q 418 8 461 29 q 321 -14 375 -14 q 146 81 210 -14 q 82 354 82 175 q 144 637 82 539 q 313 735 206 735 q 474 646 419 735 q 528 394 528 557 m 496 368 q 497 406 497 379 q 451 628 497 549 q 313 707 406 707 q 169 623 224 707 q 113 368 114 539 l 496 368 m 379 942 q 342 950 360 942 q 304 975 325 958 q 288 986 300 978 q 265 999 275 994 q 246 1003 254 1003 q 212 992 226 1003 q 179 954 197 981 l 160 965 q 201 1013 181 997 q 246 1029 221 1029 q 276 1022 263 1029 q 314 999 290 1015 q 349 976 335 983 q 379 968 364 968 q 414 981 399 968 q 447 1025 429 994 l 467 1015 q 426 959 447 976 q 379 942 406 942 z "},"ǝ":{"ha":606,"x_min":75,"x_max":525,"o":"m 301 735 q 525 367 525 735 q 465 75 525 164 q 297 -14 406 -14 q 133 75 192 -14 q 75 338 75 164 q 76 379 75 367 l 493 379 q 301 707 492 707 q 213 689 253 707 q 129 635 172 671 l 113 656 q 301 735 201 735 m 297 15 q 442 92 392 15 q 493 351 492 169 l 107 351 q 106 338 106 347 q 297 15 106 15 z "},"ə":{"ha":606,"x_min":75,"x_max":525,"o":"m 301 735 q 525 367 525 735 q 465 75 525 164 q 297 -14 406 -14 q 133 75 192 -14 q 75 338 75 164 q 76 379 75 367 l 493 379 q 301 707 492 707 q 213 689 253 707 q 129 635 172 671 l 113 656 q 301 735 201 735 m 297 15 q 442 92 392 15 q 493 351 492 169 l 107 351 q 106 338 106 347 q 297 15 106 15 z "},"ɚ":{"ha":760,"x_min":75,"x_max":804,"o":"m 804 506 q 701 464 760 464 q 617 499 649 464 q 586 600 586 533 l 586 692 l 476 631 q 525 367 525 540 q 465 75 525 164 q 297 -14 406 -14 q 133 75 192 -14 q 75 338 75 164 q 76 379 75 367 l 493 379 q 301 707 492 707 q 213 689 253 707 q 129 635 172 671 l 113 656 q 301 735 201 735 q 463 654 406 735 l 586 721 l 617 721 l 617 601 q 640 517 617 544 q 701 490 663 490 q 749 499 729 490 q 788 525 768 508 l 804 506 m 297 15 q 442 92 392 15 q 493 351 492 169 l 107 351 q 106 338 106 347 q 297 15 106 15 z "},"ʒ":{"ha":508,"x_min":25,"x_max":467,"o":"m 207 269 q 467 3 467 269 q 405 -198 467 -122 q 236 -274 343 -274 q 119 -245 169 -274 q 25 -160 69 -217 l 46 -144 q 133 -221 89 -197 q 236 -244 176 -244 q 384 -178 332 -244 q 436 3 436 -111 q 380 183 436 126 q 208 240 324 240 l 147 240 l 147 269 l 403 693 l 44 693 l 44 721 l 438 721 l 438 696 l 179 269 l 207 269 z "},"ǯ":{"ha":508,"x_min":25,"x_max":467,"o":"m 207 269 q 467 3 467 269 q 405 -198 467 -122 q 236 -274 343 -274 q 119 -245 169 -274 q 25 -160 69 -217 l 46 -144 q 133 -221 89 -197 q 236 -244 176 -244 q 384 -178 332 -244 q 436 3 436 -111 q 380 183 436 126 q 208 240 324 240 l 147 240 l 147 269 l 403 693 l 44 693 l 44 721 l 438 721 l 438 696 l 179 269 l 207 269 m 372 1039 l 388 1025 l 250 890 l 233 890 l 96 1025 l 111 1039 l 242 922 l 372 1039 z "},"ʓ":{"ha":508,"x_min":1,"x_max":467,"o":"m 467 8 q 431 -146 467 -81 q 326 -244 394 -211 l 358 -325 l 332 -336 l 301 -256 q 189 -274 247 -274 q 49 -232 97 -274 q 1 -117 1 -190 q 33 -19 1 -57 q 118 19 65 19 q 191 -1 160 19 q 252 -73 222 -22 q 317 -218 282 -124 q 406 -130 375 -187 q 436 7 436 -72 q 380 183 436 126 q 207 240 324 240 l 147 240 l 147 269 l 401 693 l 44 693 l 44 721 l 436 721 l 436 696 l 179 269 l 208 269 q 467 8 467 269 m 31 -117 q 189 -244 31 -244 q 292 -228 249 -244 q 232 -93 258 -140 q 179 -26 206 -46 q 119 -7 153 -7 q 54 -37 78 -7 q 31 -117 31 -67 z "},"ƹ":{"ha":508,"x_min":42,"x_max":485,"o":"m 485 -160 q 390 -245 440 -217 q 269 -274 339 -274 q 103 -202 164 -274 q 42 -7 42 -131 q 107 197 42 124 q 303 269 172 269 l 329 269 l 71 696 l 71 721 l 464 721 l 464 693 l 106 693 l 361 269 l 361 240 l 300 240 q 74 -7 74 240 q 124 -182 74 -119 q 269 -244 175 -244 q 376 -221 331 -244 q 464 -144 421 -197 l 485 -160 z "},"ƺ":{"ha":507,"x_min":43,"x_max":463,"o":"m 164 -272 q 74 -208 104 -243 q 44 -124 44 -174 q 90 -32 44 -64 q 239 19 135 0 q 388 78 344 39 q 431 200 431 117 q 391 309 431 275 q 265 343 351 343 l 132 343 l 132 371 l 389 693 l 43 693 l 43 721 l 428 721 l 428 696 l 167 371 l 265 371 q 463 200 463 371 q 412 61 463 107 q 249 -7 361 15 q 115 -49 153 -25 q 76 -124 76 -74 q 99 -194 76 -165 q 174 -249 122 -222 l 164 -272 z "},"f":{"ha":351,"x_min":35,"x_max":414,"o":"m 283 994 q 198 964 229 994 q 167 867 167 933 l 167 721 l 333 721 l 328 693 l 167 693 l 167 0 l 136 0 l 136 693 l 35 693 l 35 721 l 136 721 l 136 871 q 176 983 136 943 q 281 1024 215 1024 q 414 981 350 1024 l 400 957 q 342 985 369 976 q 283 994 315 994 z "},"ḟ":{"ha":351,"x_min":35,"x_max":414,"o":"m 283 994 q 198 964 229 994 q 167 867 167 933 l 167 721 l 333 721 l 328 693 l 167 693 l 167 0 l 136 0 l 136 693 l 35 693 l 35 721 l 136 721 l 136 871 q 176 983 136 943 q 281 1024 215 1024 q 414 981 350 1024 l 400 957 q 342 985 369 976 q 283 994 315 994 m 283 1251 q 302 1243 294 1251 q 310 1224 310 1235 q 302 1205 310 1213 q 283 1197 294 1197 q 263 1205 271 1197 q 256 1224 256 1213 q 263 1243 256 1235 q 283 1251 271 1251 z "},"ʩ":{"ha":985,"x_min":35,"x_max":858,"o":"m 700 735 q 818 680 778 735 q 858 526 858 625 l 858 -142 q 827 -240 858 -207 q 746 -274 796 -274 q 640 -232 685 -274 l 657 -211 q 744 -246 694 -246 q 805 -222 782 -246 q 828 -143 828 -197 l 828 524 q 795 660 828 613 q 697 707 763 707 q 486 529 575 707 l 486 0 l 456 0 l 456 693 l 167 693 l 167 0 l 136 0 l 136 693 l 35 693 l 35 721 l 136 721 l 136 871 q 176 983 136 943 q 281 1024 215 1024 q 414 981 350 1024 l 400 957 q 342 985 369 976 q 283 994 315 994 q 198 964 229 994 q 167 867 167 933 l 167 721 l 482 721 l 485 575 q 578 694 526 653 q 700 735 631 735 z "},"g":{"ha":558,"x_min":49,"x_max":540,"o":"m 540 731 q 364 710 483 711 q 452 634 421 689 q 483 494 483 579 q 430 324 483 385 q 282 264 376 264 q 196 283 240 264 q 138 179 138 242 q 263 88 138 88 l 335 88 q 475 42 425 88 q 525 -79 525 -3 q 465 -221 525 -168 q 286 -274 404 -274 q 105 -228 161 -274 q 49 -81 49 -182 l 78 -81 q 126 -207 79 -169 q 286 -244 174 -244 q 442 -200 392 -244 q 493 -81 493 -156 q 451 23 493 -14 q 332 60 410 60 l 260 60 q 146 91 183 60 q 108 175 108 122 q 172 293 108 246 q 72 497 72 356 q 128 672 72 608 q 279 735 183 735 q 441 741 394 735 q 531 764 488 747 l 540 731 m 278 707 q 149 651 193 707 q 104 497 104 596 q 154 345 104 399 q 282 292 204 292 q 408 343 363 292 q 453 494 453 394 q 406 651 453 594 q 278 707 360 707 z "},"ǵ":{"ha":558,"x_min":49,"x_max":540,"o":"m 540 731 q 364 710 483 711 q 452 634 421 689 q 483 494 483 579 q 430 324 483 385 q 282 264 376 264 q 196 283 240 264 q 138 179 138 242 q 263 88 138 88 l 335 88 q 475 42 425 88 q 525 -79 525 -3 q 465 -221 525 -168 q 286 -274 404 -274 q 105 -228 161 -274 q 49 -81 49 -182 l 78 -81 q 126 -207 79 -169 q 286 -244 174 -244 q 442 -200 392 -244 q 493 -81 493 -156 q 451 23 493 -14 q 332 60 410 60 l 260 60 q 146 91 183 60 q 108 175 108 122 q 172 293 108 246 q 72 497 72 356 q 128 672 72 608 q 279 735 183 735 q 441 741 394 735 q 531 764 488 747 l 540 731 m 278 707 q 149 651 193 707 q 104 497 104 596 q 154 345 104 399 q 282 292 204 292 q 408 343 363 292 q 453 494 453 394 q 406 651 453 594 q 278 707 360 707 m 361 1054 l 379 1025 l 174 908 l 161 928 l 361 1054 z "},"ɣ":{"ha":521,"x_min":31,"x_max":490,"o":"m 278 61 q 326 -69 310 -12 q 343 -175 343 -126 q 322 -247 343 -219 q 261 -274 301 -274 q 200 -247 222 -274 q 178 -175 178 -221 q 194 -74 178 -128 q 243 61 210 -19 l 31 721 l 64 721 l 261 88 l 458 721 l 490 721 l 278 61 m 314 -174 q 301 -83 314 -129 q 261 38 289 -37 q 219 -84 232 -39 q 207 -174 207 -129 q 261 -246 207 -246 q 314 -174 314 -246 z "},"ğ":{"ha":558,"x_min":49,"x_max":540,"o":"m 540 731 q 364 710 483 711 q 452 634 421 689 q 483 494 483 579 q 430 324 483 385 q 282 264 376 264 q 196 283 240 264 q 138 179 138 242 q 263 88 138 88 l 335 88 q 475 42 425 88 q 525 -79 525 -3 q 465 -221 525 -168 q 286 -274 404 -274 q 105 -228 161 -274 q 49 -81 49 -182 l 78 -81 q 126 -207 79 -169 q 286 -244 174 -244 q 442 -200 392 -244 q 493 -81 493 -156 q 451 23 493 -14 q 332 60 410 60 l 260 60 q 146 91 183 60 q 108 175 108 122 q 172 293 108 246 q 72 497 72 356 q 128 672 72 608 q 279 735 183 735 q 441 741 394 735 q 531 764 488 747 l 540 731 m 278 707 q 149 651 193 707 q 104 497 104 596 q 154 345 104 399 q 282 292 204 292 q 408 343 363 292 q 453 494 453 394 q 406 651 453 594 q 278 707 360 707 m 279 919 q 194 951 228 919 q 153 1039 161 983 l 175 1044 q 279 949 197 949 q 383 1044 364 949 l 406 1039 q 365 951 399 983 q 279 919 331 919 z "},"ǧ":{"ha":558,"x_min":49,"x_max":540,"o":"m 540 731 q 364 710 483 711 q 452 634 421 689 q 483 494 483 579 q 430 324 483 385 q 282 264 376 264 q 196 283 240 264 q 138 179 138 242 q 263 88 138 88 l 335 88 q 475 42 425 88 q 525 -79 525 -3 q 465 -221 525 -168 q 286 -274 404 -274 q 105 -228 161 -274 q 49 -81 49 -182 l 78 -81 q 126 -207 79 -169 q 286 -244 174 -244 q 442 -200 392 -244 q 493 -81 493 -156 q 451 23 493 -14 q 332 60 410 60 l 260 60 q 146 91 183 60 q 108 175 108 122 q 172 293 108 246 q 72 497 72 356 q 128 672 72 608 q 279 735 183 735 q 441 741 394 735 q 531 764 488 747 l 540 731 m 278 707 q 149 651 193 707 q 104 497 104 596 q 154 345 104 399 q 282 292 204 292 q 408 343 363 292 q 453 494 453 394 q 406 651 453 594 q 278 707 360 707 m 410 1039 l 425 1025 l 288 890 l 271 890 l 133 1025 l 149 1039 l 279 922 l 410 1039 z "},"ĝ":{"ha":558,"x_min":49,"x_max":540,"o":"m 540 731 q 364 710 483 711 q 452 634 421 689 q 483 494 483 579 q 430 324 483 385 q 282 264 376 264 q 196 283 240 264 q 138 179 138 242 q 263 88 138 88 l 335 88 q 475 42 425 88 q 525 -79 525 -3 q 465 -221 525 -168 q 286 -274 404 -274 q 105 -228 161 -274 q 49 -81 49 -182 l 78 -81 q 126 -207 79 -169 q 286 -244 174 -244 q 442 -200 392 -244 q 493 -81 493 -156 q 451 23 493 -14 q 332 60 410 60 l 260 60 q 146 91 183 60 q 108 175 108 122 q 172 293 108 246 q 72 497 72 356 q 128 672 72 608 q 279 735 183 735 q 441 741 394 735 q 531 764 488 747 l 540 731 m 278 707 q 149 651 193 707 q 104 497 104 596 q 154 345 104 399 q 282 292 204 292 q 408 343 363 292 q 453 494 453 394 q 406 651 453 594 q 278 707 360 707 m 147 910 l 132 924 l 269 1058 l 288 1058 l 424 924 l 408 910 l 278 1026 l 147 910 z "},"ģ":{"ha":558,"x_min":49,"x_max":540,"o":"m 540 731 q 364 710 483 711 q 452 634 421 689 q 483 494 483 579 q 430 324 483 385 q 282 264 376 264 q 196 283 240 264 q 138 179 138 242 q 263 88 138 88 l 335 88 q 475 42 425 88 q 525 -79 525 -3 q 465 -221 525 -168 q 286 -274 404 -274 q 105 -228 161 -274 q 49 -81 49 -182 l 78 -81 q 126 -207 79 -169 q 286 -244 174 -244 q 442 -200 392 -244 q 493 -81 493 -156 q 451 23 493 -14 q 332 60 410 60 l 260 60 q 146 91 183 60 q 108 175 108 122 q 172 293 108 246 q 72 497 72 356 q 128 672 72 608 q 279 735 183 735 q 441 741 394 735 q 531 764 488 747 l 540 731 m 278 707 q 149 651 193 707 q 104 497 104 596 q 154 345 104 399 q 282 292 204 292 q 408 343 363 292 q 453 494 453 394 q 406 651 453 594 q 278 707 360 707 m 278 826 q 254 835 263 826 q 246 858 246 843 q 253 892 246 872 q 263 921 260 913 l 303 1051 l 324 1051 l 288 890 q 310 858 310 881 q 301 835 310 844 q 278 826 293 826 z "}}}
